<svg xmlns="http://www.w3.org/2000/svg"><defs><font id="Rajdhani" horiz-adv-x="482"><font-face font-family="Rajdhani" panose-1="2 0 0 0 0 0 0 0 0 0" ascent="930" descent="-346" alphabetic="0"/><glyph glyph-name="space" horiz-adv-x="254"/><glyph unicode="!" glyph-name="exclam" horiz-adv-x="237" d="M78 513v116q0 14 14 14h53q14 0 14-14V513q0-95-6-185t-8-102-13-12h-27q-13 0-14 15-4 39-8 137t-5 147zm79-378V14q0-14-14-14H95Q82 0 82 15v120q0 13 13 13h48q14 0 14-13z"/><glyph unicode="&quot;" glyph-name="quotedbl" horiz-adv-x="337" d="M94 429h-8q-13 0-15 16L55 629q0 14 13 14h44q14 0 12-14l-15-185q-1-15-15-15zm157 0h-9q-12 0-14 16l-16 184q0 14 13 14h44q14 0 12-14l-15-185q-2-15-15-15z"/><glyph unicode="#" glyph-name="numbersign" horiz-adv-x="675" d="M612 485q14 0 14-14v-33q0-14-14-14H512l-55-205h93q14 0 14-14v-33q0-14-14-14H440L402 15q-4-15-17-15h-34q-14 0-10 18l38 140H211L173 15q-4-15-18-15h-32q-16 0-10 18l38 140H63q-14 0-14 14v33q0 14 14 14h104l55 205h-97q-15 0-15 14v33q0 14 15 14h114l38 143q3 15 16 15h32q18 0 12-18l-38-140h168l38 143q5 15 19 15h30q16 0 12-18l-38-140h84zM395 219l55 205H283l-55-205h167z"/><glyph unicode="$" glyph-name="dollar" horiz-adv-x="511" d="M281-98h-34q-14 0-14 14V0h-24q-67 0-106 40T63 148v28q0 14 13 14h46q13 0 13-14v-22q0-90 89-90h63q89 0 89 92v47q0 47-26 66t-79 21l-55 1q-72 3-113 35T62 441v55q0 69 39 108t108 40h24v85q0 14 14 14h34q14 0 14-14v-85h7q65 0 104-40t39-108v-25q0-15-14-15h-45q-14 0-14 15v19q0 90-89 90h-59q-89 0-89-94v-47q0-45 25-62t79-20l62-2q68-3 108-36t40-113v-58q0-69-39-108T302 0h-7v-84q0-14-14-14z"/><glyph unicode="%" glyph-name="percent" horiz-adv-x="724" d="M555 252h-19q-38 0-52-15t-14-55v-65q0-38 14-54t52-16h19q37 0 51 16t14 54v65q0 39-14 54t-51 16zm-28 47h35q112 0 112-114v-70Q674 0 562 0h-35Q415 0 415 115v70q0 114 112 114zM189 599h-19q-37 0-51-15t-14-54v-66q0-39 14-54t51-16h19q37 0 51 16t14 54v66q0 38-14 53t-51 16zm-27 47h35q112 0 112-114v-70q0-114-112-114h-35Q50 348 50 462v70q0 114 112 114zM242 0h-29q-16 0-9 16 14 37 129 306t130 306q7 15 18 15h29q16 0 9-17L261 15q-6-15-19-15z"/><glyph unicode="&amp;" glyph-name="ampersand" horiz-adv-x="603" d="M218 65h66q67 0 77 60L204 308q-72-4-72-89v-70q0-84 86-84zm66-65h-75q-69 0-108 38T62 146v77q0 50 26 87t78 41q-44 53-44 117v29q0 69 41 107t110 39h27q69 0 108-38t39-108v-42q0-15-13-15h-45q-14 0-14 15v41q0 85-80 85h-16q-83 0-83-85v-29q0-49 44-98l58-67h234q15 0 15-14v-37q0-13-15-13H352L546 11q3-3 2-7t-6-4h-58q-14 0-23 10l-54 63Q382 0 284 0z"/><glyph unicode="'" glyph-name="quotesingle" horiz-adv-x="186" d="M98 445H88q-13 0-14 13L59 615q-1 13 13 13h42q14 0 13-13l-14-157q-4-13-15-13z"/><glyph unicode="(" glyph-name="parenleft" horiz-adv-x="290" d="M213 588h-3q-46 0-71-29t-25-83V65q0-54 25-83t72-29h2q14 0 14-13v-31q0-11-14-11h-3q-73 0-115 44T53 71v399q0 85 42 129t115 44h4q13 0 13-11v-31q0-13-14-13z"/><glyph unicode=")" glyph-name="parenright" horiz-adv-x="290" d="M53-91v31q0 13 13 13h3q45 0 70 29t26 83v411q0 54-25 83t-71 29h-3q-13 0-13 13v31q0 11 13 11h3q73 0 115-44t43-129V71q0-85-42-129T69-102h-3q-13 0-13 11z"/><glyph unicode="*" glyph-name="asterisk" horiz-adv-x="404" d="M173 616v14q0 13 13 13h30q14 0 14-13v-14q0-67-28-117 57 50 102 64l14 4q13 4 17-8l9-29q5-13-9-17l-13-4q-64-21-120-10 1-1 13-8t24-15q39-28 64-66 7-10-3-18l-25-18q-11-6-19 3l-7 11q-41 54-47 111 0-5-8-31-15-51-37-81l-8-12q-7-10-19-2l-24 18q-11 6-3 19l8 10q34 48 91 79-78-5-120 8l-14 4q-13 5-8 17l10 29q3 12 17 8 73-25 115-66 0 1-4 9t-7 20-9 24q-9 29-9 64z"/><glyph unicode="+" glyph-name="plus" horiz-adv-x="535" d="M300 352h150q15 0 15-15v-32q0-14-15-14H300V139q0-16-15-16h-34q-15 0-15 16v152H85q-15 0-15 14v32q0 15 15 15h151v151q0 16 15 16h34q15 0 15-16V352z"/><glyph unicode="," glyph-name="comma" horiz-adv-x="194" d="M136 135V56q0-22-15-58L81-96q-5-8-12-8-10 0-10 13v226q0 13 13 13h51q13 0 13-13z"/><glyph unicode="-" glyph-name="hyphen" horiz-adv-x="312" d="M258 289H54q-14 0-14 14v33q0 14 14 14h204q14 0 14-14v-33q0-14-14-14z"/><glyph unicode="." glyph-name="period" horiz-adv-x="194" d="M136 135V14q0-14-13-14H72Q59 0 59 14v121q0 13 13 13h51q13 0 13-13z"/><glyph unicode="/" glyph-name="slash" horiz-adv-x="400" d="M106 0H65Q47 0 53 16q16 40 113 310t110 302q6 15 19 15h42q17 0 10-17L125 15q-5-15-19-15z"/><glyph unicode="0" glyph-name="zero" horiz-adv-x="520" d="M219 64h82q84 0 84 87v341q0 87-84 87h-82q-83 0-83-87V151q0-87 83-87zm91-64H210q-68 0-107 39T63 148v347q0 69 39 108t108 40h100q68 0 107-39t40-109V148q0-70-39-109T310 0z"/><glyph unicode="1" glyph-name="one" horiz-adv-x="322" d="M33 505v40q0 15 12 22l116 67q16 9 26 9h42q14 0 14-14V14q0-14-14-14h-45q-14 0-14 14v551L51 497q-18-10-18 8z"/><glyph unicode="2" glyph-name="two" d="M57 14v90q0 67 56 110l193 152q50 38 50 94v36q0 85-86 85h-61q-84 0-84-85v-41q0-15-14-15H66q-13 0-13 15v42q0 69 39 107t108 39h80q69 0 108-38t39-108v-41q0-78-62-127L169 174q-33-26-33-63V65h279q14 0 14-14V14q0-14-14-14H71Q57 0 57 14z"/><glyph unicode="3" glyph-name="three" horiz-adv-x="500" d="M223 354h58q85 0 85 85v57q0 85-85 85h-69q-84 0-84-85v-32q0-15-14-15H69q-14 0-14 15v33q0 69 39 107t109 39h87q69 0 108-38t40-108v-59q0-89-82-115 82-21 82-114v-63q0-69-39-107T290 0h-87Q134 0 95 38T55 146v40q0 15 14 15h45q14 0 14-15v-39q0-85 84-85h69q85 0 85 85v61q0 85-85 85h-58q-14 0-14 14v33q0 14 14 14z"/><glyph unicode="4" glyph-name="four" horiz-adv-x="526" d="M342 191v393L116 191h226zM397 0h-42q-13 0-13 14v113H64q-21 0-21 21v24q0 17 7 30l244 421q9 20 30 20h65q22 0 22-21V191h74q14 0 14-13v-36q0-15-14-15h-74V14q0-14-14-14z"/><glyph unicode="5" glyph-name="five" horiz-adv-x="489" d="M278 352h-74q-42 0-55-24t-26-25H77q-14 0-14 14v312q0 14 14 14h331q15 0 15-14v-40q0-14-15-14H136V362q19 50 85 50h72q68 0 105-37t38-106V148q0-70-39-109T289 0h-82Q138 0 99 39T59 148v31q0 15 14 15h45q14 0 14-15v-30q0-87 83-87h65q85 0 85 87v111q0 47-21 69t-66 23z"/><glyph unicode="6" glyph-name="six" horiz-adv-x="505" d="M213 64h77q84 0 84 87v88q0 87-84 87H129V151q0-87 84-87zm86-64h-95Q135 0 96 39T56 148v347q0 69 39 108t109 40h194q14 0 14-14v-37q0-13-14-13H213q-84 0-84-87V390h170q69 0 108-39t39-109v-94q0-70-39-109T299 0z"/><glyph unicode="7" glyph-name="seven" horiz-adv-x="395" d="M135 0H88q-16 0-8 17l217 559H31q-14 0-14 14v39q0 14 14 14h330q14 0 14-14v-42q0-16-8-32L158 13q-5-13-23-13z"/><glyph unicode="8" glyph-name="eight" horiz-adv-x="526" d="M219 64h88q84 0 84 84v60q0 86-84 86h-88q-84 0-84-86v-60q0-84 84-84zm0 289h88q84 0 84 87v55q0 84-84 84h-88q-84 0-84-84v-55q0-87 84-87zM316 0H210q-69 0-108 37T63 143v61q0 90 70 120-70 27-70 120v56q0 69 39 106t108 37h106q69 0 108-37t39-106v-56q0-46-19-77t-51-43q70-29 70-121v-60q0-68-39-105T316 0z"/><glyph unicode="9" glyph-name="nine" horiz-adv-x="505" d="M209 314h161v178q0 87-84 87h-77q-83 0-83-87v-92q0-86 83-86zM295 0H98Q83 0 83 14v37q0 13 15 13h188q84 0 84 87v99H200q-68 0-107 39T53 397v98q0 69 39 108t108 40h95q69 0 108-39t39-109V148q0-70-39-109T295 0z"/><glyph unicode=":" glyph-name="colon" horiz-adv-x="194" d="M136 497V376q0-14-13-14H72q-13 0-13 15v119q0 14 13 14h51q13 0 13-13zm0-362V14q0-14-13-14H72Q59 0 59 15v120q0 13 13 13h51q13 0 13-13z"/><glyph unicode=";" glyph-name="semicolon" horiz-adv-x="194" d="M136 135V56q0-22-15-58L81-96q-5-8-12-8-10 0-10 13v226q0 13 13 13h51q13 0 13-13zm0 362V376q0-14-13-14H72q-13 0-13 15v119q0 14 13 14h51q13 0 13-13z"/><glyph unicode="&lt;" glyph-name="less" horiz-adv-x="528" d="M462 486v-36q0-15-13-19L128 324l321-108q13-2 13-18v-37q0-16-17-10L83 282q-17 7-17 24v35q0 18 17 24l362 131q17 6 17-10z"/><glyph unicode="=" glyph-name="equal" horiz-adv-x="542" d="M88 444h365q16 0 16-15v-31q0-15-16-15H88q-15 0-15 15v31q0 15 15 15zm0-185h365q16 0 16-15v-30q0-15-16-15H88q-15 0-15 15v30q0 15 15 15z"/><glyph unicode="&gt;" glyph-name="greater" horiz-adv-x="542" d="M73 450v36q0 16 17 10l362-131q17-6 17-24v-35q0-17-17-24L90 151q-17-6-17 10v37q0 16 13 18l321 108L86 431q-13 4-13 19z"/><glyph unicode="?" glyph-name="question" horiz-adv-x="471" d="M276 135V14q0-14-13-14h-51q-13 0-13 15v120q0 13 13 13h51q13 0 13-13zm-2 127v-34q0-14-14-14h-42q-14 0-14 14v32q0 39 11 60t44 49l42 36q37 31 37 69v21q0 85-86 85h-34q-84 0-84-85v-36q0-14-14-14H75q-13 0-13 14v37q0 69 39 107t108 39h52q69 0 108-38t40-108v-26q0-52-47-91l-52-44q-23-20-29-34t-7-39z"/><glyph unicode="@" glyph-name="at" horiz-adv-x="751" d="M508-58H327Q223-58 149 9T75 189v165q0 111 72 180t172 69h198q73 0 118-43t45-113V217q0-60-37-97t-97-37h-39q-19 0-32 10t-13 29v15h-4q-25-53-104-53-61 0-98 38t-37 106v84q0 69 38 108t102 40h151q14 0 14-14V141q0-10 14-10h5q88 0 88 91v221q0 54-32 83t-86 30H322q-85 0-141-56t-57-149V194q0-93 58-149t144-56h182q14 0 14-13v-20q0-14-14-14zm-46 291v160q0 10-10 10h-84q-84 0-84-87v-88q0-87 84-87h2q45 0 68 24t24 68z"/><glyph unicode="A" glyph-name="A" horiz-adv-x="540" d="M87 0H37q-13 0-9 14l187 615q4 14 19 14h72q15 0 19-14L512 14q4-14-9-14h-51q-11 0-14 14l-47 146H149L102 14Q98 0 87 0zm181 568L165 222h210L272 568h-4z"/><glyph unicode="B" glyph-name="B" horiz-adv-x="549" d="M162 62h164q86 0 86 85v65q0 85-92 85H162q-10 0-10-9V72q0-10 10-10zm0 296h154q88 0 88 85v53q0 85-85 85H162q-10 0-10-10V367q0-9 10-9zM79 14v615q0 14 14 14h235q69 0 108-38t39-108v-55q0-89-84-115 38-3 65-33t27-81v-67q0-69-39-107T335 0H93Q79 0 79 14z"/><glyph unicode="C" glyph-name="C" horiz-adv-x="541" d="M337 0H217q-69 0-108 39T69 148v347q0 70 39 109t109 39h120q69 0 108-39t40-109v-49q0-14-14-14h-45q-14 0-14 14v46q0 87-84 87H225q-83 0-83-87V151q0-87 83-87h103q84 0 84 87v46q0 14 14 14h45q14 0 14-14v-49q0-70-39-109T337 0z"/><glyph unicode="D" glyph-name="D" horiz-adv-x="556" d="M162 64h168q84 0 84 87v341q0 87-84 87H162q-10 0-10-9V73q0-9 10-9zM79 14v615q0 14 14 14h246q69 0 108-39t40-109V148q0-69-39-108T339 0H93Q79 0 79 14z"/><glyph unicode="E" glyph-name="E" horiz-adv-x="480" d="M407 0H93Q79 0 79 14v615q0 14 14 14h314q14 0 14-14v-36q0-14-14-14H162q-10 0-10-9V368q0-9 10-9h214q14 0 14-14v-36q0-14-14-14H162q-10 0-10-9V73q0-9 10-9h245q14 0 14-14V14q0-14-14-14z"/><glyph unicode="F" glyph-name="F" horiz-adv-x="457" d="M138 0H93Q79 0 79 14v615q0 14 14 14h311q14 0 14-14v-36q0-14-14-14H162q-10 0-10-9V352q0-9 10-9h214q14 0 14-14v-36q0-14-14-14H162q-10 0-10-10V14q0-14-14-14z"/><glyph unicode="G" glyph-name="G" horiz-adv-x="541" d="M325 0H217q-69 0-108 39T69 148v347q0 70 39 109t109 39h108q69 0 108-39t39-109v-41q0-15-14-15h-45q-14 0-14 15v38q0 87-83 87h-91q-83 0-83-87V151q0-87 83-87h91q83 0 83 87v112q0 10-9 10h-99q-14 0-14 13v37q0 14 14 14h161q20 0 20-21V148q0-70-39-109T325 0z"/><glyph unicode="H" glyph-name="H" horiz-adv-x="572" d="M138 0H93Q79 0 79 14v615q0 14 14 14h45q14 0 14-14V366q0-9 10-9h248q10 0 10 9v263q0 14 14 14h45q14 0 14-14V14q0-14-14-14h-45q-14 0-14 14v270q0 9-10 9H162q-10 0-10-9V14q0-14-14-14z"/><glyph unicode="I" glyph-name="I" horiz-adv-x="241" d="M157 629V14q0-14-14-14H98Q84 0 84 14v615q0 14 14 14h45q14 0 14-14z"/><glyph unicode="J" glyph-name="J" horiz-adv-x="505" d="M373 643h45q13 0 13-13V148q0-70-39-109T284 0H184Q115 0 76 39T36 148v86q0 14 14 14h45q14 0 14-14v-83q0-87 84-87h82q84 0 84 87v478q0 14 14 14z"/><glyph unicode="K" glyph-name="K" horiz-adv-x="538" d="M138 0H93Q79 0 79 14v615q0 14 14 14h45q14 0 14-14V284h3q7 21 22 41l224 304q9 14 26 14h54q17 0 5-15L288 360 514 16q11-16-9-16h-41q-21 0-29 14L243 307l-91-109V14q0-14-14-14z"/><glyph unicode="L" glyph-name="L" horiz-adv-x="451" d="M414 0H93Q79 0 79 14v615q0 14 14 14h45q14 0 14-14V75q0-9 10-9h252q14 0 14-15V14q0-14-14-14z"/><glyph unicode="M" glyph-name="M" horiz-adv-x="705" d="M531 643h81q14 0 14-14V14q0-14-14-14h-44q-14 0-14 14v531h-4L395 153q-6-13-18-13h-48q-13 0-17 13L154 546h-4V14q0-14-13-14H93Q79 0 79 14v615q0 14 14 14h81q9 0 12-8l164-414h5l164 414q2 8 12 8z"/><glyph unicode="N" glyph-name="N" horiz-adv-x="581" d="M137 0H93Q79 0 79 14v615q0 14 14 14h41q12 0 16-8l276-485h4v479q0 14 14 14h44q14 0 14-14V14q0-14-14-14h-37q-11 0-21 13L155 493h-4V14q0-14-14-14z"/><glyph unicode="O" glyph-name="O" horiz-adv-x="553" d="M225 64h102q84 0 84 87v341q0 87-84 87H225q-83 0-83-87V151q0-87 83-87zM336 0H217q-69 0-108 39T69 148v347q0 70 39 109t109 39h119q69 0 108-39t40-109V148q0-69-39-108T336 0z"/><glyph unicode="P" glyph-name="P" horiz-adv-x="526" d="M138 0H93Q79 0 79 14v615q0 14 14 14h234q69 0 108-39t39-109V384q0-70-39-109t-108-39H162q-10 0-10-9V14q0-14-14-14zm24 301h155q84 0 84 86v105q0 87-84 87H162q-10 0-10-9V310q0-9 10-9z"/><glyph unicode="Q" glyph-name="Q" horiz-adv-x="560" d="M229 64h102q84 0 84 87v341q0 87-84 87H229q-83 0-83-87V151q0-87 83-87zm192-197h-41q-18 0-26 14L282 0h-62q-68 0-107 39T73 148v347q0 69 39 108t108 40h119q69 0 108-39t40-109V148q0-64-34-102T359 2l71-119q4-7 1-11t-10-5z"/><glyph unicode="R" glyph-name="R" horiz-adv-x="537" d="M138 0H93Q79 0 79 14v615q0 14 14 14h230q69 0 109-39t40-109v-91q0-56-27-92t-75-49v-4L486 16q9-16-10-16h-45q-17 0-25 14L294 256H162q-10 0-10-9V14q0-14-14-14zm24 317h151q86 0 86 86v89q0 87-86 87H162q-10 0-10-9V326q0-9 10-9z"/><glyph unicode="S" glyph-name="S" horiz-adv-x="555" d="M72 148v32q0 14 14 14h45q14 0 14-14v-26q0-90 89-90h88q89 0 89 92v34q0 72-119 94-50 9-100 21t-85 46-35 95v49q0 69 39 108t109 40h111q68 0 108-39t40-109v-25q0-15-13-15h-46q-13 0-13 15v18q0 91-89 91h-85q-89 0-89-95v-40q0-51 67-70 30-8 66-14t72-17 67-26 48-47 19-77v-45q0-69-40-108T335 0H220q-68 0-108 39T72 148z"/><glyph unicode="T" glyph-name="T" horiz-adv-x="427" d="M236 0h-45q-14 0-14 14v556q0 9-10 9H31q-15 0-15 14v36q0 14 15 14h365q15 0 15-14v-36q0-14-15-14H260q-10 0-10-9V14q0-14-14-14z"/><glyph unicode="U" glyph-name="U" horiz-adv-x="554" d="M421 643h45q14 0 14-13V148q0-70-39-109T333 0H222q-69 0-108 39T74 148v481q0 14 14 14h45q14 0 14-14V151q0-87 83-87h94q84 0 84 87v478q0 14 13 14z"/><glyph unicode="V" glyph-name="V" horiz-adv-x="506" d="M289 0h-71q-13 0-17 14L24 628q-3 15 13 15h49q13 0 16-14L251 82h4l149 547q3 14 16 14h50q15 0 12-15L305 14q-4-14-16-14z"/><glyph unicode="W" glyph-name="W" horiz-adv-x="797" d="M249 0h-77q-14 0-17 14L27 629q-3 14 13 14h54q15 0 16-14L211 78h6l135 552q3 13 16 13h60q13 0 16-13L581 78h6l100 550q3 15 17 15h54q16 0 13-15L642 14q-3-14-16-14h-77q-14 0-17 14L401 551h-4L265 14q-3-14-16-14z"/><glyph unicode="X" glyph-name="X" horiz-adv-x="514" d="M93 0H41q-7 0-9 4t0 11l175 321L41 628q-4 6-1 10t10 5h50q16 0 22-14l134-246h4l132 246q8 14 22 14h52q7 0 9-4t0-11L308 337 482 15q4-6 2-10t-10-5h-53q-14 0-19 13L259 281h-4L113 13Q106 0 93 0z"/><glyph unicode="Y" glyph-name="Y" horiz-adv-x="500" d="M272 0h-45q-14 0-14 14v227L23 628q-3 7 0 11t9 4h56q11 0 17-14l143-303h5l142 303q4 14 16 14h57q17 0 9-15L286 241V14q0-14-14-14z"/><glyph unicode="Z" glyph-name="Z" horiz-adv-x="493" d="M44 14v36q0 18 6 26l310 495v4H71q-14 0-14 14v40q0 14 14 14h354q14 0 14-14v-48q0-16-8-28L129 72v-4h306q14 0 14-13V15q0-15-14-15H58Q44 0 44 14z"/><glyph unicode="[" glyph-name="bracketleft" horiz-adv-x="297" d="M217-100H81q-14 0-14 14v715q0 14 14 14h136q14 0 14-14v-25q0-14-14-14h-78q-10 0-10-10V-37q0-10 10-10h78q14 0 14-14v-26q0-13-14-13z"/><glyph unicode="\" glyph-name="backslash" horiz-adv-x="400" d="M63 643h43q12 0 19-15 14-37 111-306T347 16q6-16-11-16h-42q-12 0-19 15L53 626q-6 17 10 17z"/><glyph unicode="]" glyph-name="bracketright" horiz-adv-x="297" d="M60-87v26q0 14 14 14h78q10 0 10 10v617q0 10-10 10H74q-14 0-14 14v25q0 14 14 14h136q13 0 13-14V-86q0-14-13-14H74q-14 0-14 13z"/><glyph unicode="^" glyph-name="asciicircum" horiz-adv-x="479" d="M105 364H65q-19 0-10 16l128 243q9 20 30 20h52q21 0 30-20l128-243q9-16-10-16h-40q-12 0-20 14L239 597 125 378q-8-14-20-14z"/><glyph unicode="_" glyph-name="underscore" horiz-adv-x="372" d="M358-103H14Q0-103 0-89v18q0 14 14 14h344q14 0 14-14v-18q0-14-14-14z"/><glyph unicode="`" glyph-name="grave" horiz-adv-x="277" d="M206 574h-33q-12 0-20 10L66 689q-4 6-2 10t8 4h61q14 0 21-13l58-102q8-14-6-14z"/><glyph unicode="a" glyph-name="a" horiz-adv-x="507" d="M259 0h-52Q138 0 99 39T59 148v214q0 70 39 109t109 39h217q14 0 14-14V14q0-14-14-14h-45q-14 0-14 14v39h-4Q336 0 259 0zm106 156v281q0 9-10 9H215q-83 0-83-87V151q0-87 83-87h57q45 0 69 24t24 68z"/><glyph unicode="b" glyph-name="b" horiz-adv-x="510" d="M152 64h142q85 0 85 87v214q0 87-85 87h-59q-45 0-69-24t-24-67V73q0-9 10-9zM69 14v675q0 14 14 14h45q14 0 14-14V463h4q25 53 102 53h56q68 0 107-39t40-108V148q0-70-39-109T304 0H83Q69 0 69 14z"/><glyph unicode="c" glyph-name="c" horiz-adv-x="399" d="M366 50V13q0-13-14-13H207Q138 0 99 39T59 148v214q0 70 39 109t109 39h145q14 0 14-14v-37q0-13-14-13H215q-83 0-83-87V151q0-87 83-87h137q14 0 14-14z"/><glyph unicode="d" glyph-name="d" horiz-adv-x="510" d="M262 0h-59Q135 0 97 39T59 148v214q0 70 38 109t106 39h59q78 0 103-53h4v232q0 14 13 14h46q13 0 13-14V14q0-14-13-14h-46q-13 0-13 14v39h-4Q340 0 262 0zm107 156v198q0 44-24 68t-69 24h-61q-83 0-83-87V151q0-87 83-87h61q45 0 69 24t24 68z"/><glyph unicode="e" glyph-name="e" horiz-adv-x="492" d="M419 0H207Q138 0 99 39T59 148v214q0 70 39 109t109 39h84q69 0 108-39t39-109V235q0-15-14-15H141q-10 0-10-9v-61q0-87 84-87h204q14 0 14-14V13q0-13-14-13zM141 273h216q10 0 10 10v77q0 86-84 86h-68q-84 0-84-86v-77q0-10 10-10z"/><glyph unicode="f" glyph-name="f" horiz-adv-x="318" d="M197 510h88q15 0 15-13v-37q0-14-15-14h-88q-9 0-9-9V14q0-14-15-14h-44q-14 0-14 14v423q0 9-10 9H46q-14 0-14 14v37q0 13 14 13h59q10 0 10 9v37q0 71 35 109t102 38h34q14 0 14-13v-37q0-14-14-14h-25q-41 0-57-20t-16-66v-34q0-9 9-9z"/><glyph unicode="g" glyph-name="g" horiz-adv-x="510" d="M262 27h-56q-68 0-106 39T62 175v187q0 70 39 109t109 39h217q14 0 14-14V0q0-69-39-108t-109-40H109q-15 0-15 14v37q0 14 15 14h175q84 0 84 86v77h-4q-26-53-102-53zm106 156v254q0 9-10 9H219q-84 0-84-87V178q0-87 84-87h56q45 0 69 24t24 68z"/><glyph unicode="h" glyph-name="h" horiz-adv-x="512" d="M128 0H83Q69 0 69 14v675q0 14 14 14h45q14 0 14-14V457h4q25 53 102 53h56q68 0 106-39t38-109V14q0-14-14-14h-45q-14 0-14 14v345q0 87-84 87h-56q-45 0-69-24t-24-68V14q0-14-14-14z"/><glyph unicode="i" glyph-name="i" horiz-adv-x="221" d="M74 594v94q0 14 13 14h46q14 0 14-14v-94q0-14-14-14H87q-13 0-13 14zm0-580v482q0 14 13 14h46q14 0 14-14V14q0-14-14-14H88Q74 0 74 14z"/><glyph unicode="j" glyph-name="j" horiz-adv-x="221" d="M74 594v94q0 14 13 14h46q14 0 14-14v-94q0-14-14-14H87q-13 0-13 14zM-1-148h-41q-14 0-14 14v37q0 14 14 14h23q93 0 93 94v485q0 14 14 14h45q14 0 14-14V1q0-69-39-109T-1-148z"/><glyph unicode="k" glyph-name="k" horiz-adv-x="443" d="M358 510h50q8 0 10-4t-2-12L269 266v-4L431 16q4-7 1-11t-11-5h-47q-19 0-28 14L192 252q-6 10 0 21l142 224q6 13 24 13zM128 0H83Q69 0 69 14v675q0 14 14 14h45q14 0 14-14V14q0-14-14-14z"/><glyph unicode="l" glyph-name="l" horiz-adv-x="221" d="M133 0H88Q74 0 74 14v675q0 14 14 14h45q14 0 14-14V14q0-14-14-14z"/><glyph unicode="m" glyph-name="m" horiz-adv-x="777" d="M128 0H83Q69 0 69 14v482q0 14 14 14h45q14 0 14-14v-39h4q28 53 106 53h37q88 0 122-68 16 33 50 50t73 18h35q68 0 106-39t38-109V14q0-14-14-14h-45q-14 0-14 14v345q0 87-84 87h-33q-45 0-69-25t-25-70V14q0-14-14-14h-45q-14 0-14 14v345q0 87-84 87h-37q-45 0-69-24t-24-68V14q0-14-14-14z"/><glyph unicode="n" glyph-name="n" horiz-adv-x="512" d="M128 0H83Q69 0 69 14v482q0 14 14 14h45q14 0 14-14v-39h4q25 53 102 53h56q68 0 106-39t38-109V14q0-14-14-14h-45q-14 0-14 14v345q0 87-84 87h-56q-45 0-69-24t-24-68V14q0-14-14-14z"/><glyph unicode="o" glyph-name="o" horiz-adv-x="500" d="M293 0h-86Q138 0 99 39T59 148v214q0 70 39 109t109 39h86q69 0 108-39t40-109V148q0-70-39-109T293 0zm-78 64h70q84 0 84 86v210q0 86-84 86h-70q-84 0-84-86V150q0-86 84-86z"/><glyph unicode="p" glyph-name="p" horiz-adv-x="510" d="M128-146H83q-14 0-14 14v628q0 14 14 14h45q14 0 14-14v-39h4q25 53 102 53h60q68 0 105-39t38-109V148q0-70-37-109T308 0h-60q-77 0-102 53h-4v-185q0-14-14-14zM235 64h59q85 0 85 87v208q0 87-85 87h-59q-45 0-69-24t-24-68V156q0-44 24-68t69-24z"/><glyph unicode="q" glyph-name="q" horiz-adv-x="507" d="M365 159v278q0 9-10 9H215q-83 0-83-87V151q0-87 83-87h55q46 0 70 25t25 70zM256 0h-49Q138 0 99 39T59 148v214q0 70 39 109t109 39h217q14 0 14-14v-628q0-14-14-14h-45q-14 0-14 14V54h-4Q332 0 256 0z"/><glyph unicode="r" glyph-name="r" horiz-adv-x="323" d="M128 0H83Q69 0 69 14v482q0 14 14 14h45q14 0 14-14v-40h4q10 22 38 38t66 16h39q13 0 13-14v-37q0-7-3-10t-10-3h-54q-45 0-69-27t-24-74V14q0-14-14-14z"/><glyph unicode="s" glyph-name="s" horiz-adv-x="433" d="M242 0H64Q50 0 50 14v35q0 13 14 13h168q78 0 78 58v19q0 53-51 73l-118 50q-51 21-73 49t-22 76q0 123 135 123h164q14 0 14-14v-35q0-13-14-13H194q-36 0-54-15t-19-35v-17q0-42 57-64l118-53q52-20 70-53t19-91Q385 0 242 0z"/><glyph unicode="t" glyph-name="t" horiz-adv-x="349" d="M88 446H33q-14 0-14 13v37q0 14 14 14h55q10 0 10 9v86q0 14 14 14h45q13 0 13-14v-86q0-9 11-9h106q15 0 15-14v-37q0-13-15-13H181q-11 0-11-9V149q0-85 88-85h39q15 0 15-14V13q0-13-15-13h-48q-69 0-110 38T98 146v291q0 9-10 9z"/><glyph unicode="u" glyph-name="u" horiz-adv-x="512" d="M264 0h-56q-68 0-106 39T64 148v348q0 14 14 14h45q14 0 14-14V151q0-87 83-87h57q45 0 69 24t24 68v340q0 14 14 14h45q14 0 14-14V14q0-14-14-14h-45q-14 0-14 14v39h-4Q341 0 264 0z"/><glyph unicode="v" glyph-name="v" horiz-adv-x="431" d="M30 510h47q13 0 16-14L213 73h5l119 423q4 14 17 14h47q14 0 10-14L267 15q-3-15-18-15h-68q-14 0-18 15L20 496q-4 14 10 14z"/><glyph unicode="w" glyph-name="w" horiz-adv-x="686" d="M227 0h-61q-14 0-17 14L21 496q-3 14 10 14h51q13 0 16-14l97-408h6l103 408q3 14 16 14h46q14 0 18-14L484 88h6l98 408q3 14 16 14h51q13 0 10-14L537 14q-3-14-17-14h-62q-13 0-16 14l-97 398h-5L244 14q-3-14-17-14z"/><glyph unicode="x" glyph-name="x" horiz-adv-x="427" d="M89 0H33q-16 0-8 14l140 246L30 496q-8 14 7 14h56q13 0 21-14l98-189h4l93 189q7 14 21 14h55q17 0 7-14L261 261 403 14q9-14-7-14h-58q-11 0-19 14L216 211h-4L109 14Q103 0 89 0z"/><glyph unicode="y" glyph-name="y" horiz-adv-x="463" d="M110-157H66q-14 0-14 14v37q0 14 14 14h25q64 0 90 36 21 29 38 83h-29q-12 0-17 14L26 496q-4 14 10 14h48q13 0 17-14L230 84h4l129 412q3 14 16 14h46q17 0 12-15L288 20q-25-85-63-131t-115-46z"/><glyph unicode="z" glyph-name="z" horiz-adv-x="418" d="M33 14v19q0 18 10 31l247 378v4H55q-14 0-14 15v35q0 14 14 14h307q15 0 15-14v-33q0-18-9-27L129 68v-4h242q14 0 14-15V14q0-14-14-14H48Q33 0 33 14z"/><glyph unicode="{" glyph-name="braceleft" horiz-adv-x="303" d="M227 643h5q14 0 14-14v-27q0-14-14-14h-3q-37 0-51-21t-14-66V367q0-78-57-97 57-16 57-96V40q0-45 14-66t51-21h3q14 0 14-14v-27q0-14-14-14h-5q-124 0-124 148v123q0 69-56 69-14 0-14 14v36q0 14 14 14 56 0 56 70v123q0 148 124 148z"/><glyph unicode="|" glyph-name="bar" horiz-adv-x="214" d="M134 629V14q0-14-14-14H93Q80 0 80 14v615q0 14 13 14h27q14 0 14-14z"/><glyph unicode="}" glyph-name="braceright" horiz-adv-x="303" d="M176 495V372q0-70 56-70 14 0 14-14v-36q0-14-14-14-56 0-56-69V46q0-148-124-148h-5q-14 0-14 14v27q0 14 14 14h3q36 0 50 21t15 66v134q0 80 57 96-57 19-57 97v134q0 45-14 66t-51 21h-3q-14 0-14 14v27q0 14 14 14h5q124 0 124-148z"/><glyph unicode="~" glyph-name="asciitilde" horiz-adv-x="535" d="M331 279l-66 15-94 15-57-12-33-12q-11 0-11 12v30q0 15 21 25 37 15 74 15t103-15 94-16 60 12 33 13q10 0 10-12v-31q0-15-21-24-37-15-75-15z"/><glyph glyph-name="uni00A0" horiz-adv-x="254"/><glyph unicode="¡" glyph-name="exclamdown" horiz-adv-x="237" d="M143 495H95q-13 0-13 13v120q0 15 13 15h48q14 0 14-14V508q0-13-14-13zm-38-66h27q11 0 13-12t5-57q9-135 9-230V14q0-14-14-14H92Q78 0 78 14v116q0 95 6 185t7 99q1 15 14 15z"/><glyph unicode="¢" glyph-name="cent" horiz-adv-x="419" d="M276-91h-36q-13 0-13 14V0h-26Q135 0 97 40T59 148v214q0 68 38 108t104 40h26v87q0 14 13 14h36q13 0 13-13v-88h71q22 0 22-14v-37q0-13-15-13H215q-83 0-83-87V151q0-87 83-87h152q15 0 15-13V14q0-14-15-14h-78v-78q0-13-13-13z"/><glyph unicode="£" glyph-name="sterling" horiz-adv-x="536" d="M140 61h316q13 0 13-14V14q0-14-13-14H47Q33 0 33 14v33q0 14 14 14h10q19 0 33 19t14 49v137H47q-14 0-14 15v33q0 13 14 13h57v170q0 69 39 107t109 39h65q69 0 108-38t39-108v-27q0-14-14-14h-45q-14 0-14 14v26q0 85-84 85h-46q-86 0-86-85V327h147q14 0 14-13v-33q0-15-14-15H175V138q0-35-11-54t-24-19v-4z"/><glyph unicode="¥" glyph-name="yen" horiz-adv-x="512" d="M278 0h-45q-14 0-14 14v151H54q-15 0-15 15v23q0 15 15 15h163v27l-31 65H54q-15 0-15 14v24q0 15 15 15h106L28 629q-6 14 8 14h59q9 0 15-14l143-309h4l144 309q6 14 16 14h58q15 0 8-14L352 363h105q15 0 15-15v-24q0-14-15-14H326l-32-65v-27h163q15 0 15-15v-23q0-15-15-15H292V14q0-14-14-14z"/><glyph unicode="¦" glyph-name="brokenbar" horiz-adv-x="209" d="M133 629V388q0-14-14-14H90q-14 0-14 14v241q0 14 14 14h29q14 0 14-14zm0-374V14q0-14-14-14H90Q76 0 76 14v241q0 14 14 14h29q14 0 14-14z"/><glyph unicode="§" glyph-name="section" horiz-adv-x="464" d="M336 302q0 30-16 45t-49 23l-80 15q-40 10-63 27v-66q0-58 64-72l80-15q42-8 64-24v67zM258 0H84Q70 0 70 14v37q0 13 14 13h170q45 0 61 19t16 50-17 46-55 22l-100 19q-99 20-99 122v173q0 58 33 93t106 35h163q14 0 14-14v-37q0-13-14-13H201q-68 0-68-67 0-29 15-44t56-24l100-19q100-20 100-119V135Q404 0 258 0z"/><glyph unicode="¨" glyph-name="dieresis" horiz-adv-x="366" d="M63 588v101q0 14 13 14h42q14 0 14-13V588q0-14-14-14H76q-13 0-13 14zm170 0v101q0 14 14 14h42q14 0 14-13V588q0-14-14-14h-42q-14 0-14 14z"/><glyph unicode="©" glyph-name="copyright" horiz-adv-x="717" d="M493 402v-22q0-11-10-11h-32q-10 0-10 11v16q0 43-16 57t-60 15h-14q-44 0-60-14t-16-58V244q0-43 16-57t60-15h14q44 0 60 14t16 58v19q0 11 10 11h32q10 0 10-11v-26q0-112-118-112h-34q-118 0-118 112v165q0 112 118 112h34q118 0 118-112zM211 48h295q89 0 89 90v367q0 90-89 90H211q-89 0-89-90V138q0-90 89-90zm-11 595h317q60 0 95-35t36-96V131q0-61-35-96T517 0H200q-60 0-95 35t-35 96v381q0 60 35 95t95 36z"/><glyph unicode="«" glyph-name="guillemotleft" horiz-adv-x="438" d="M379 129V96q0-9-4-11t-12 3L223 216q-14 12-14 27v26q0 14 14 26l140 128q7 6 11 4t5-11v-33q0-12-12-20L252 256l115-107q12-8 12-20zm-151 0V96q0-9-4-11t-11 3L73 216q-14 11-14 27v26q0 14 14 26l140 128q7 6 11 4t4-11v-33q0-11-11-20L102 256l115-107q11-9 11-20z"/><glyph unicode="®" glyph-name="registered" horiz-adv-x="450" d="M240 615h-39v-60h39q16 0 16 17v28q0 15-16 15zm-72-142v159q0 13 13 13h61q47 0 47-45v-29q0-32-24-41l26-54q7-16-8-16h-10q-9 0-13 9l-27 59h-32v-55q0-13-13-13h-7q-13 0-13 13zm6-49h102q71 0 71 74v108q0 73-71 73H174q-72 0-72-73V498q0-74 72-74zm107-33H168q-47 0-74 27t-28 74v119q0 47 28 74t74 28h113q47 0 74-27t28-75V492q0-47-27-74t-75-27z"/><glyph unicode="¯" glyph-name="overscore" horiz-adv-x="355" d="M278 613H77q-14 0-14 14v24q0 14 14 14h201q14 0 14-14v-24q0-14-14-14z"/><glyph unicode="°" glyph-name="degree" horiz-adv-x="321" d="M184 511h-48q-49 0-49 49v97q0 47 49 47h48q23 0 36-12t14-35v-97q0-23-13-36t-37-13zm-17 34q17 0 23 6t6 23v65q0 18-6 23t-23 6h-13q-18 0-23-5t-6-24v-65q0-17 5-23t24-6h13z"/><glyph unicode="±" glyph-name="plusminus" horiz-adv-x="535" d="M300 406h150q15 0 15-15v-30q0-15-15-15H300v-98q0-15-15-15h-34q-15 0-15 15v98H85q-15 0-15 15v30q0 15 15 15h151v97q0 16 15 16h34q15 0 15-16v-97zM85 183h365q15 0 15-14v-31q0-15-15-15H85q-15 0-15 15v31q0 14 15 14z"/><glyph unicode="´" glyph-name="acute" horiz-adv-x="277" d="M145 703h60q7 0 9-4t-2-10l-88-105q-8-10-20-10H72q-13 0-7 14l58 102q7 13 22 13z"/><glyph unicode="¶" glyph-name="paragraph" horiz-adv-x="522" d="M221 0h-35q-13 0-13 14v307q-57 0-90 29t-33 91v82q0 120 134 120h241q15 0 15-13V14q0-14-14-14h-34q-14 0-14 14v562q0 9-10 9H245q-11 0-11-9V14q0-14-13-14z"/><glyph unicode="·" glyph-name="middot" horiz-adv-x="207" d="M142 379V258q0-14-13-14H78q-13 0-13 14v120q0 14 13 14h51q13 0 13-13z"/><glyph unicode="¸" glyph-name="cedilla" horiz-adv-x="259" d="M120-47q76 0 76-64v-14q0-63-85-63H80q-13 0-13 13v14q0 13 13 13h24q28 0 39 6t11 23v2q0 18-10 24t-40 7H88q-18 0-24 15t6 29l55 62h54l-59-63v-4z"/><glyph unicode="»" glyph-name="guillemotright" horiz-adv-x="438" d="M209 383v33q0 8 4 10t11-3l141-128q14-12 14-26v-26q0-15-14-27L224 88q-6-6-10-3t-5 11v33q0 12 12 20l115 107-115 107q-12 8-12 20zm-150 0v33q0 8 4 10t11-3l140-128q14-12 14-26v-26q0-16-14-27L74 88q-7-6-11-4t-4 12v33q0 11 11 20l115 107L70 363q-11 9-11 20z"/><glyph unicode="¿" glyph-name="questiondown" horiz-adv-x="471" d="M195 507v121q0 14 13 14h51q13 0 13-15V507q0-13-13-13h-51q-13 0-13 13zm2-127v34q0 14 13 14h43q14 0 14-14v-32q0-38-11-60t-44-49l-42-36q-37-30-37-69v-21q0-85 85-85h34q84 0 84 85v36q0 14 14 14h45q14 0 14-14v-37q0-69-39-107T261 0h-52q-69 0-108 38T62 146v26q0 51 46 91l53 44q23 20 29 34t7 39z"/><glyph unicode="À" glyph-name="Agrave" horiz-adv-x="539" d="M283 707h-33q-12 0-20 10l-87 105q-4 6-2 10t9 4h60q15 0 21-13l58-102q8-14-6-14zM87 0H37q-13 0-9 14l187 615q4 14 19 14h72q15 0 19-14L512 14q4-14-9-14h-51q-11 0-14 14l-47 146H149L102 14Q98 0 87 0zm181 568L165 222h210L272 568h-4z"/><glyph unicode="Á" glyph-name="Aacute" horiz-adv-x="539" d="M328 836h60q7 0 9-4t-2-10l-87-105q-10-10-20-10h-33q-14 0-6 14l58 102q6 13 21 13zM87 0H37q-13 0-9 14l187 615q4 14 19 14h72q15 0 19-14L512 14q4-14-9-14h-51q-11 0-14 14l-47 146H149L102 14Q98 0 87 0zm181 568L165 222h210L272 568h-4z"/><glyph unicode="Â" glyph-name="Acircumflex" horiz-adv-x="539" d="M365 707h-34q-10 0-14 8l-47 88-48-88q-3-8-13-8h-34q-13 0-6 12l63 107q7 10 21 10h34q13 0 20-10l64-107q7-12-6-12zM87 0H37q-13 0-9 14l187 615q4 14 19 14h72q15 0 19-14L512 14q4-14-9-14h-51q-11 0-14 14l-47 146H149L102 14Q98 0 87 0zm181 568L165 222h210L272 568h-4z"/><glyph unicode="Ã" glyph-name="Atilde" horiz-adv-x="539" d="M216 702q-56 0-56 77v39q0 10 9 10h21q9 0 9-10v-26q0-29 5-39t17-10 19 8 19 35 25 37 40 9q57 0 57-78v-39q0-11-9-11h-22q-9 0-9 11v27q0 29-5 38t-18 10-18-6-10-18q-21-45-33-54t-41-10zM87 0H37q-13 0-9 14l187 615q4 14 19 14h72q15 0 19-14L512 14q4-14-9-14h-51q-11 0-14 14l-47 146H149L102 14Q98 0 87 0zm181 568L165 222h210L272 568h-4z"/><glyph unicode="Ä" glyph-name="Adieresis" horiz-adv-x="539" d="M150 721v101q0 14 13 14h43q12 0 12-13V721q0-14-12-14h-43q-13 0-13 14zm171 0v101q0 14 13 14h43q12 0 12-13V721q0-14-12-14h-43q-13 0-13 14zM87 0H37q-13 0-9 14l187 615q4 14 19 14h72q15 0 19-14L512 14q4-14-9-14h-51q-11 0-14 14l-47 146H149L102 14Q98 0 87 0zm181 568L165 222h210L272 568h-4z"/><glyph unicode="Å" glyph-name="Aring" horiz-adv-x="539" d="M284 697h-31q-66 0-66 68v41q0 66 66 66h31q32 0 49-17t18-49v-41q0-32-17-50t-50-18zm-22 33h12q40 0 40 43v23q0 43-39 43h-13q-40 0-40-43v-23q0-43 40-43zM87 0H37q-13 0-9 14l187 615q4 14 19 14h72q15 0 19-14L512 14q4-14-9-14h-51q-11 0-14 14l-47 146H149L102 14Q98 0 87 0zm181 568L165 222h210L272 568h-4z"/><glyph unicode="Æ" glyph-name="AE" horiz-adv-x="775" d="M63 0H12Q-4 0 4 15l320 614q8 14 23 14h356q13 0 13-14v-36q0-14-13-14H458q-11 0-11-9V368q0-9 11-9h213q15 0 15-14v-36q0-14-15-14H458q-11 0-11-9V73q0-9 11-9h245q13 0 13-14V14q0-14-13-14H388q-13 0-13 14v147H159L81 14Q75 0 63 0zm312 226v344h-4L189 226h186z"/><glyph unicode="Ç" glyph-name="Ccedilla" horiz-adv-x="541" d="M471 432h-45q-14 0-14 14v46q0 87-84 87H225q-83 0-83-87V151q0-87 83-87h103q84 0 84 87v46q0 14 14 14h45q14 0 14-14v-49q0-70-39-109T337 0h-14l-44-46v-4q77 0 77-65v-13q0-64-86-64h-31q-13 0-13 13v14q0 13 13 13h24q29 0 40 6t11 23v3q0 18-10 24t-41 6h-16q-18 0-23 15t6 29l40 46h-53q-69 0-108 39T69 148v347q0 70 39 109t109 39h120q69 0 108-39t40-109v-49q0-14-14-14z"/><glyph unicode="È" glyph-name="Egrave" horiz-adv-x="480" d="M273 707h-33q-12 0-20 10l-87 105q-4 6-2 10t9 4h60q15 0 21-13l58-102q8-14-6-14zM407 0H93Q79 0 79 14v615q0 14 14 14h314q14 0 14-14v-36q0-14-14-14H162q-10 0-10-9V368q0-9 10-9h214q14 0 14-14v-36q0-14-14-14H162q-10 0-10-9V73q0-9 10-9h245q14 0 14-14V14q0-14-14-14z"/><glyph unicode="É" glyph-name="Eacute" horiz-adv-x="480" d="M297 836h60q7 0 9-4t-2-10l-88-105q-8-10-19-10h-33q-14 0-6 14l57 102q7 13 22 13zM407 0H93Q79 0 79 14v615q0 14 14 14h314q14 0 14-14v-36q0-14-14-14H162q-10 0-10-9V368q0-9 10-9h214q14 0 14-14v-36q0-14-14-14H162q-10 0-10-9V73q0-9 10-9h245q14 0 14-14V14q0-14-14-14z"/><glyph unicode="Ê" glyph-name="Ecircumflex" horiz-adv-x="480" d="M345 707h-35q-10 0-13 8l-48 88-47-88q-4-8-14-8h-34q-13 0-6 12l64 107q7 10 20 10h34q14 0 21-10l63-107q7-12-5-12zM407 0H93Q79 0 79 14v615q0 14 14 14h314q14 0 14-14v-36q0-14-14-14H162q-10 0-10-9V368q0-9 10-9h214q14 0 14-14v-36q0-14-14-14H162q-10 0-10-9V73q0-9 10-9h245q14 0 14-14V14q0-14-14-14z"/><glyph unicode="Ë" glyph-name="Edieresis" horiz-adv-x="480" d="M130 721v101q0 14 13 14h43q13 0 13-13V721q0-14-13-14h-43q-13 0-13 14zm171 0v101q0 14 13 14h43q13 0 13-13V721q0-14-13-14h-43q-13 0-13 14zM407 0H93Q79 0 79 14v615q0 14 14 14h314q14 0 14-14v-36q0-14-14-14H162q-10 0-10-9V368q0-9 10-9h214q14 0 14-14v-36q0-14-14-14H162q-10 0-10-9V73q0-9 10-9h245q14 0 14-14V14q0-14-14-14z"/><glyph unicode="Ì" glyph-name="Igrave" horiz-adv-x="241" d="M137 707h-33q-11 0-19 10L-2 822q-4 6-2 10t8 4h60q15 0 22-13l58-102q8-14-7-14zm20-78V14q0-14-14-14H98Q84 0 84 14v615q0 14 14 14h45q14 0 14-14z"/><glyph unicode="Í" glyph-name="Iacute" horiz-adv-x="241" d="M176 836h61q7 0 9-4t-3-10l-87-105q-8-10-20-10h-33q-12 0-6 14l58 102q7 13 21 13zm-19-207V14q0-14-14-14H98Q84 0 84 14v615q0 14 14 14h45q14 0 14-14z"/><glyph unicode="Î" glyph-name="Icircumflex" horiz-adv-x="240" d="M215 707h-34q-10 0-14 8l-47 88-47-88q-4-8-15-8H25q-13 0-6 12l63 107q7 10 21 10h34q13 0 20-10l63-107q7-12-5-12zm-58-78V14q0-14-14-14H98Q84 0 84 14v615q0 14 14 14h45q14 0 14-14z"/><glyph unicode="Ï" glyph-name="Idieresis" horiz-adv-x="240" d="M0 721v101q0 14 13 14h43q13 0 13-13V721q0-14-13-14H13q-13 0-13 14zm171 0v101q0 14 13 14h43q13 0 13-13V721q0-14-13-14h-43q-13 0-13 14zm-14-92V14q0-14-14-14H98Q84 0 84 14v615q0 14 14 14h45q14 0 14-14z"/><glyph unicode="Ð" glyph-name="Eth" horiz-adv-x="529" d="M168 64h168q84 0 84 87v341q0 87-84 87H168q-10 0-10-9V362q0-9 10-9h126q14 0 14-14v-30q0-13-14-13H168q-10 0-10-10V73q0-9 10-9zM345 0H99Q85 0 85 14v272q0 10-10 10H38q-14 0-14 13v30q0 14 14 14h37q10 0 10 9v267q0 14 14 14h246q69 0 108-39t40-109V148q0-70-39-109T345 0z"/><glyph unicode="Ñ" glyph-name="Ntilde" horiz-adv-x="581" d="M236 702q-55 0-55 77v39q0 10 9 10h21q9 0 9-10v-26q0-29 5-39t17-10 19 8 19 35 25 37 41 9q56 0 56-78v-39q0-11-10-11h-21q-9 0-9 11v27q0 29-5 38t-18 10-18-6-11-18q-20-45-33-54t-41-10zM137 0H93Q79 0 79 14v615q0 14 14 14h41q12 0 16-8l276-485h4v479q0 14 14 14h44q14 0 14-14V14q0-14-14-14h-37q-11 0-21 13L155 493h-4V14q0-14-14-14z"/><glyph unicode="Ò" glyph-name="Ograve" horiz-adv-x="553" d="M296 707h-34q-11 0-19 10l-87 105q-10 14 6 14h60q15 0 22-13l58-102q8-14-6-14zM225 64h102q84 0 84 87v341q0 87-84 87H225q-83 0-83-87V151q0-87 83-87zM336 0H217q-69 0-108 39T69 148v347q0 70 39 109t109 39h119q69 0 108-39t40-109V148q0-69-39-108T336 0z"/><glyph unicode="Ó" glyph-name="Oacute" horiz-adv-x="553" d="M324 836h61q6 0 8-4t-2-10l-87-105q-8-10-20-10h-33q-14 0-6 14l58 102q6 13 21 13zM225 64h102q84 0 84 87v341q0 87-84 87H225q-83 0-83-87V151q0-87 83-87zM336 0H217q-69 0-108 39T69 148v347q0 70 39 109t109 39h119q69 0 108-39t40-109V148q0-69-39-108T336 0z"/><glyph unicode="Ô" glyph-name="Ocircumflex" horiz-adv-x="553" d="M373 707h-34q-11 0-14 8l-48 88-47-88q-4-8-14-8h-34q-12 0-5 12l63 107q7 10 20 10h35q13 0 20-10l63-107q7-12-5-12zM225 64h102q84 0 84 87v341q0 87-84 87H225q-83 0-83-87V151q0-87 83-87zM336 0H217q-69 0-108 39T69 148v347q0 70 39 109t109 39h119q69 0 108-39t40-109V148q0-69-39-108T336 0z"/><glyph unicode="Õ" glyph-name="Otilde" horiz-adv-x="553" d="M277 722l-13-10-42-10q-56 0-56 77v39q0 10 9 10h21q9 0 9-10v-26q0-29 5-39t17-10 19 8 19 35 25 37 41 9q55 0 55-78v-39q0-11-8-11h-21q-10 0-10 11v27q0 29-5 38t-18 10-18-6-10-18-7-13q-12-31-25-41zM225 64h102q84 0 84 87v341q0 87-84 87H225q-83 0-83-87V151q0-87 83-87zM336 0H217q-69 0-108 39T69 148v347q0 70 39 109t109 39h119q69 0 108-39t40-109V148q0-69-39-108T336 0z"/><glyph unicode="Ö" glyph-name="Odieresis" horiz-adv-x="553" d="M156 721v101q0 14 13 14h43q13 0 13-13V721q0-14-13-14h-43q-13 0-13 14zm171 0v101q0 14 13 14h43q13 0 13-13V721q0-14-13-14h-43q-13 0-13 14zM225 64h102q84 0 84 87v341q0 87-84 87H225q-83 0-83-87V151q0-87 83-87zM336 0H217q-69 0-108 39T69 148v347q0 70 39 109t109 39h119q69 0 108-39t40-109V148q0-69-39-108T336 0z"/><glyph unicode="×" glyph-name="multiply" horiz-adv-x="501" d="M295 321l110-110q12-11 0-21l-24-24q-10-10-22 0L250 276 140 166q-10-10-21 0l-24 24q-12 10-1 21l110 110L95 431q-11 11 0 21l24 24q10 12 21 0l110-109 109 109q12 12 22 0l24-24q11-10 0-21L295 321z"/><glyph unicode="Ø" glyph-name="Oslash" horiz-adv-x="565" d="M491 495V148q0-70-39-109T344 0H221q-70 0-111 41L87 9Q78-3 66 5L52 16q-11 8-2 21l34 47q-11 30-11 64v347q0 70 39 109t109 39h123q71 0 110-42l23 32q10 12 21 4l15-10q11-7 2-21l-34-48q10-30 10-63zm-345-3V171l264 368q-20 40-75 40H230q-84 0-84-87zm273-341v321L155 104q18-40 75-40h105q84 0 84 87z"/><glyph unicode="Ù" glyph-name="Ugrave" horiz-adv-x="554" d="M301 707h-33q-12 0-20 10l-87 105q-4 6-2 10t8 4h61q14 0 21-13l58-102q8-14-6-14zm120-64h45q14 0 14-13V148q0-70-39-109T333 0H222q-69 0-108 39T74 148v481q0 14 14 14h45q14 0 14-14V151q0-87 83-87h94q84 0 84 87v478q0 14 13 14z"/><glyph unicode="Ú" glyph-name="Uacute" horiz-adv-x="554" d="M328 836h60q7 0 9-4t-2-10l-88-105q-7-10-19-10h-33q-14 0-6 14l57 102q7 13 22 13zm93-193h45q14 0 14-13V148q0-70-39-109T333 0H222q-69 0-108 39T74 148v481q0 14 14 14h45q14 0 14-14V151q0-87 83-87h94q84 0 84 87v478q0 14 13 14z"/><glyph unicode="Û" glyph-name="Ucircumflex" horiz-adv-x="554" d="M374 707h-34q-10 0-14 8l-48 88-47-88q-4-8-14-8h-33q-14 0-7 12l64 107q7 10 20 10h34q14 0 21-10l63-107q7-12-5-12zm47-64h45q14 0 14-13V148q0-70-39-109T333 0H222q-69 0-108 39T74 148v481q0 14 14 14h45q14 0 14-14V151q0-87 83-87h94q84 0 84 87v478q0 14 13 14z"/><glyph unicode="Ü" glyph-name="Udieresis" horiz-adv-x="554" d="M157 721v101q0 14 13 14h43q13 0 13-13V721q0-14-13-14h-43q-13 0-13 14zm171 0v101q0 14 13 14h43q13 0 13-13V721q0-14-13-14h-43q-13 0-13 14zm93-78h45q14 0 14-13V148q0-70-39-109T333 0H222q-69 0-108 39T74 148v481q0 14 14 14h45q14 0 14-14V151q0-87 83-87h94q84 0 84 87v478q0 14 13 14z"/><glyph unicode="Ý" glyph-name="Yacute" horiz-adv-x="500" d="M301 836h61q6 0 8-4t-2-10l-87-105q-8-10-20-10h-33q-14 0-6 14l58 102q7 13 21 13zM272 0h-45q-14 0-14 14v227L23 628q-3 7 0 11t9 4h56q11 0 17-14l143-303h5l142 303q4 14 16 14h57q17 0 9-15L286 241V14q0-14-14-14z"/><glyph unicode="Þ" glyph-name="Thorn" horiz-adv-x="502" d="M187 197h97q84 0 84 86v76q0 87-84 87h-97q-10 0-10-9V206q0-9 10-9zM164 0h-46q-13 0-13 14v615q0 14 13 14h46q13 0 13-14V519q0-9 11-9h106q68 0 107-39t40-109v-82q0-70-39-109t-108-39H188q-11 0-11-9V14q0-14-13-14z"/><glyph unicode="ß" glyph-name="germandbls" horiz-adv-x="541" d="M263 354h42q42 0 66 22t24 65v53q0 86-85 86h-81q-84 0-84-86V14q0-14-14-14H86Q72 0 72 14v481q0 70 39 109t109 39h99q69 0 108-39t40-110v-56q0-83-75-115 39-9 62-42t23-77v-60q0-69-39-106T329 0h-84q-14 0-14 13v36q0 13 14 13h75q85 0 85 87v55q0 42-26 64t-70 23h-46q-14 0-14 13v36q0 14 14 14z"/><glyph unicode="à" glyph-name="agrave" horiz-adv-x="507" d="M301 574h-34q-11 0-19 10l-87 105q-5 6-3 10t9 4h61q14 0 21-13l58-102q8-14-6-14zM259 0h-52Q138 0 99 39T59 148v214q0 70 39 109t109 39h217q14 0 14-14V14q0-14-14-14h-45q-14 0-14 14v39h-4Q336 0 259 0zm106 156v281q0 9-10 9H215q-83 0-83-87V151q0-87 83-87h57q45 0 69 24t24 68z"/><glyph unicode="á" glyph-name="aacute" horiz-adv-x="507" d="M316 703h60q7 0 9-4t-2-10l-87-105q-10-10-21-10h-32q-14 0-6 14l58 102q6 13 21 13zM259 0h-52Q138 0 99 39T59 148v214q0 70 39 109t109 39h217q14 0 14-14V14q0-14-14-14h-45q-14 0-14 14v39h-4Q336 0 259 0zm106 156v281q0 9-10 9H215q-83 0-83-87V151q0-87 83-87h57q45 0 69 24t24 68z"/><glyph unicode="â" glyph-name="acircumflex" horiz-adv-x="507" d="M360 574h-34q-10 0-14 8l-47 88-48-88q-3-8-14-8h-33q-13 0-6 12l63 107q7 10 21 10h34q13 0 20-10l63-107q7-12-5-12zM259 0h-52Q138 0 99 39T59 148v214q0 70 39 109t109 39h217q14 0 14-14V14q0-14-14-14h-45q-14 0-14 14v39h-4Q336 0 259 0zm106 156v281q0 9-10 9H215q-83 0-83-87V151q0-87 83-87h57q45 0 69 24t24 68z"/><glyph unicode="ã" glyph-name="atilde" horiz-adv-x="508" d="M161 653v38q0 11 10 11h21q9 0 9-11v-26q0-28 5-38t17-10 19 8 19 35 25 36 40 9q56 0 56-77v-40q0-11-9-11h-21q-9 0-9 11v27q0 29-5 39t-15 10-14-1-8-7-7-10-12-28-23-32-41-10q-57 0-57 77zM259 0h-52Q138 0 99 39T59 148v214q0 70 39 109t109 39h217q14 0 14-14V14q0-14-14-14h-45q-14 0-14 14v39h-4Q336 0 259 0zm106 156v281q0 9-10 9H215q-83 0-83-87V151q0-87 83-87h57q45 0 69 24t24 68z"/><glyph unicode="ä" glyph-name="adieresis" horiz-adv-x="507" d="M150 588v101q0 14 12 14h43q13 0 13-13V588q0-14-13-14h-43q-12 0-12 14zm171 0v101q0 14 12 14h43q13 0 13-13V588q0-14-13-14h-43q-12 0-12 14zM259 0h-52Q138 0 99 39T59 148v214q0 70 39 109t109 39h217q14 0 14-14V14q0-14-14-14h-45q-14 0-14 14v39h-4Q336 0 259 0zm106 156v281q0 9-10 9H215q-83 0-83-87V151q0-87 83-87h57q45 0 69 24t24 68z"/><glyph unicode="å" glyph-name="aring" horiz-adv-x="507" d="M365 156v281q0 9-10 9H215q-83 0-83-87V151q0-87 83-87h57q45 0 69 24t24 68zM259 0h-52Q138 0 99 39T59 148v214q0 70 39 109t109 39h217q14 0 14-14V14q0-14-14-14h-45q-14 0-14 14v39h-4Q336 0 259 0zm-48 659v-36q0-22 9-30t31-8h15q22 0 31 8t9 30v36q0 22-9 30t-31 8h-15q-22 0-31-8t-9-30zm-32-44v54q0 58 63 58h33q65 0 65-58v-54q0-59-65-59h-33q-63 0-63 59z"/><glyph unicode="æ" glyph-name="ae" horiz-adv-x="784" d="M432 194v-43q0-87 84-87h196q14 0 14-14V13q0-13-14-13H507q-88 0-122 64Q353 0 253 0h-48Q137 0 97 38T57 145v20q0 69 39 107t109 38h146q8 0 8 8v42q0 86-83 86H119q-14 0-14 14v36q0 14 14 14h155q91 0 123-63 31 63 121 63h61q69 0 108-39t39-109V218q0-15-14-15H442q-10 0-10-9zm229 72v93q0 87-84 87h-56q-89 0-89-84v-96q0-10 10-10h209q10 0 10 10zM360 152v93q0 9-10 9H214q-88 0-88-87v-18q0-88 88-88h53q93 0 93 91z"/><glyph unicode="ç" glyph-name="ccedilla" horiz-adv-x="399" d="M352 446H215q-83 0-83-87V151q0-87 83-87h137q14 0 14-14V13q0-13-14-13h-66l-41-43v-4q77 0 77-64v-14q0-63-86-63h-30q-13 0-13 13v14q0 8 2 10t11 3h23q29 0 40 6t11 23v2q0 18-11 24t-40 7h-16q-18 0-23 15t6 29l37 42h-26Q138 0 99 39T59 148v214q0 70 39 109t109 39h145q14 0 14-14v-37q0-13-14-13z"/><glyph unicode="è" glyph-name="egrave" horiz-adv-x="492" d="M275 574h-33q-12 0-19 10l-88 105q-4 6-2 10t9 4h60q15 0 22-13l57-102q8-14-6-14zM419 0H207Q138 0 99 39T59 148v214q0 70 39 109t109 39h84q69 0 108-39t39-109V235q0-15-14-15H141q-10 0-10-9v-61q0-87 84-87h204q14 0 14-14V13q0-13-14-13zM141 273h216q10 0 10 10v77q0 86-84 86h-68q-84 0-84-86v-77q0-10 10-10z"/><glyph unicode="é" glyph-name="eacute" horiz-adv-x="492" d="M294 703h60q7 0 9-4t-2-10l-87-105q-10-10-20-10h-33q-14 0-6 14l58 102q6 13 21 13zM419 0H207Q138 0 99 39T59 148v214q0 70 39 109t109 39h84q69 0 108-39t39-109V235q0-15-14-15H141q-10 0-10-9v-61q0-87 84-87h204q14 0 14-14V13q0-13-14-13zM141 273h216q10 0 10 10v77q0 86-84 86h-68q-84 0-84-86v-77q0-10 10-10z"/><glyph unicode="ê" glyph-name="ecircumflex" horiz-adv-x="492" d="M346 574h-34q-10 0-14 8l-47 88-47-88q-4-8-14-8h-34q-13 0-6 12l63 107q7 10 21 10h34q13 0 20-10l64-107q7-12-6-12zM419 0H207Q138 0 99 39T59 148v214q0 70 39 109t109 39h84q69 0 108-39t39-109V235q0-15-14-15H141q-10 0-10-9v-61q0-87 84-87h204q14 0 14-14V13q0-13-14-13zM141 273h216q10 0 10 10v77q0 86-84 86h-68q-84 0-84-86v-77q0-10 10-10z"/><glyph unicode="ë" glyph-name="edieresis" horiz-adv-x="492" d="M131 588v101q0 14 13 14h43q13 0 13-13V588q0-14-13-14h-43q-13 0-13 14zm171 0v101q0 14 13 14h43q13 0 13-13V588q0-14-13-14h-43q-13 0-13 14zM419 0H207Q138 0 99 39T59 148v214q0 70 39 109t109 39h84q69 0 108-39t39-109V235q0-15-14-15H141q-10 0-10-9v-61q0-87 84-87h204q14 0 14-14V13q0-13-14-13zM141 273h216q10 0 10 10v77q0 86-84 86h-68q-84 0-84-86v-77q0-10 10-10z"/><glyph unicode="ì" glyph-name="igrave" horiz-adv-x="221" d="M126 574H93q-11 0-19 10l-87 105q-4 6-2 10t8 4h60q15 0 22-13l58-102q8-14-7-14zM74 14v482q0 14 13 14h46q14 0 14-14V14q0-14-14-14H88Q74 0 74 14z"/><glyph unicode="í" glyph-name="iacute" horiz-adv-x="220" d="M167 703h59q7 0 9-4t-2-10l-87-105q-8-10-20-10H93q-14 0-6 14l58 102q7 13 22 13zM74 14v482q0 14 13 14h46q14 0 14-14V14q0-14-14-14H88Q74 0 74 14z"/><glyph unicode="î" glyph-name="icircumflex" horiz-adv-x="220" d="M206 574h-35q-10 0-13 8l-48 88-47-88q-4-8-14-8H15q-13 0-6 12l64 107q7 10 20 10h34q14 0 21-10l63-107q7-12-5-12zM74 14v482q0 14 13 14h46q14 0 14-14V14q0-14-14-14H88Q74 0 74 14z"/><glyph unicode="ï" glyph-name="idieresis" horiz-adv-x="220" d="M-10 588v101q0 14 13 14h43q13 0 13-13V588q0-14-13-14H3q-13 0-13 14zm171 0v101q0 14 13 14h43q13 0 13-13V588q0-14-13-14h-43q-13 0-13 14zM74 14v482q0 14 13 14h46q14 0 14-14V14q0-14-14-14H88Q74 0 74 14z"/><glyph unicode="ð" glyph-name="eth" horiz-adv-x="494" d="M434 336V148q0-70-39-109T287 0h-80Q138 0 99 39T59 148v114q0 70 39 109t109 39h52q38 0 66-14t40-39h4q-3 38-29 70l-99 111-94-78q-10-7-19 2l-16 20q-8 9 2 19l91 77-73 82q-12 14 2 25l22 16q12 10 23-3l73-80 96 81q13 8 20-1l16-20q8-12-1-21l-95-79 105-117q41-45 41-125zm-73-185v103q0 92-89 92h-53q-42 0-64-22t-23-65V151q0-87 83-87h62q84 0 84 87z"/><glyph unicode="ñ" glyph-name="ntilde" horiz-adv-x="512" d="M144 653v38q0 11 9 11h21q9 0 9-11v-26q0-28 5-38t17-10 19 8 19 35 25 36 40 9q56 0 56-77v-40q0-11-8-11h-21q-10 0-10 11v27q0 29-5 39t-15 10-14-1-8-7-7-10-11-28-23-32-42-10q-56 0-56 77zM128 0H83Q69 0 69 14v482q0 14 14 14h45q14 0 14-14v-39h4q25 53 102 53h56q68 0 106-39t38-109V14q0-14-14-14h-45q-14 0-14 14v345q0 87-84 87h-56q-45 0-69-24t-24-68V14q0-14-14-14z"/><glyph unicode="ò" glyph-name="ograve" horiz-adv-x="500" d="M270 574h-33q-10 0-20 10l-87 105q-4 6-2 10t9 4h60q15 0 22-13l57-102q8-14-6-14zM293 0h-86Q138 0 99 39T59 148v214q0 70 39 109t109 39h86q69 0 108-39t40-109V148q0-70-39-109T293 0zm-78 64h70q84 0 84 86v210q0 86-84 86h-70q-84 0-84-86V150q0-86 84-86z"/><glyph unicode="ó" glyph-name="oacute" horiz-adv-x="500" d="M305 703h61q6 0 8-4t-2-10l-87-105q-10-10-20-10h-33q-14 0-6 14l58 102q7 13 21 13zM293 0h-86Q138 0 99 39T59 148v214q0 70 39 109t109 39h86q69 0 108-39t40-109V148q0-70-39-109T293 0zm-78 64h70q84 0 84 86v210q0 86-84 86h-70q-84 0-84-86V150q0-86 84-86z"/><glyph unicode="ô" glyph-name="ocircumflex" horiz-adv-x="500" d="M345 574h-34q-10 0-14 8l-47 88-48-88q-3-8-14-8h-33q-13 0-6 12l63 107q7 10 21 10h34q13 0 20-10l63-107q7-12-5-12zM293 0h-86Q138 0 99 39T59 148v214q0 70 39 109t109 39h86q69 0 108-39t40-109V148q0-70-39-109T293 0zm-78 64h70q84 0 84 86v210q0 86-84 86h-70q-84 0-84-86V150q0-86 84-86z"/><glyph unicode="õ" glyph-name="otilde" horiz-adv-x="500" d="M136 653v38q0 11 9 11h21q9 0 9-11v-26q0-28 5-38t17-10 19 8 19 35 25 36 40 9q56 0 56-77v-40q0-11-8-11h-21q-10 0-10 11v27q0 29-5 39t-15 10-14-1-8-7-7-10-11-28-23-32-42-10q-56 0-56 77zM293 0h-86Q138 0 99 39T59 148v214q0 70 39 109t109 39h86q69 0 108-39t40-109V148q0-70-39-109T293 0zm-78 64h70q84 0 84 86v210q0 86-84 86h-70q-84 0-84-86V150q0-86 84-86z"/><glyph unicode="ö" glyph-name="odieresis" horiz-adv-x="500" d="M130 588v101q0 14 13 14h43q13 0 13-13V588q0-14-13-14h-43q-13 0-13 14zm171 0v101q0 14 13 14h43q13 0 13-13V588q0-14-13-14h-43q-13 0-13 14zM293 0h-86Q138 0 99 39T59 148v214q0 70 39 109t109 39h86q69 0 108-39t40-109V148q0-70-39-109T293 0zm-78 64h70q84 0 84 86v210q0 86-84 86h-70q-84 0-84-86V150q0-86 84-86z"/><glyph unicode="÷" glyph-name="divide" horiz-adv-x="496" d="M221 151v57q0 14 14 14h27q14 0 14-14v-57q0-14-14-14h-27q-14 0-14 14zm188 143H88q-15 0-15 14v26q0 13 15 13h321q14 0 14-13v-26q0-14-14-14zM221 433v58q0 14 14 14h27q14 0 14-14v-58q0-14-14-14h-27q-14 0-14 14z"/><glyph unicode="ø" glyph-name="oslash" horiz-adv-x="521" d="M452 362V148q0-69-39-108T304 0h-87Q133 0 94 56L60 22q-11-10-20 0L28 34q-10 10 0 20l47 47q-6 21-6 47v214q0 69 39 108t109 40h87q84 0 123-57l34 34q10 11 20 1l12-12q10-10 0-20l-47-47q6-21 6-47zm-310-3V168l230 230q-15 48-77 48h-69q-84 0-84-87zm236-208v190L148 110q17-46 78-46h69q83 0 83 87z"/><glyph unicode="ù" glyph-name="ugrave" horiz-adv-x="512" d="M274 574h-33q-12 0-20 10l-87 105q-4 6-2 10t9 4h60q15 0 21-13l58-102q8-14-6-14zM264 0h-56q-68 0-106 39T64 148v348q0 14 14 14h45q14 0 14-14V151q0-87 83-87h57q45 0 69 24t24 68v340q0 14 14 14h45q14 0 14-14V14q0-14-14-14h-45q-14 0-14 14v39h-4Q341 0 264 0z"/><glyph unicode="ú" glyph-name="uacute" horiz-adv-x="512" d="M306 703h61q6 0 8-4t-2-10l-87-105q-10-10-20-10h-33q-14 0-6 14l58 102q6 13 21 13zM264 0h-56q-68 0-106 39T64 148v348q0 14 14 14h45q14 0 14-14V151q0-87 83-87h57q45 0 69 24t24 68v340q0 14 14 14h45q14 0 14-14V14q0-14-14-14h-45q-14 0-14 14v39h-4Q341 0 264 0z"/><glyph unicode="û" glyph-name="ucircumflex" horiz-adv-x="512" d="M349 574h-34q-11 0-14 8l-48 88-47-88q-4-8-14-8h-34q-12 0-5 12l63 107q7 10 21 10h33q14 0 21-10l63-107q7-12-5-12zM264 0h-56q-68 0-106 39T64 148v348q0 14 14 14h45q14 0 14-14V151q0-87 83-87h57q45 0 69 24t24 68v340q0 14 14 14h45q14 0 14-14V14q0-14-14-14h-45q-14 0-14 14v39h-4Q341 0 264 0z"/><glyph unicode="ü" glyph-name="udieresis" horiz-adv-x="512" d="M134 588v101q0 14 12 14h43q13 0 13-13V588q0-14-13-14h-43q-12 0-12 14zm171 0v101q0 14 12 14h43q13 0 13-13V588q0-14-13-14h-43q-12 0-12 14zM264 0h-56q-68 0-106 39T64 148v348q0 14 14 14h45q14 0 14-14V151q0-87 83-87h57q45 0 69 24t24 68v340q0 14 14 14h45q14 0 14-14V14q0-14-14-14h-45q-14 0-14 14v39h-4Q341 0 264 0z"/><glyph unicode="ý" glyph-name="yacute" horiz-adv-x="463" d="M287 703h60q7 0 9-4t-2-10l-88-105q-8-10-20-10h-32q-13 0-7 14l58 102q7 13 22 13zM110-157H66q-14 0-14 14v37q0 14 14 14h25q64 0 90 36 21 29 38 83h-29q-12 0-17 14L26 496q-4 14 10 14h48q13 0 17-14L230 84h4l129 412q3 14 16 14h46q17 0 12-15L288 20q-25-85-63-131t-115-46z"/><glyph unicode="þ" glyph-name="thorn" horiz-adv-x="514" d="M238 64h60q84 0 84 87v208q0 87-84 87h-60q-45 0-69-24t-24-68V156q0-44 24-68t69-24zm-93-11v-172q0-14-14-14H86q-14 0-14 14v808q0 14 14 14h45q14 0 14-14V457h4q25 53 102 53h56q69 0 108-39t40-109V148q0-69-39-108T307 0h-56q-77 0-102 53h-4z"/><glyph unicode="ÿ" glyph-name="ydieresis" horiz-adv-x="463" d="M112 588v101q0 14 13 14h43q13 0 13-13V588q0-14-13-14h-43q-13 0-13 14zm171 0v101q0 14 13 14h43q13 0 13-13V588q0-14-13-14h-43q-13 0-13 14zM110-157H66q-14 0-14 14v37q0 14 14 14h25q64 0 90 36 21 29 38 83h-29q-12 0-17 14L26 496q-4 14 10 14h48q13 0 17-14L230 84h4l129 412q3 14 16 14h46q17 0 12-15L288 20q-25-85-63-131t-115-46z"/><glyph unicode="–" glyph-name="endash" horiz-adv-x="405" d="M351 296H54q-14 0-14 14v26q0 14 14 14h297q14 0 14-14v-26q0-14-14-14z"/><glyph unicode="—" glyph-name="emdash" horiz-adv-x="565" d="M40 310v26q0 14 14 14h457q14 0 14-14v-26q0-14-14-14H54q-14 0-14 14z"/><glyph unicode="‘" glyph-name="quoteleft" horiz-adv-x="181" d="M55 418v57q0 21 15 66l33 94q5 8 12 8 10 0 10-12V418q0-13-13-13H69q-14 0-14 13z"/><glyph unicode="’" glyph-name="quoteright" horiz-adv-x="181" d="M125 630v-58q0-23-14-65l-34-95q-3-7-11-7-11 0-11 12v212q0 14 14 14h43q13 0 13-13z"/><glyph unicode="‚" glyph-name="quotesinglbase" horiz-adv-x="187" d="M129 118V61q0-21-15-66L81-99q-5-8-12-8-10 0-10 12v213q0 13 13 13h43q14 0 14-13z"/><glyph unicode="“" glyph-name="quotedblleft" horiz-adv-x="334" d="M209 418v57q0 26 15 66l33 94q3 8 11 8 11 0 11-12V418q0-13-13-13h-44q-13 0-13 13zm-154 0v57q0 21 15 66l33 94q5 8 12 8 10 0 10-12V418q0-13-13-13H69q-14 0-14 13z"/><glyph unicode="”" glyph-name="quotedblright" horiz-adv-x="334" d="M125 630v-58q0-23-14-65l-34-95q-3-7-11-7-11 0-11 12v212q0 14 14 14h43q13 0 13-13zm154 0v-58q0-25-15-65l-33-95q-3-7-12-7t-10 12v212q0 14 13 14h44q13 0 13-13z"/><glyph unicode="„" glyph-name="quotedblbase" horiz-adv-x="341" d="M129 118V60q0-20-15-65l-33-95q-4-7-13-7t-9 12v212q0 14 13 14h43q14 0 14-13zm153 0V60q0-23-14-65l-34-95q-3-7-11-7-11 0-11 12v212q0 14 14 14h43q13 0 13-13z"/><glyph unicode="•" glyph-name="bullet" horiz-adv-x="279" d="M197 372V267q0-36-36-36h-43q-36 0-36 36v105q0 36 36 36h43q36 0 36-36z"/><glyph unicode="‹" glyph-name="guilsinglleft" horiz-adv-x="287" d="M228 132V96q0-9-4-11t-11 3L73 216q-14 11-14 27v26q0 14 14 26l140 128q7 6 11 4t4-11v-37q0-11-11-20L107 256l110-103q11-10 11-21z"/><glyph unicode="›" glyph-name="guilsinglright" horiz-adv-x="287" d="M59 379v37q0 8 4 10t11-3l140-128q14-12 14-26v-26q0-16-14-27L74 88q-7-6-11-4t-4 12v36q0 11 11 21l111 103L70 359q-11 9-11 20z"/></font>
</defs>
</svg>
