<svg xmlns="http://www.w3.org/2000/svg"><defs><font id="Rajdhani" horiz-adv-x="493"><font-face font-family="Rajdhani" panose-1="2 0 0 0 0 0 0 0 0 0" ascent="930" descent="-346" alphabetic="0"/><glyph glyph-name="space" horiz-adv-x="220"/><glyph unicode="!" glyph-name="exclam" horiz-adv-x="238" d="M50 467v155q0 21 21 21h95q21 0 21-21V467q0-40-4-89t-7-74-4-39-2-16q-4-21-23-21H90q-19 0-23 21 0 1-2 16t-4 39-5 52q-6 82-6 111zm134-323V21q0-21-20-21H76Q56 0 56 22v121q0 20 20 20h88q20 0 20-19z"/><glyph unicode="&quot;" glyph-name="quotedbl" horiz-adv-x="353" d="M100 414H85q-19 0-21 23L37 624q-3 19 18 19h77q20 0 17-19l-26-189q-5-21-23-21zm167 0h-15q-19 0-21 23l-27 187q-3 19 18 19h77q20 0 17-19l-26-189q-5-21-23-21z"/><glyph unicode="#" glyph-name="numbersign" horiz-adv-x="669" d="M614 503q20 0 20-21v-59q0-22-20-22h-98l-38-159h87q20 0 20-22v-59q0-21-20-21H453L424 21q-4-21-22-21h-63q-23 0-17 22l29 118H238L209 21q-6-21-26-21h-59q-22 0-17 22l29 118H56q-21 0-21 21v59q0 22 21 22h105l38 159h-94q-21 0-21 22v59q0 21 21 21h119l29 119q5 21 22 21h62q23 0 18-22l-29-118h113l29 119q6 21 26 21h58q24 0 18-22l-29-118h73zM376 242l38 159H301l-38-159h113z"/><glyph unicode="$" glyph-name="dollar" horiz-adv-x="527" d="M296-98h-60q-21 0-21 21V0h-7Q132 0 90 43T47 164v19q0 21 21 21h85q21 0 21-21v-7q0-38 15-52t55-14h40q39 0 54 15t16 56v15q0 25-15 39t-35 19q-18 4-70 9t-79 12-53 26q-56 36-56 141v37q0 79 42 121t120 43h7v79q0 21 21 21h60q21 0 21-21v-79h2q71 0 112-44t41-120v-19q0-21-21-21h-85q-21 0-21 21v7q0 38-14 52t-56 14h-32q-41 0-55-15t-15-61v-20q0-22 15-34t34-17q22-4 74-8t79-13 53-27q53-38 53-136v-38q0-78-43-121T319 0h-2v-77q0-21-21-21z"/><glyph unicode="%" glyph-name="percent" horiz-adv-x="741" d="M567 235h-23q-22 0-30-8t-8-30v-87q0-22 8-30t30-9h23q21 0 29 9t9 30v87q0 21-8 29t-30 9zm-42 71h59q52 0 79-27t27-78v-96q0-51-27-78T584 0h-59q-51 0-78 27t-28 78v96q0 51 27 78t79 27zM197 573h-23q-22 0-30-8t-8-31v-87q0-21 8-29t30-9h23q22 0 30 8t8 30v87q0 21-8 30t-30 9zm-41 71h59q52 0 79-27t27-78v-96q0-51-27-78t-79-27h-59q-51 0-78 27t-28 78v96q0 51 27 78t79 27zM271 0h-52q-23 0-15 21 32 82 119 300t119 301q9 21 26 21h53q23 0 15-21L298 21q-8-21-27-21z"/><glyph unicode="&amp;" glyph-name="ampersand" horiz-adv-x="618" d="M222 111h42q42 0 48 40L203 279q-24-1-33-16t-10-51v-43q0-31 14-44t48-14zM264 0h-61Q124 0 81 42T38 162v58q0 50 26 88t75 45q-39 51-39 117v11q0 77 46 119t127 43h33q79 0 122-42t43-120v-34q0-22-21-22h-85q-21 0-21 22v32q0 31-12 44t-38 14h-8q-29 0-42-13t-13-45v-13q0-39 44-89l47-54h222q21 0 21-22v-68q0-21-21-21H414L577 18q5-6 3-12t-9-6H464q-24 0-35 14l-44 52q-11-35-39-50T264 0z"/><glyph unicode="'" glyph-name="quotesingle" horiz-adv-x="188" d="M102 449H85q-19 0-22 19L39 593q-3 16 18 16h74q21 0 17-16l-23-127q-5-17-23-17z"/><glyph unicode="(" glyph-name="parenleft" horiz-adv-x="306" d="M233 554h-3q-85 0-85-116V103q0-116 87-116h1q11 0 15-4t4-14v-56q0-9-3-12t-16-3h-3q-88 0-137 53T43 119v303q0 114 50 167t138 54h3q11 0 14-3t4-12v-56q0-10-4-14t-15-4z"/><glyph unicode=")" glyph-name="parenright" horiz-adv-x="306" d="M43-87v56q0 18 19 18h1q87 0 87 116v335q0 116-87 116h-1q-19 0-19 18v56q0 9 4 12t15 3h1q88 0 138-53t51-168V119q0-114-50-167T63-102h-1q-11 0-15 3t-4 12z"/><glyph unicode="*" glyph-name="asterisk" horiz-adv-x="398" d="M152 615v9q0 19 20 19h50q20 0 20-19v-9q0-40-18-83-3-8-6-15t-6-13-6-10-4-8q27 33 40 45 28 26 77 42 17 5 25-13l15-48q6-19-13-25-35-13-71-13-42 1-67 7 78-27 113-83 11-16-4-27l-41-29q-16-10-28 4-48 58-48 138-3-64-16-91-9-22-28-52-10-14-28-3l-40 30q-19 10-5 27 23 32 39 43t26 19 20 11 15 8 17 8q-86-24-140-6l-9 3q-17 6-11 25l15 48q6 19 25 12 60-17 114-76l4-4q-2 3-4 7t-7 10-7 13-8 16-7 19-7 20q-6 20-6 44z"/><glyph unicode="+" glyph-name="plus" horiz-adv-x="565" d="M336 373h136q13 0 18-5t5-19v-56q0-23-23-23H336V132q0-24-24-24h-59q-24 0-24 24v138H93q-23 0-23 23v56q0 13 5 18t18 6h136v137q0 24 24 24h59q24 0 24-24V373z"/><glyph unicode="," glyph-name="comma" horiz-adv-x="204" d="M166 144V66q0-27-23-62L74-97q-7-10-19-10-17 0-17 20v230q0 20 20 20h89q19 0 19-19z"/><glyph unicode="-" glyph-name="hyphen" horiz-adv-x="312" d="M251 268H61q-21 0-21 21v59q0 22 21 22h190q21 0 21-22v-59q0-21-21-21z"/><glyph unicode="." glyph-name="period" horiz-adv-x="204" d="M166 144V21q0-21-19-21H58Q38 0 38 21v122q0 20 20 20h89q19 0 19-19z"/><glyph unicode="/" glyph-name="slash" horiz-adv-x="409" d="M124 0H47Q23 0 31 21q32 82 114 300t114 301q9 21 27 21h77q24 0 16-21L151 21q-8-21-27-21z"/><glyph unicode="0" glyph-name="zero" horiz-adv-x="536" d="M239 110h59q32 0 45 13t13 46v305q0 32-13 45t-45 14h-59q-32 0-45-13t-13-46V169q0-32 13-45t45-14zM318 0H218Q139 0 96 42T53 163v317q0 79 43 121t122 42h100q78 0 121-42t43-121V163q0-78-43-120T318 0z"/><glyph unicode="1" glyph-name="one" horiz-adv-x="334" d="M23 464v82q0 17 15 26l91 57q23 14 39 14h80q21 0 21-21V21q0-12-4-16t-16-5h-86q-21 0-21 21v487l-98-56q-21-9-21 12z"/><glyph unicode="2" glyph-name="two" d="M47 21v95q0 57 49 97l184 156q45 37 45 80v30q0 31-14 44t-48 14h-35q-32 0-45-13t-13-45v-32q0-22-21-22H64q-21 0-21 22v34q0 78 43 120t122 42h76q79 0 122-42t43-120v-40q0-78-60-129L201 152q-12-11-12-24v-16h239q21 0 21-21V21q0-21-21-21H68Q47 0 47 21z"/><glyph unicode="3" glyph-name="three" horiz-adv-x="509" d="M219 374h51q33 0 47 13t15 45v47q0 31-14 44t-48 14h-48q-32 0-45-13t-13-45v-25q0-21-21-21H58q-21 0-21 21v27q0 78 43 120t122 42h89q79 0 122-42t43-120v-50q0-84-79-109 79-17 79-109v-51q0-78-43-120T291 0h-89Q123 0 80 42T37 162v28q0 22 21 22h85q21 0 21-22v-26q0-32 13-45t45-13h48q33 0 47 13t15 45v49q0 31-14 44t-48 14h-51q-21 0-21 21v60q0 22 21 22z"/><glyph unicode="4" glyph-name="four" horiz-adv-x="541" d="M318 227v309L156 227h162zM417 0h-78q-21 0-21 21v96H70q-17 0-27 10t-10 27v39q0 30 10 49l199 370q10 18 18 24t26 7h113q17 0 27-10t11-27V227h72q20 0 20-20v-67q0-23-20-23h-72V21q0-12-4-16t-16-5z"/><glyph unicode="5" glyph-name="five" horiz-adv-x="506" d="M273 327h-47q-26 0-39-21t-29-21H75q-21 0-21 20v317q0 21 21 21h348q21 0 21-21v-76q0-21-21-21H181V378q17 50 84 50h42q155 0 155-155V163q0-78-43-120T298 0h-88Q131 0 88 42T45 163v20q0 22 21 22h85q21 0 21-22v-19q0-31 13-44t45-14h47q32 0 47 13t15 45v90q0 42-14 57t-52 16z"/><glyph unicode="6" glyph-name="six" horiz-adv-x="525" d="M237 110h57q32 0 45 13t14 46v69q0 32-13 45t-46 14H179V169q0-32 13-45t45-14zM315 0h-98Q138 0 95 42T52 163v317q0 79 43 121t122 42h204q21 0 21-21v-69q0-20-21-20H237q-31 0-44-13t-14-46v-67h136q79 0 122-42t43-121v-81q0-79-43-121T315 0z"/><glyph unicode="7" glyph-name="seven" horiz-adv-x="431" d="M169 0H75q-9 0-12 5t1 16l211 506H40q-21 0-21 21v74q0 21 21 21h350q21 0 21-21v-84q0-20-14-54L203 19q-8-19-34-19z"/><glyph unicode="8" glyph-name="eight" horiz-adv-x="542" d="M237 109h68q32 0 45 13t13 44v46q0 32-13 47t-45 15h-68q-32 0-45-15t-13-47v-46q0-31 13-44t45-13zm0 264h68q32 0 45 15t13 47v42q0 31-13 44t-45 13h-68q-32 0-45-13t-13-44v-42q0-32 13-47t45-15zM324 0H218Q138 0 96 39T53 156v46q0 92 66 121-66 27-66 122v43q0 77 42 116t123 39h106q79 0 121-39t43-116v-43q0-47-18-80t-47-42q65-26 65-122v-45q0-77-42-116T324 0z"/><glyph unicode="9" glyph-name="nine" horiz-adv-x="525" d="M229 339h116v135q0 32-13 45t-46 14h-57q-32 0-45-13t-13-46v-77q0-31 13-44t45-14zM306 0H95Q73 0 73 21v69q0 20 22 20h191q32 0 45 13t13 46v60H208q-79 0-122 42T43 391v89q0 79 43 121t122 42h98q79 0 122-42t43-121V163q0-79-43-121T306 0z"/><glyph unicode=":" glyph-name="colon" horiz-adv-x="204" d="M166 491V368q0-21-19-21H58q-20 0-20 23v120q0 20 20 20h89q19 0 19-19zm0-347V21q0-21-19-21H58Q38 0 38 22v121q0 20 20 20h89q19 0 19-19z"/><glyph unicode=";" glyph-name="semicolon" horiz-adv-x="204" d="M166 144V66q0-27-23-62L74-97q-7-10-19-10-17 0-17 20v230q0 20 20 20h89q19 0 19-19zm0 347V368q0-21-19-21H58q-20 0-20 23v120q0 20 20 20h89q19 0 19-19z"/><glyph unicode="&lt;" glyph-name="less" horiz-adv-x="563" d="M494 501v-66q0-24-19-29l-301-79 301-79q19-4 19-29v-65q0-22-24-15L96 260q-27 9-27 40v54q0 31 27 40l374 121q24 9 24-14z"/><glyph unicode="=" glyph-name="equal" horiz-adv-x="567" d="M94 471h379q13 0 18-5t5-19v-54q0-13-5-18t-18-6H94q-13 0-18 5t-5 19v54q0 13 5 18t18 6zm0-197h379q13 0 18-5t5-19v-54q0-13-5-18t-18-6H94q-13 0-18 5t-5 19v54q0 13 5 18t18 6z"/><glyph unicode="&gt;" glyph-name="greater" horiz-adv-x="567" d="M71 435v66q0 23 24 14l374-121q27-9 27-40v-54q0-31-27-40L95 139q-24-7-24 15v65q0 25 19 29l301 79-301 79q-19 5-19 29z"/><glyph unicode="?" glyph-name="question" horiz-adv-x="466" d="M289 144V21q0-21-19-21h-89q-20 0-20 22v121q0 20 20 20h89q19 0 19-19zm-1 131v-26q0-21-21-21h-79q-21 0-21 21v27q0 33 11 53t37 42l56 46q32 25 32 55v6q0 31-14 44t-48 14h-18q-31 0-44-13t-14-45v-21q0-22-21-22H59q-21 0-21 22v23q0 78 43 120t122 42h59q79 0 122-42t43-120v-14q0-49-45-88l-68-55q-26-24-26-48z"/><glyph unicode="@" glyph-name="at" horiz-adv-x="746" d="M561 157q64 2 64 67v190q0 57-38 87t-96 30H302q-82 0-127-46t-46-132V192q0-84 49-131t133-47h180q21 0 21-21v-30q0-21-21-21H312Q200-58 129 7T57 178v183q0 102 67 172t170 70h205q87 0 143-51t56-131V215q0-58-38-95t-96-37h-58q-27 0-46 13t-20 38v4h-4q-24-55-99-55-61 0-99 39t-39 116v59q0 77 40 120t108 43h173q22 0 22-21V169q0-12 19-12zm-121 96v100q0 12-12 12h-60q-32 0-45-13t-13-46v-71q0-31 13-44t45-14h3q69 0 69 76z"/><glyph unicode="A" glyph-name="A" horiz-adv-x="557" d="M132 0H36Q18 0 24 21l158 601q7 21 30 21h133q25 0 30-21L533 21q6-21-12-21h-96q-11 0-15 4t-6 17l-28 110H181L153 21q-2-12-6-16t-15-5zm145 522l-72-289h148l-72 289h-4z"/><glyph unicode="B" glyph-name="B" horiz-adv-x="555" d="M203 106h112q33 0 47 13t15 45v58q0 31-15 44t-49 13H203q-11 0-11-11V117q0-11 11-11zm0 276h102q32 0 47 13t15 45v39q0 31-14 44t-47 14H203q-11 0-11-11V393q0-11 11-11zM65 21v601q0 21 21 21h240q79 0 122-42t43-120v-41q0-85-79-110 40-6 64-32t24-76v-60q0-78-43-120T336 0H86Q65 0 65 21z"/><glyph unicode="C" glyph-name="C" horiz-adv-x="538" d="M329 0H220Q141 0 98 42T55 163v317q0 79 43 121t122 42h109q78 0 121-42t44-121v-47q0-22-22-22h-84q-21 0-21 22v41q0 32-13 45t-46 14h-68q-31 0-44-13t-14-46V169q0-32 13-45t45-14h68q32 0 45 13t14 46v41q0 22 21 22h84q22 0 22-22v-47q0-78-43-120T329 0z"/><glyph unicode="D" glyph-name="D" horiz-adv-x="553" d="M203 110h109q32 0 45 13t14 46v305q0 32-13 45t-46 14H203q-11 0-11-11V121q0-11 11-11zM65 21v601q0 21 21 21h247q78 0 121-42t44-121V163q0-78-43-120T333 0H86Q65 0 65 21z"/><glyph unicode="E" glyph-name="E" horiz-adv-x="479" d="M413 0H86Q65 0 65 21v601q0 21 21 21h327q20 0 20-21v-68q0-21-20-21H204q-12 0-12-11V392q0-11 12-11h171q21 0 21-21v-68q0-21-21-21H204q-12 0-12-11V121q0-11 12-11h209q20 0 20-21V21q0-21-20-21z"/><glyph unicode="F" glyph-name="F" horiz-adv-x="450" d="M171 0H86Q65 0 65 21v601q0 21 21 21h319q20 0 20-21v-68q0-21-20-21H204q-12 0-12-11V367q0-12 12-12h171q21 0 21-21v-67q0-22-21-22H204q-12 0-12-11V21q0-21-21-21z"/><glyph unicode="G" glyph-name="G" horiz-adv-x="545" d="M326 0H220Q141 0 98 42T55 163v317q0 79 43 121t122 42h106q78 0 121-42t43-121v-30q0-22-21-22h-85q-21 0-21 22v24q0 32-13 45t-45 14h-65q-31 0-44-13t-14-46V169q0-32 13-45t45-14h65q32 0 45 13t13 46v63q0 11-11 11h-60q-21 0-21 21v68q0 21 21 21h175q23 0 23-23V163q0-78-43-120T326 0z"/><glyph unicode="H" glyph-name="H" horiz-adv-x="576" d="M171 0H86Q65 0 65 21v601q0 21 21 21h85q21 0 21-21V387q0-11 12-11h169q11 0 11 11v235q0 21 21 21h85q21 0 21-21V21q0-21-21-21h-85q-21 0-21 21v234q0 11-11 11H204q-12 0-12-11V21q0-21-21-21z"/><glyph unicode="I" glyph-name="I" horiz-adv-x="267" d="M197 622V21q0-21-21-21H91Q70 0 70 21v601q0 21 21 21h85q21 0 21-21z"/><glyph unicode="J" glyph-name="J" horiz-adv-x="521" d="M356 643h84q21 0 21-20V163q0-78-43-120T297 0H197Q118 0 75 42T32 163v94q0 21 21 21h85q21 0 21-21v-88q0-32 13-45t45-14h59q32 0 45 13t13 46v453q0 21 22 21z"/><glyph unicode="K" glyph-name="K" horiz-adv-x="558" d="M171 0H86Q65 0 65 21v601q0 21 21 21h85q21 0 21-21V337h2q8 24 31 62l152 223q13 21 39 21h98q11 0 13-6t-5-17L332 357 544 25q7-12 3-18t-19-7h-73q-35 0-47 21L255 266l-63-74V21q0-21-21-21z"/><glyph unicode="L" glyph-name="L" horiz-adv-x="449" d="M415 0H86Q65 0 65 21v601q0 21 21 21h85q21 0 21-21V122q0-11 12-11h211q20 0 20-22V21q0-21-20-21z"/><glyph unicode="M" glyph-name="M" horiz-adv-x="726" d="M492 643h148q21 0 21-21V21q0-21-21-21h-82q-21 0-21 21v474h-4L431 160q-6-20-25-20h-84q-19 0-25 20L193 496h-4V21q0-12-4-16t-17-5H86Q65 0 65 21v601q0 21 21 21h149q14 0 19-14l106-353h6l107 353q3 14 19 14z"/><glyph unicode="N" glyph-name="N" horiz-adv-x="585" d="M169 0H86Q65 0 65 21v601q0 21 21 21h75q21 0 28-14l202-379h4v372q0 21 21 21h83q21 0 21-21V21q0-21-21-21h-73q-22 0-32 20L194 392h-4V21q0-21-21-21z"/><glyph unicode="O" glyph-name="O" horiz-adv-x="552" d="M240 110h71q32 0 45 13t14 46v305q0 32-13 45t-46 14h-71q-32 0-45-13t-13-46V169q0-32 13-45t45-14zM332 0H220Q141 0 98 42T55 163v317q0 79 43 121t122 42h112q79 0 122-42t43-121V163q0-79-43-121T332 0z"/><glyph unicode="P" glyph-name="P" horiz-adv-x="530" d="M171 0H86Q65 0 65 21v601q0 21 21 21h244q78 0 121-42t43-121v-96q0-78-43-120t-121-43H204q-12 0-12-11V21q0-21-21-21zm32 332h106q32 0 45 13t13 45v84q0 32-13 45t-45 14H203q-11 0-11-11V343q0-11 11-11z"/><glyph unicode="Q" glyph-name="Q" horiz-adv-x="569" d="M249 110h71q32 0 45 13t14 46v305q0 32-13 45t-46 14h-71q-32 0-45-13t-13-46V169q0-32 13-45t45-14zm183-243h-73q-27 0-39 21L255 0h-27q-79 0-122 42T63 163v317q0 79 43 121t122 42h112q79 0 122-42t43-121V163q0-66-31-107T384 4l64-111q5-12 0-19t-16-7z"/><glyph unicode="R" glyph-name="R" horiz-adv-x="547" d="M171 0H86Q65 0 65 21v601q0 21 21 21h238q78 0 122-43t44-121v-78q0-113-89-150v-4L508 24q9-24-17-24h-81q-18 0-26 4t-13 17L271 237h-67q-12 0-12-11V21q0-21-21-21zm32 339h98q32 0 47 13t15 44v78q0 31-15 45t-47 14h-98q-11 0-11-11V350q0-11 11-11z"/><glyph unicode="S" glyph-name="S" horiz-adv-x="539" d="M49 164v20q0 21 21 21h85q21 0 21-21v-8q0-38 15-52t55-14h47q39 0 54 15t16 56v12q0 29-23 44t-59 19-75 11-76 22-58 53-24 102v35q0 78 44 121t122 43h100q79 0 123-43t44-121v-19q0-21-21-21h-85q-21 0-21 21v6q0 39-15 53t-55 14h-39q-41 0-55-15t-15-61v-19q0-47 82-54 85-7 151-34 35-15 58-53t24-99v-34q0-78-44-121T324 0H215Q137 0 93 43T49 164z"/><glyph unicode="T" glyph-name="T" horiz-adv-x="443" d="M264 0h-84q-22 0-22 21v501q0 11-11 11H33q-21 0-21 21v68q0 21 21 21h378q21 0 21-21v-68q0-21-21-21H297q-12 0-12-11V21q0-21-21-21z"/><glyph unicode="U" glyph-name="U" horiz-adv-x="560" d="M394 643h84q22 0 22-20V163q0-78-43-120T335 0H225q-79 0-122 42T60 163v459q0 21 21 21h85q21 0 21-21V169q0-32 13-45t45-14h69q32 0 45 13t14 46v453q0 21 21 21z"/><glyph unicode="V" glyph-name="V" horiz-adv-x="521" d="M327 0H196q-21 0-25 21L16 620q-7 23 20 23h94q20 0 24-21l105-492h4l105 492q4 21 24 21h94q25 0 20-23L351 21q-5-21-24-21z"/><glyph unicode="W" glyph-name="W" horiz-adv-x="807" d="M287 0H147q-22 0-25 21L15 622q-3 21 21 21h104q23 0 24-21l58-493h7l96 496q3 18 21 18h112q19 0 22-17l98-497h8l57 492q1 22 24 22h104q24 0 21-22L684 21q-3-21-23-21H520q-21 0-24 21l-90 469h-4L311 21q-4-21-24-21z"/><glyph unicode="X" glyph-name="X" horiz-adv-x="540" d="M138 0H39Q29 0 25 6t0 16l155 307L30 621q-4 8 0 15t14 7h96q25 0 33-21l95-215h4l94 215q10 21 32 21h98q10 0 14-7t1-16L359 329 514 23q5-10 1-16t-15-7H400q-21 0-29 20l-99 216h-4L168 20q-9-20-30-20z"/><glyph unicode="Y" glyph-name="Y" horiz-adv-x="517" d="M301 0h-85q-21 0-21 21v214L12 621q-4 9 0 15t14 7h106q16 0 24-21l100-243h7l98 243q7 21 24 21h106q10 0 14-6t0-16L322 235V21q0-21-21-21z"/><glyph unicode="Z" glyph-name="Z" horiz-adv-x="521" d="M48 21v60q0 33 13 49l265 391v4H87q-21 0-21 21v76q0 21 21 21h355q20 0 20-21v-86q0-30-15-52L198 122v-4h254q20 0 20-19V23q0-23-20-23H69Q48 0 48 21z"/><glyph unicode="[" glyph-name="bracketleft" horiz-adv-x="323" d="M241-98H97q-20 0-20 22v698q0 21 20 21h144q20 0 20-21v-43q0-21-20-21h-50q-12 0-12-12V-1q0-12 12-12h50q20 0 20-21v-43q0-21-20-21z"/><glyph unicode="\" glyph-name="backslash" horiz-adv-x="409" d="M46 643h78q18 0 27-21 32-83 114-301T379 21q8-21-16-21h-77q-19 0-27 21L31 622q-8 21 15 21z"/><glyph unicode="]" glyph-name="bracketright" horiz-adv-x="323" d="M60-77v43q0 21 21 21h50q11 0 11 12v547q0 12-11 12H81q-21 0-21 21v43q0 21 21 21h143q20 0 20-21V-76q0-22-20-22H81q-21 0-21 21z"/><glyph unicode="^" glyph-name="asciicircum" horiz-adv-x="511" d="M138 362H61q-26 0-15 21l120 229q9 18 18 24t26 7h90q17 0 26-6t18-25l120-229q11-21-15-21h-77q-17 0-27 20l-90 179-90-179q-10-20-27-20z"/><glyph unicode="_" glyph-name="underscore" horiz-adv-x="372" d="M351-112H21Q0-112 0-90v26q0 21 21 21h330q21 0 21-21v-26q0-22-21-22z"/><glyph unicode="`" glyph-name="grave" horiz-adv-x="298" d="M231 574h-65q-16 0-27 13l-81 96q-7 8-4 14t14 6h99q19 0 30-19l44-89q11-21-10-21z"/><glyph unicode="a" glyph-name="a" horiz-adv-x="518" d="M234 0h-24Q131 0 88 42T45 163v184q0 79 43 121t122 42h231q22 0 22-21V21q0-21-22-21h-84q-21 0-21 21v33h-4q-11-27-39-40T234 0zm102 186v203q0 11-12 11h-94q-32 0-45-13t-13-46V169q0-32 13-45t45-14h37q69 0 69 76z"/><glyph unicode="b" glyph-name="b" horiz-adv-x="526" d="M193 110h102q32 0 45 13t14 46v174q0 32-13 45t-46 14h-44q-69 0-69-76V121q0-11 11-11zM55 21v661q0 21 21 21h85q21 0 21-21V457h4q11 27 39 41t59 14h32q79 0 122-42t43-121V163q0-79-43-121T316 0H76Q55 0 55 21z"/><glyph unicode="c" glyph-name="c" horiz-adv-x="411" d="M380 89V20q0-11-4-15t-17-5H210Q131 0 88 42T45 163v184q0 79 43 121t122 42h149q21 0 21-21v-69q0-11-4-15t-17-5H230q-31 0-44-13t-14-46V169q0-32 13-45t45-14h129q21 0 21-21z"/><glyph unicode="d" glyph-name="d" horiz-adv-x="526" d="M242 0h-41Q124 0 85 42T45 163v184q0 79 39 121t117 42h41q31 0 59-13t39-41h4v226q0 21 21 21h85q21 0 21-21V21q0-21-21-21h-85q-21 0-21 21v33h-4q-11-27-39-40T242 0zm102 186v138q0 76-69 76h-45q-32 0-45-13t-13-46V169q0-32 13-45t45-14h45q69 0 69 76z"/><glyph unicode="e" glyph-name="e" horiz-adv-x="494" d="M431 0H210Q131 0 88 42T45 163v184q0 79 43 121t122 42h79q79 0 122-42t43-121V220q0-21-21-21H182q-12 0-12-11v-22q0-31 13-44t46-14h202q21 0 21-22V20q0-11-4-15t-17-5zM182 284h136q11 0 11 11v48q0 32-13 45t-45 13h-42q-32 0-45-13t-13-45v-48q0-11 11-11z"/><glyph unicode="f" glyph-name="f" horiz-adv-x="354" d="M240 510h80q12 0 16-4t5-16v-69q0-21-21-21h-80q-11 0-11-11V21q0-21-22-21h-84q-21 0-21 21v368q0 11-12 11H44q-21 0-21 21v69q0 12 4 16t17 4h46q12 0 12 11v19q0 79 41 121t121 42h57q12 0 16-4t4-16v-69q0-21-20-21h-37q-32 0-43-13t-12-46v-13q0-11 11-11z"/><glyph unicode="g" glyph-name="g" horiz-adv-x="519" d="M235 23h-33q-77 0-116 42T46 186v161q0 79 43 121t122 42h231q22 0 22-21V-4q0-78-43-120t-122-42H107q-12 0-16 4t-5 16v69q0 21 21 21h171q32 0 45 13t14 45v76h-4q-11-27-39-41t-59-14zm102 186v180q0 11-12 11h-94q-32 0-45-13t-13-46V192q0-32 13-45t45-13h37q69 0 69 75z"/><glyph unicode="h" glyph-name="h" horiz-adv-x="523" d="M161 0H76Q55 0 55 21v661q0 21 21 21h85q21 0 21-21V456h4q22 54 98 54h32q157 0 157-163V21q0-21-22-21h-84q-21 0-21 21v320q0 32-13 45t-46 14h-36q-69 0-69-76V21q0-21-21-21z"/><glyph unicode="i" glyph-name="i" horiz-adv-x="247" d="M60 596v87q0 20 20 20h87q20 0 20-19v-88q0-20-20-20H80q-20 0-20 20zm0-575v468q0 21 20 21h86q21 0 21-21V21q0-13-4-17t-16-4H81Q60 0 60 21z"/><glyph unicode="j" glyph-name="j" horiz-adv-x="247" d="M60 596v87q0 20 20 20h87q20 0 20-19v-88q0-20-20-20H80q-20 0-20 20zM21-166h-67q-21 0-21 21v68q0 21 21 21h28q45 0 61 16t17 61v468q0 21 21 21h85q21 0 21-21V-2q0-78-44-121T21-166z"/><glyph unicode="k" glyph-name="k" horiz-adv-x="472" d="M347 510h97q12 0 16-7t-3-18L324 266v-4L463 25q6-10 1-17t-18-8h-86q-17 0-24 4t-16 17L193 244q-9 16 0 33l120 213q11 20 34 20zM161 0H76Q55 0 55 21v661q0 21 21 21h85q21 0 21-21V21q0-21-21-21z"/><glyph unicode="l" glyph-name="l" horiz-adv-x="247" d="M166 0H81Q60 0 60 21v661q0 21 21 21h85q21 0 21-21V21q0-21-21-21z"/><glyph unicode="m" glyph-name="m" horiz-adv-x="798" d="M161 0H76Q55 0 55 21v468q0 21 21 21h85q21 0 21-21v-33h4q12 24 40 39t66 15h28q87 0 125-64 34 64 117 64h29q77 0 116-42t40-121V21q0-21-21-21h-85q-21 0-21 21v320q0 32-13 45t-45 14h-25q-69 0-69-77V21q0-21-22-21h-84q-21 0-21 21v320q0 32-13 45t-46 14h-31q-69 0-69-76V21q0-21-21-21z"/><glyph unicode="n" glyph-name="n" horiz-adv-x="523" d="M161 0H76Q55 0 55 21v468q0 21 21 21h85q21 0 21-21v-33h4q22 54 98 54h32q157 0 157-163V21q0-21-22-21h-84q-21 0-21 21v320q0 32-13 45t-46 14h-36q-69 0-69-76V21q0-21-21-21z"/><glyph unicode="o" glyph-name="o" horiz-adv-x="509" d="M299 0h-89Q131 0 88 42T45 163v184q0 79 43 121t122 42h89q78 0 121-42t44-121V163q0-78-43-120T299 0zm-70 109h51q32 0 45 13t14 45v176q0 32-13 45t-46 13h-51q-32 0-45-13t-13-45V167q0-32 13-45t45-13z"/><glyph unicode="p" glyph-name="p" horiz-adv-x="526" d="M161-136H76q-21 0-21 20v605q0 21 21 21h85q21 0 21-21v-33h4q11 27 39 40t59 14h41q77 0 116-42t40-121V163q0-79-39-121T325 0h-41q-31 0-59 13t-39 41h-4v-170q0-20-21-20zm90 246h44q32 0 45 13t14 46v172q0 32-13 45t-46 14h-44q-69 0-69-76V186q0-76 69-76z"/><glyph unicode="q" glyph-name="q" horiz-adv-x="518" d="M336 187v202q0 11-12 11h-94q-32 0-45-13t-13-46V169q0-32 13-45t45-14h36q70 0 70 77zM233 0h-23Q131 0 88 42T45 163v184q0 79 43 121t122 42h231q22 0 22-21v-605q0-20-22-20h-84q-21 0-21 20V55h-4Q308 0 233 0z"/><glyph unicode="r" glyph-name="r" horiz-adv-x="349" d="M161 0H76Q55 0 55 21v468q0 21 21 21h85q21 0 21-21v-34h4q11 27 39 41t59 14h36q20 0 20-21v-69q0-12-4-16t-16-4h-69q-69 0-69-78V21q0-21-21-21z"/><glyph unicode="s" glyph-name="s" horiz-adv-x="438" d="M248 0H58Q38 0 38 21v64q0 11 4 15t16 5h167q49 0 49 30v5q0 24-41 46l-99 55q-51 26-75 56t-24 77q0 70 37 103t116 33h167q20 0 20-21v-65q0-11-4-15t-16-5H216q-49 0-49-25v-5q0-22 43-45l101-60q52-28 73-57t21-78Q405 0 248 0z"/><glyph unicode="t" glyph-name="t" horiz-adv-x="353" d="M66 400H26q-12 0-16 4t-5 16v69q0 21 21 21h40q11 0 11 11v95q0 21 22 21h84q21 0 21-21v-95q0-11 12-11h78q21 0 21-21v-69q0-11-4-15t-17-5h-78q-12 0-12-11V168q0-31 14-44t46-14h40q21 0 21-21V20q0-11-4-15t-17-5h-61q-79 0-122 42T77 162v227q0 11-11 11z"/><glyph unicode="u" glyph-name="u" horiz-adv-x="523" d="M239 0h-33Q129 0 90 42T50 163v326q0 21 21 21h85q21 0 21-21V169q0-32 13-45t45-14h37q69 0 69 76v303q0 21 21 21h84q22 0 22-21V21q0-21-22-21h-84q-21 0-21 21v33h-4q-11-27-39-40T239 0z"/><glyph unicode="v" glyph-name="v" horiz-adv-x="468" d="M33 510h88q20 0 24-21l86-376h7l84 376q4 21 25 21h88q21 0 15-21L324 22q-4-22-27-22H170q-21 0-27 22L18 489q-6 21 15 21z"/><glyph unicode="w" glyph-name="w" horiz-adv-x="696" d="M259 0H145q-19 0-24 21L21 489q-4 21 15 21h96q22 0 24-21l45-342h8l71 342q3 21 23 21h88q21 0 25-21l69-342h8l46 342q3 21 24 21h96q20 0 15-21L574 21q-4-21-24-21H436q-20 0-24 21l-61 338h-8L283 21q-3-21-24-21z"/><glyph unicode="x" glyph-name="x" horiz-adv-x="462" d="M137 0H36Q10 0 22 21l126 239L22 489q-10 21 12 21h102q24 0 31-21l63-152h4l55 152q7 21 31 21h100q26 0 13-21L313 260 442 21q5-9 2-15t-14-6H327q-21 0-30 21l-63 153h-4L167 21q-7-21-30-21z"/><glyph unicode="y" glyph-name="y" horiz-adv-x="471" d="M138-169H74q-20 0-20 22v67q0 22 20 22h21q63 0 85 17t35 68h-53q-19 0-25 21L20 489q-6 21 15 21h89q20 0 25-21l86-369h4l85 369q4 21 25 21h84q25 0 20-22L331 0q-22-83-68-126t-125-43z"/><glyph unicode="z" glyph-name="z" horiz-adv-x="449" d="M31 21v33q0 34 19 58l212 285v4H61q-21 0-21 22v66q0 21 21 21h326q21 0 21-21v-60q0-32-16-52L196 113v-4h202q21 0 21-22V21q0-21-21-21H52Q31 0 31 21z"/><glyph unicode="{" glyph-name="braceleft" horiz-adv-x="315" d="M235 643h8q20 0 20-21v-47q0-21-20-21h-3q-31 0-42-13t-12-46V369q0-41-14-64t-48-35q62-17 62-98V46q0-32 11-45t43-14h3q20 0 20-21v-47q0-21-20-21h-8Q86-102 86 61v101q0 53-42 53-21 0-21 22v67q0 22 21 22 42 0 42 53v101q0 163 149 163z"/><glyph unicode="|" glyph-name="bar" horiz-adv-x="231" d="M159 622V21q0-21-22-21H94Q73 0 73 21v601q0 21 21 21h43q22 0 22-21z"/><glyph unicode="}" glyph-name="braceright" horiz-adv-x="315" d="M201 480V379q0-29 10-41t32-12q20 0 20-22v-67q0-22-20-22-22 0-32-12t-10-41V61q0-163-150-163h-7q-21 0-21 21v47q0 21 21 21h3q30 0 41 13t12 46v126q0 81 62 98-62 20-62 99v126q0 32-11 45t-42 14h-3q-21 0-21 21v47q0 21 21 21h7q150 0 150-163z"/><glyph unicode="~" glyph-name="asciitilde" horiz-adv-x="565" d="M346 258l-68 15-98 16-60-15-36-15q-14 0-14 14v58q0 15 6 23t32 19 66 11 105-16 101-16 65 15 36 15q14 0 14-13v-59q0-26-28-37-33-15-77-15z"/><glyph glyph-name="uni00A0" horiz-adv-x="220"/><glyph unicode="¡" glyph-name="exclamdown" horiz-adv-x="238" d="M164 480H76q-20 0-20 20v121q0 22 20 22h88q20 0 20-21V499q0-19-20-19zm-74-65h57q19 0 23-21 0-1 2-16t4-39 4-51q7-72 7-112V21q0-21-21-21H71Q50 0 50 21v155q0 90 8 153t9 65q4 21 23 21z"/><glyph unicode="¢" glyph-name="cent" horiz-adv-x="430" d="M287-94h-63q-20 0-20 20V0h-7Q125 0 85 43T45 163v184q0 76 40 119t112 44h7v77q0 20 20 20h63q19 0 19-19v-78h47q13 0 25-5t13-16v-69q0-20-22-20H230q-31 0-44-13t-14-46V169q0-32 13-45t45-14h139q22 0 22-20V21q0-21-22-21h-63v-75q0-19-19-19z"/><glyph unicode="£" glyph-name="sterling" horiz-adv-x="557" d="M170 103h304q20 0 20-22V21q0-21-20-21H44Q23 0 23 21v60q0 22 21 22h7q40 0 40 64v82H44q-21 0-21 22v60q0 21 21 21h47v129q0 78 43 120t122 42h65q79 0 122-42t43-120v-25q0-21-22-21h-84q-21 0-21 21v23q0 32-13 45t-46 13h-23q-33 0-47-13t-15-45V352h110q21 0 21-21v-60q0-22-21-22H215v-65q0-33-13-55t-32-22v-4z"/><glyph unicode="¥" glyph-name="yen" horiz-adv-x="543" d="M314 0h-85q-21 0-21 21v132H69q-23 0-23 23v38q0 24 23 24h134v7l-27 58H69q-23 0-23 23v38q0 24 23 24h67L24 622q-9 21 13 21h108q9 0 13-4 3-4 111-273h4q110 270 113 273t13 4h107q22 0 13-21L408 388h65q13 0 18-5t5-19v-38q0-23-23-23H367l-27-58v-7h133q13 0 18-5t5-19v-38q0-23-23-23H335V21q0-21-21-21z"/><glyph unicode="¦" glyph-name="brokenbar" horiz-adv-x="230" d="M158 622V392q0-21-21-21H93q-21 0-21 21v230q0 21 21 21h44q21 0 21-21zm0-371V21q0-21-21-21H93Q72 0 72 21v230q0 21 21 21h44q21 0 21-21z"/><glyph unicode="§" glyph-name="section" horiz-adv-x="490" d="M312 301q0 35-44 48-55 14-91 27v-32q0-38 46-51 70-17 89-25v33zM265 0H98Q77 0 77 21v69q0 20 21 20h157q47 0 47 33 0 16-13 25t-48 17l-86 19q-95 21-95 131v173q0 64 41 99t122 36h164q20 0 20-21v-69q0-11-4-15t-16-5H227q-40 0-40-31 0-15 13-25t49-18l86-19q95-23 95-130V137q0-65-42-101T265 0z"/><glyph unicode="¨" glyph-name="dieresis" horiz-adv-x="416" d="M53 595v88q0 20 20 20h79q20 0 20-19v-89q0-21-20-21H73q-20 0-20 21zm190 0v88q0 20 20 20h79q20 0 20-19v-89q0-21-20-21h-79q-20 0-20 21z"/><glyph unicode="©" glyph-name="copyright" horiz-adv-x="703" d="M490 403v-28q0-13-13-13h-53q-14 0-14 13v14q0 34-8 42t-45 8h-5q-35 0-43-8t-9-42V256q0-35 8-43t44-8h5q36 0 44 8t9 43v14q0 14 14 14h53q13 0 13-14v-29q0-51-28-78t-81-28h-52q-52 0-81 27t-29 79v162q0 52 29 79t81 27h52q52 0 80-27t29-79zM214 74h275q37 0 54 15t17 51v363q0 36-17 51t-54 15H214q-37 0-54-15t-17-51V140q0-36 17-51t54-15zm-25 569h326q59 0 92-33t34-91V124q0-58-33-91T515 0H189q-59 0-92 33t-34 91v395q0 58 33 91t93 33z"/><glyph unicode="«" glyph-name="guillemotleft" horiz-adv-x="454" d="M409 150V95q0-11-6-14t-15 4L239 200q-12 9-16 15t-4 22v41q0 21 20 35l149 115q9 7 15 4t6-14v-55q0-17-20-29l-102-77 102-77q20-13 20-30zm-174 0V95q0-11-6-14t-15 4L65 200q-12 9-16 15t-4 22v41q0 21 20 35l149 115q9 7 15 4t6-14v-55q0-17-20-29l-102-77 102-77q20-13 20-30z"/><glyph unicode="®" glyph-name="registered" horiz-adv-x="475" d="M249 603h-30v-49h30q11 0 11 11v28q0 10-11 10zm-75-136v158q0 11 4 15t16 4h59q53 0 53-46v-38q0-30-21-40l22-46q12-25-14-25h-10q-13 0-18 13l-25 56h-21v-51q0-11-3-14t-15-4h-7q-12 0-16 3t-4 15zm-2-51h131q31 0 44 13t14 45v145q0 31-13 44t-45 14H172q-32 0-45-13t-13-45V474q0-32 13-45t45-13zm143-48H160q-45 0-71 25t-27 69v169q0 43 26 68t72 26h155q46 0 72-25t26-69V462q0-44-26-69t-72-25z"/><glyph unicode="¯" glyph-name="overscore" horiz-adv-x="345" d="M271 595H74q-21 0-21 22v44q0 21 21 21h197q21 0 21-21v-44q0-22-21-22z"/><glyph unicode="°" glyph-name="degree" horiz-adv-x="379" d="M220 510h-62q-49 0-49 49v97q0 47 49 47h62q23 0 36-12t14-35v-97q0-23-13-36t-37-13zm-24 47q13 0 17 4t5 17v56q0 14-4 18t-18 4h-14q-14 0-18-4t-4-18v-56q0-13 4-17t18-4h14z"/><glyph unicode="±" glyph-name="plusminus" horiz-adv-x="565" d="M336 442h136q13 0 18-5t5-19v-53q0-13-5-18t-18-6H336v-69q0-24-24-24h-59q-24 0-24 24v69H93q-13 0-18 5t-5 19v53q0 13 5 18t18 6h136v68q0 24 24 24h59q24 0 24-24v-68zM93 209h379q23 0 23-23v-54q0-24-23-24H93q-23 0-23 24v54q0 23 23 23z"/><glyph unicode="´" glyph-name="acute" horiz-adv-x="298" d="M132 703h99q10 0 13-6t-3-14l-82-96q-11-13-28-13H68q-21 0-11 21l45 89q10 19 30 19z"/><glyph unicode="¶" glyph-name="paragraph" horiz-adv-x="546" d="M257 0h-60q-21 0-21 21v297q-52 0-89 31t-37 94v74q0 66 42 96t104 30h255q21 0 21-20V21q0-21-21-21h-60q-21 0-21 21v517q0 11-12 11h-68q-12 0-12-11V21q0-21-21-21z"/><glyph unicode="·" glyph-name="middot" horiz-adv-x="207" d="M167 380V257q0-21-19-21H59q-20 0-20 21v122q0 20 20 20h89q19 0 19-19z"/><glyph unicode="¸" glyph-name="cedilla" horiz-adv-x="266" d="M138-37q74 0 74-75v-18q0-70-94-70H73q-11 0-14 3t-4 15v20q0 11 3 15t15 4h33q27 0 36 4t9 19v2q0 15-9 19t-36 5H81q-18 0-25 19t6 36l51 59h78l-53-53v-4z"/><glyph unicode="»" glyph-name="guillemotright" horiz-adv-x="454" d="M219 363v55q0 11 5 14t15-4l150-115q20-14 20-35v-41q0-15-4-21t-16-16L239 85q-9-7-14-4t-6 14v55q0 17 19 30l103 77-103 77q-19 12-19 29zm-174 0v55q0 11 5 14t15-4l150-115q20-14 20-35v-41q0-15-4-21t-16-16L65 85q-9-7-14-4t-6 14v55q0 17 19 30l103 77-103 77q-19 12-19 29z"/><glyph unicode="¿" glyph-name="questiondown" horiz-adv-x="466" d="M177 498v123q0 21 20 21h89q19 0 19-22V499q0-20-19-20h-89q-20 0-20 19zm0-131v26q0 21 21 21h79q21 0 21-21v-27q0-32-11-53t-37-42l-56-46q-32-24-32-55v-6q0-31 14-44t47-14h18q32 0 45 13t14 45v21q0 22 21 22h85q21 0 21-22v-23q0-78-43-120T262 0h-59Q124 0 81 42T38 162v14q0 49 45 88l68 55q26 25 26 48z"/><glyph unicode="À" glyph-name="Agrave" horiz-adv-x="556" d="M309 707h-66q-16 0-26 13l-81 96q-7 8-4 14t14 6h98q20 0 30-19l45-89q10-21-10-21zM132 0H36Q18 0 24 21l158 601q7 21 30 21h133q25 0 30-21L533 21q6-21-12-21h-96q-11 0-15 4t-6 17l-28 110H181L153 21q-2-12-6-16t-15-5zm145 522l-72-289h148l-72 289h-4z"/><glyph unicode="Á" glyph-name="Aacute" horiz-adv-x="556" d="M307 836h99q11 0 14-6t-4-14l-81-96q-11-13-26-13h-66q-20 0-10 21l45 89q10 19 29 19zM132 0H36Q18 0 24 21l158 601q7 21 30 21h133q25 0 30-21L533 21q6-21-12-21h-96q-11 0-15 4t-6 17l-28 110H181L153 21q-2-12-6-16t-15-5zm145 522l-72-289h148l-72 289h-4z"/><glyph unicode="Â" glyph-name="Acircumflex" horiz-adv-x="556" d="M389 707h-60q-13 0-18 12l-32 66-33-66q-4-12-17-12h-59q-15 0-8 13l62 105q8 11 22 11h65q14 0 22-11l63-105q7-13-7-13zM132 0H36Q18 0 24 21l158 601q7 21 30 21h133q25 0 30-21L533 21q6-21-12-21h-96q-11 0-15 4t-6 17l-28 110H181L153 21q-2-12-6-16t-15-5zm145 522l-72-289h148l-72 289h-4z"/><glyph unicode="Ã" glyph-name="Atilde" horiz-adv-x="556" d="M231 702q-72 0-72 76v39q0 7 2 9t9 2h39q11 0 11-11v-12q0-22 3-29t10-7 12 5 27 32 55 27q72 0 72-77v-37q0-13-10-13h-40q-10 0-10 13v10q0 22-3 29t-12 7q-12 0-30-27-26-36-63-36zM132 0H36Q18 0 24 21l158 601q7 21 30 21h133q25 0 30-21L533 21q6-21-12-21h-96q-11 0-15 4t-6 17l-28 110H181L153 21q-2-12-6-16t-15-5zm145 522l-72-289h148l-72 289h-4z"/><glyph unicode="Ä" glyph-name="Adieresis" horiz-adv-x="556" d="M124 728v88q0 20 19 20h80q19 0 19-19v-89q0-21-19-21h-80q-19 0-19 21zm190 0v88q0 20 19 20h80q19 0 19-19v-89q0-21-19-21h-80q-19 0-19 21zM132 0H36Q18 0 24 21l158 601q7 21 30 21h133q25 0 30-21L533 21q6-21-12-21h-96q-11 0-15 4t-6 17l-28 110H181L153 21q-2-12-6-16t-15-5zm145 522l-72-289h148l-72 289h-4z"/><glyph unicode="Å" glyph-name="Aring" horiz-adv-x="556" d="M306 704h-57q-54 0-54 54v64q0 52 54 52h57q25 0 40-14t15-38v-64q0-26-15-40t-40-14zm-37 46h16q13 0 18 5t5 20v26q0 15-4 20t-18 6h-16q-13 0-18-5t-6-21v-26q0-14 5-19t18-6zM132 0H36Q18 0 24 21l158 601q7 21 30 21h133q25 0 30-21L533 21q6-21-12-21h-96q-11 0-15 4t-6 17l-28 110H181L153 21q-2-12-6-16t-15-5zm145 522l-72-289h148l-72 289h-4z"/><glyph unicode="Æ" glyph-name="AE" horiz-adv-x="781" d="M112 0H20Q-2 0 7 22l277 600q10 21 33 21h399q20 0 20-21v-68q0-21-20-21H507q-12 0-12-11V392q0-11 12-11h171q21 0 21-21v-68q0-21-21-21H507q-12 0-12-11V121q0-11 12-11h209q20 0 20-21V21q0-21-20-21H389q-21 0-21 21v111H190L139 21q-8-21-27-21zm256 243v279h-4L237 243h131z"/><glyph unicode="Ç" glyph-name="Ccedilla" horiz-adv-x="538" d="M472 411h-84q-21 0-21 22v41q0 32-13 45t-46 14h-68q-31 0-44-13t-14-46V169q0-32 13-45t45-14h68q32 0 45 13t14 46v41q0 22 21 22h84q22 0 22-22v-47q0-78-43-120T329 0h-1l-40-41v-4q74 0 74-75v-18q0-36-25-53t-69-18h-46q-11 0-14 4t-4 15v19q0 12 3 16t15 4h34q27 0 36 4t9 18v3q0 15-9 19t-36 5h-26q-18 0-25 19t7 36l40 47h-32Q141 0 98 42T55 163v317q0 79 43 121t122 42h109q78 0 121-42t44-121v-47q0-22-22-22z"/><glyph unicode="È" glyph-name="Egrave" horiz-adv-x="479" d="M280 707h-66q-16 0-26 13l-81 96q-7 8-4 14t14 6h98q21 0 30-19l45-89q10-21-10-21zM413 0H86Q65 0 65 21v601q0 21 21 21h327q20 0 20-21v-68q0-21-20-21H204q-12 0-12-11V392q0-11 12-11h171q21 0 21-21v-68q0-21-21-21H204q-12 0-12-11V121q0-11 12-11h209q20 0 20-21V21q0-21-20-21z"/><glyph unicode="É" glyph-name="Eacute" horiz-adv-x="479" d="M268 836h99q11 0 14-6t-4-14l-81-96q-11-13-27-13h-65q-20 0-10 21l44 89q11 19 30 19zM413 0H86Q65 0 65 21v601q0 21 21 21h327q20 0 20-21v-68q0-21-20-21H204q-12 0-12-11V392q0-11 12-11h171q21 0 21-21v-68q0-21-21-21H204q-12 0-12-11V121q0-11 12-11h209q20 0 20-21V21q0-21-20-21z"/><glyph unicode="Ê" glyph-name="Ecircumflex" horiz-adv-x="479" d="M358 707h-60q-13 0-17 12l-33 66-32-66q-5-12-18-12h-59q-15 0-8 13l63 105q8 11 22 11h65q14 0 22-11l62-105q7-13-7-13zM413 0H86Q65 0 65 21v601q0 21 21 21h327q20 0 20-21v-68q0-21-20-21H204q-12 0-12-11V392q0-11 12-11h171q21 0 21-21v-68q0-21-21-21H204q-12 0-12-11V121q0-11 12-11h209q20 0 20-21V21q0-21-20-21z"/><glyph unicode="Ë" glyph-name="Edieresis" horiz-adv-x="479" d="M95 728v88q0 20 19 20h80q20 0 20-19v-89q0-21-20-21h-80q-19 0-19 21zm190 0v88q0 20 19 20h80q20 0 20-19v-89q0-21-20-21h-80q-19 0-19 21zM413 0H86Q65 0 65 21v601q0 21 21 21h327q20 0 20-21v-68q0-21-20-21H204q-12 0-12-11V392q0-11 12-11h171q21 0 21-21v-68q0-21-21-21H204q-12 0-12-11V121q0-11 12-11h209q20 0 20-21V21q0-21-20-21z"/><glyph unicode="Ì" glyph-name="Igrave" horiz-adv-x="267" d="M166 707h-65q-16 0-26 13l-81 96q-7 8-4 14t13 6h99q20 0 30-19l45-89q10-21-11-21zm31-85V21q0-21-21-21H91Q70 0 70 21v601q0 21 21 21h85q21 0 21-21z"/><glyph unicode="Í" glyph-name="Iacute" horiz-adv-x="267" d="M164 836h99q11 0 14-6t-4-14l-81-96q-11-13-27-13h-65q-20 0-10 21l44 89q11 19 30 19zm33-214V21q0-21-21-21H91Q70 0 70 21v601q0 21 21 21h85q21 0 21-21z"/><glyph unicode="Î" glyph-name="Icircumflex" horiz-adv-x="265" d="M242 707h-60q-12 0-17 12l-33 66-32-66q-5-12-18-12H24q-16 0-9 13l63 105q8 11 22 11h65q14 0 22-11l62-105q7-13-7-13zm-45-85V21q0-21-21-21H91Q70 0 70 21v601q0 21 21 21h85q21 0 21-21z"/><glyph unicode="Ï" glyph-name="Idieresis" horiz-adv-x="266" d="M-21 728v88q0 20 19 20h80q20 0 20-19v-89q0-21-20-21H-2q-19 0-19 21zm190 0v88q0 20 19 20h80q20 0 20-19v-89q0-21-20-21h-80q-19 0-19 21zm28-106V21q0-21-21-21H91Q70 0 70 21v601q0 21 21 21h85q21 0 21-21z"/><glyph unicode="Ð" glyph-name="Eth" horiz-adv-x="566" d="M217 110h109q32 0 45 13t14 46v305q0 32-13 45t-46 14H217q-11 0-11-11V380q0-11 11-11h76q21 0 21-21v-52q0-21-21-21h-76q-11 0-11-11V121q0-11 11-11zM347 0H100Q79 0 79 21v243q0 11-11 11H42q-12 0-16 4t-5 17v52q0 21 21 21h26q11 0 11 11v242q0 21 21 21h247q79 0 122-42t43-121V163q0-79-43-121T347 0z"/><glyph unicode="Ñ" glyph-name="Ntilde" horiz-adv-x="585" d="M245 702q-71 0-71 76v39q0 11 10 11h39q7 0 9-2t2-9v-12q0-22 3-29t11-7 34 32q24 32 60 32 72 0 72-77v-37q0-13-11-13h-39q-11 0-11 13v10q0 22-3 29t-11 7-31-27q-25-36-63-36zM169 0H86Q65 0 65 21v601q0 21 21 21h75q21 0 28-14l202-379h4v372q0 21 21 21h83q21 0 21-21V21q0-21-21-21h-73q-22 0-32 20L194 392h-4V21q0-21-21-21z"/><glyph unicode="Ò" glyph-name="Ograve" horiz-adv-x="552" d="M308 707h-66q-16 0-26 13l-81 96q-7 8-4 14t13 6h99q21 0 30-19l45-89q10-21-10-21zm-68-597h71q32 0 45 13t14 46v305q0 32-13 45t-46 14h-71q-32 0-45-13t-13-46V169q0-32 13-45t45-14zM332 0H220Q141 0 98 42T55 163v317q0 79 43 121t122 42h112q79 0 122-42t43-121V163q0-79-43-121T332 0z"/><glyph unicode="Ó" glyph-name="Oacute" horiz-adv-x="552" d="M298 836h99q10 0 13-6t-4-14l-81-96q-10-13-26-13h-66q-20 0-10 21l45 89q10 19 30 19zm-58-726h71q32 0 45 13t14 46v305q0 32-13 45t-46 14h-71q-32 0-45-13t-13-46V169q0-32 13-45t45-14zM332 0H220Q141 0 98 42T55 163v317q0 79 43 121t122 42h112q79 0 122-42t43-121V163q0-79-43-121T332 0z"/><glyph unicode="Ô" glyph-name="Ocircumflex" horiz-adv-x="552" d="M389 707h-60q-13 0-17 12l-33 66-32-66q-5-12-18-12h-59q-15 0-8 13l63 105q8 11 22 11h65q14 0 22-11l62-105q7-13-7-13zM240 110h71q32 0 45 13t14 46v305q0 32-13 45t-46 14h-71q-32 0-45-13t-13-46V169q0-32 13-45t45-14zM332 0H220Q141 0 98 42T55 163v317q0 79 43 121t122 42h112q79 0 122-42t43-121V163q0-79-43-121T332 0z"/><glyph unicode="Õ" glyph-name="Otilde" horiz-adv-x="552" d="M228 702q-72 0-72 76v39q0 11 11 11h39q7 0 9-2t2-9v-12q0-22 3-29t11-7 34 32q24 32 60 32 71 0 71-77v-37q0-13-10-13h-39q-11 0-11 13v10q0 22-3 29t-11 7-31-27q-25-36-63-36zm12-592h71q32 0 45 13t14 46v305q0 32-13 45t-46 14h-71q-32 0-45-13t-13-46V169q0-32 13-45t45-14zM332 0H220Q141 0 98 42T55 163v317q0 79 43 121t122 42h112q79 0 122-42t43-121V163q0-79-43-121T332 0z"/><glyph unicode="Ö" glyph-name="Odieresis" horiz-adv-x="552" d="M122 728v88q0 20 19 20h80q19 0 19-19v-89q0-21-19-21h-80q-19 0-19 21zm190 0v88q0 20 19 20h80q19 0 19-19v-89q0-21-19-21h-80q-19 0-19 21zm-72-618h71q32 0 45 13t14 46v305q0 32-13 45t-46 14h-71q-32 0-45-13t-13-46V169q0-32 13-45t45-14zM332 0H220Q141 0 98 42T55 163v317q0 79 43 121t122 42h112q79 0 122-42t43-121V163q0-79-43-121T332 0z"/><glyph unicode="×" glyph-name="multiply" horiz-adv-x="521" d="M336 322l100-101q17-16 0-33l-43-42q-16-17-33-1L260 246 159 145q-16-16-32 1l-43 42q-17 17-1 33l101 101-100 99q-16 17 1 33l42 43q17 17 33 0l100-99 99 99q17 17 34 0l42-43q17-16 0-33l-99-99z"/><glyph unicode="Ø" glyph-name="Oslash" horiz-adv-x="580" d="M515 480V163q0-78-43-120T351 0H230q-63 0-105 28L108 4Q96-12 77-1L56 15q-17 12-5 30l28 40q-14 34-14 78v317q0 79 43 121t122 42h121q64 0 105-29l17 24q13 17 31 5l21-15q17-12 6-30l-30-42q14-33 14-76zm-323-6V243l190 267q-12 23-52 23h-80q-32 0-45-13t-13-46zm196-305v228L199 132q12-22 51-22h80q32 0 45 13t13 46z"/><glyph unicode="Ù" glyph-name="Ugrave" horiz-adv-x="560" d="M312 707h-65q-16 0-27 13l-81 96q-6 8-3 14t13 6h99q19 0 30-19l44-89q11-21-10-21zm82-64h84q22 0 22-20V163q0-78-43-120T335 0H225q-79 0-122 42T60 163v459q0 21 21 21h85q21 0 21-21V169q0-32 13-45t45-14h69q32 0 45 13t14 46v453q0 21 21 21z"/><glyph unicode="Ú" glyph-name="Uacute" horiz-adv-x="560" d="M309 836h99q10 0 13-6t-3-14l-82-96q-10-13-26-13h-65q-21 0-11 21l45 89q9 19 30 19zm85-193h84q22 0 22-20V163q0-78-43-120T335 0H225q-79 0-122 42T60 163v459q0 21 21 21h85q21 0 21-21V169q0-32 13-45t45-14h69q32 0 45 13t14 46v453q0 21 21 21z"/><glyph unicode="Û" glyph-name="Ucircumflex" horiz-adv-x="560" d="M392 707h-59q-13 0-18 12l-33 66-32-66q-5-12-18-12h-58q-16 0-9 13l63 105q8 11 22 11h65q14 0 22-11l63-105q7-13-8-13zm2-64h84q22 0 22-20V163q0-78-43-120T335 0H225q-79 0-122 42T60 163v459q0 21 21 21h85q21 0 21-21V169q0-32 13-45t45-14h69q32 0 45 13t14 46v453q0 21 21 21z"/><glyph unicode="Ü" glyph-name="Udieresis" horiz-adv-x="560" d="M126 728v88q0 20 19 20h80q19 0 19-19v-89q0-21-19-21h-80q-19 0-19 21zm190 0v88q0 20 19 20h80q19 0 19-19v-89q0-21-19-21h-80q-19 0-19 21zm78-85h84q22 0 22-20V163q0-78-43-120T335 0H225q-79 0-122 42T60 163v459q0 21 21 21h85q21 0 21-21V169q0-32 13-45t45-14h69q32 0 45 13t14 46v453q0 21 21 21z"/><glyph unicode="Ý" glyph-name="Yacute" horiz-adv-x="517" d="M284 836h99q10 0 13-6t-3-14l-81-96q-11-13-27-13h-65q-21 0-10 21l44 89q11 19 30 19zM301 0h-85q-21 0-21 21v214L12 621q-4 9 0 15t14 7h106q16 0 24-21l100-243h7l98 243q7 21 24 21h106q10 0 14-6t0-16L322 235V21q0-21-21-21z"/><glyph unicode="Þ" glyph-name="Thorn" horiz-adv-x="504" d="M217 242h63q32 0 45 13t13 45v41q0 32-13 45t-45 14h-63q-11 0-11-11V253q0-11 11-11zM185 0h-85Q79 0 79 21v601q0 21 21 21h85q21 0 21-21V521q0-11 12-11h83q78 0 121-42t44-121v-53q0-78-43-120t-122-43h-83q-12 0-12-11V21q0-21-21-21z"/><glyph unicode="ß" glyph-name="germandbls" horiz-adv-x="543" d="M281 372h15q33 0 48 14t15 45v48q0 31-14 44t-47 13h-57q-31 0-44-13t-14-44V21q0-21-21-21H77Q56 0 56 21v459q0 79 43 121t122 42h97q79 0 122-43t43-122v-53q0-82-71-105 41-6 61-38t20-79v-49Q493 0 328 0h-60q-12 0-16 4t-5 16v65q0 21 21 21h40q32 0 46 13t15 45v42q0 59-64 59h-24q-12 0-16 4t-4 16v66q0 21 20 21z"/><glyph unicode="à" glyph-name="agrave" horiz-adv-x="518" d="M319 574h-65q-16 0-27 13l-81 96q-6 8-3 14t13 6h99q21 0 30-19l45-89q10-21-11-21zM234 0h-24Q131 0 88 42T45 163v184q0 79 43 121t122 42h231q22 0 22-21V21q0-21-22-21h-84q-21 0-21 21v33h-4q-11-27-39-40T234 0zm102 186v203q0 11-12 11h-94q-32 0-45-13t-13-46V169q0-32 13-45t45-14h37q69 0 69 76z"/><glyph unicode="á" glyph-name="aacute" horiz-adv-x="518" d="M301 703h99q10 0 13-6t-4-14l-81-96q-11-13-28-13h-64q-20 0-10 21l45 89q9 19 30 19zM234 0h-24Q131 0 88 42T45 163v184q0 79 43 121t122 42h231q22 0 22-21V21q0-21-22-21h-84q-21 0-21 21v33h-4q-11-27-39-40T234 0zm102 186v203q0 11-12 11h-94q-32 0-45-13t-13-46V169q0-32 13-45t45-14h37q69 0 69 76z"/><glyph unicode="â" glyph-name="acircumflex" horiz-adv-x="518" d="M379 574h-60q-13 0-17 12l-33 66-32-66q-5-12-18-12h-59q-15 0-8 13l63 105q8 11 22 11h65q14 0 22-11l62-105q7-13-7-13zM234 0h-24Q131 0 88 42T45 163v184q0 79 43 121t122 42h231q22 0 22-21V21q0-21-22-21h-84q-21 0-21 21v33h-4q-11-27-39-40T234 0zm102 186v203q0 11-12 11h-94q-32 0-45-13t-13-46V169q0-32 13-45t45-14h37q69 0 69 76z"/><glyph unicode="ã" glyph-name="atilde" horiz-adv-x="518" d="M153 650v38q0 7 2 9t9 3h39q10 0 10-12v-11q0-21 3-28t11-8 12 5 26 32 56 26q72 0 72-76v-37q0-13-10-13h-40q-10 0-10 13v9q0 23-3 30t-11 7-12-4-19-24q-26-35-63-35-72 0-72 76zM234 0h-24Q131 0 88 42T45 163v184q0 79 43 121t122 42h231q22 0 22-21V21q0-21-22-21h-84q-21 0-21 21v33h-4q-11-27-39-40T234 0zm102 186v203q0 11-12 11h-94q-32 0-45-13t-13-46V169q0-32 13-45t45-14h37q69 0 69 76z"/><glyph unicode="ä" glyph-name="adieresis" horiz-adv-x="518" d="M121 595v88q0 20 19 20h80q19 0 19-19v-89q0-21-19-21h-80q-19 0-19 21zm190 0v88q0 20 19 20h80q19 0 19-19v-89q0-21-19-21h-80q-19 0-19 21zM234 0h-24Q131 0 88 42T45 163v184q0 79 43 121t122 42h231q22 0 22-21V21q0-21-22-21h-84q-21 0-21 21v33h-4q-11-27-39-40T234 0zm102 186v203q0 11-12 11h-94q-32 0-45-13t-13-46V169q0-32 13-45t45-14h37q69 0 69 76z"/><glyph unicode="å" glyph-name="aring" horiz-adv-x="518" d="M336 186v203q0 11-12 11h-94q-32 0-45-13t-13-46V169q0-32 13-45t45-14h37q69 0 69 76zM234 0h-24Q131 0 88 42T45 163v184q0 79 43 121t122 42h231q22 0 22-21V21q0-21-22-21h-84q-21 0-21 21v33h-4q-11-27-39-40T234 0zm0 654v-30q0-16 6-21t21-6h16q15 0 21 5t6 22v30q0 17-5 22t-21 6h-17q-15 0-21-5t-6-23zm-43-47v68q0 46 49 46h58q50 0 50-46v-68q0-48-50-48h-58q-49 0-49 48z"/><glyph unicode="æ" glyph-name="ae" horiz-adv-x="755" d="M450 183v-14q0-32 13-45t46-14h184q21 0 21-21V20q0-11-4-15t-17-5H488q-84 0-125 57Q330 0 222 0h-16Q129 0 85 40T41 156v11q0 155 165 155h110q7 0 7 8v13q0 31-14 44t-44 13H102q-20 0-20 21v68q0 21 20 21h159q95 0 126-55 31 55 119 55h44q78 0 121-42t43-121V215q0-21-21-21H462q-12 0-12-11zm154 108v50q0 32-13 45t-46 14h-35q-32 0-46-13t-14-45v-51q0-11 11-11h131q12 0 12 11zM324 178v43q0 11-12 11h-85q-38 0-52-13t-15-46v-9q0-34 15-48t52-14h28q38 0 53 18t16 58z"/><glyph unicode="ç" glyph-name="ccedilla" horiz-adv-x="411" d="M359 400H230q-31 0-44-13t-14-46V169q0-32 13-45t45-14h129q21 0 21-21V20q0-11-4-15t-17-5h-59l-33-33v-4q74 0 74-75v-18q0-70-94-70h-45q-12 0-15 3t-4 15v20q0 11 4 15t15 4h33q27 0 36 4t9 19v2q0 15-9 19t-36 5h-26q-18 0-24 19t6 36l33 39h-14Q131 0 88 42T45 163v184q0 79 43 121t122 42h149q21 0 21-21v-69q0-11-4-15t-17-5z"/><glyph unicode="è" glyph-name="egrave" horiz-adv-x="494" d="M290 574h-65q-16 0-26 13l-82 96q-6 8-3 14t13 6h99q20 0 30-19l45-89q10-21-11-21zM431 0H210Q131 0 88 42T45 163v184q0 79 43 121t122 42h79q79 0 122-42t43-121V220q0-21-21-21H182q-12 0-12-11v-22q0-31 13-44t46-14h202q21 0 21-22V20q0-11-4-15t-17-5zM182 284h136q11 0 11 11v48q0 32-13 45t-45 13h-42q-32 0-45-13t-13-45v-48q0-11 11-11z"/><glyph unicode="é" glyph-name="eacute" horiz-adv-x="494" d="M282 703h98q11 0 14-6t-4-14l-81-96q-11-13-28-13h-64q-20 0-10 21l45 89q10 19 30 19zM431 0H210Q131 0 88 42T45 163v184q0 79 43 121t122 42h79q79 0 122-42t43-121V220q0-21-21-21H182q-12 0-12-11v-22q0-31 13-44t46-14h202q21 0 21-22V20q0-11-4-15t-17-5zM182 284h136q11 0 11 11v48q0 32-13 45t-45 13h-42q-32 0-45-13t-13-45v-48q0-11 11-11z"/><glyph unicode="ê" glyph-name="ecircumflex" horiz-adv-x="494" d="M364 574h-59q-13 0-18 12l-32 66-33-66q-4-12-17-12h-59q-15 0-8 13l62 105q8 11 22 11h65q14 0 22-11l63-105q7-13-8-13zM431 0H210Q131 0 88 42T45 163v184q0 79 43 121t122 42h79q79 0 122-42t43-121V220q0-21-21-21H182q-12 0-12-11v-22q0-31 13-44t46-14h202q21 0 21-22V20q0-11-4-15t-17-5zM182 284h136q11 0 11 11v48q0 32-13 45t-45 13h-42q-32 0-45-13t-13-45v-48q0-11 11-11z"/><glyph unicode="ë" glyph-name="edieresis" horiz-adv-x="494" d="M100 595v88q0 20 20 20h79q20 0 20-19v-89q0-21-20-21h-79q-20 0-20 21zm190 0v88q0 20 20 20h79q20 0 20-19v-89q0-21-20-21h-79q-20 0-20 21zM431 0H210Q131 0 88 42T45 163v184q0 79 43 121t122 42h79q79 0 122-42t43-121V220q0-21-21-21H182q-12 0-12-11v-22q0-31 13-44t46-14h202q21 0 21-22V20q0-11-4-15t-17-5zM182 284h136q11 0 11 11v48q0 32-13 45t-45 13h-42q-32 0-45-13t-13-45v-48q0-11 11-11z"/><glyph unicode="ì" glyph-name="igrave" horiz-adv-x="247" d="M155 574H90q-16 0-26 13l-81 96q-7 8-4 14t13 6h99q21 0 30-19l45-89q10-21-11-21zM60 21v468q0 21 20 21h86q21 0 21-21V21q0-13-4-17t-16-4H81Q60 0 60 21z"/><glyph unicode="í" glyph-name="iacute" horiz-adv-x="247" d="M157 703h98q11 0 14-6t-4-14l-81-96q-11-13-28-13H92q-20 0-10 21l45 89q9 19 30 19zM60 21v468q0 21 20 21h86q21 0 21-21V21q0-13-4-17t-16-4H81Q60 0 60 21z"/><glyph unicode="î" glyph-name="icircumflex" horiz-adv-x="246" d="M233 574h-60q-13 0-17 12l-33 66-32-66q-5-12-18-12H14q-15 0-8 13l63 105q8 11 22 11h65q14 0 22-11l62-105q7-13-7-13zM60 21v468q0 21 20 21h86q21 0 21-21V21q0-13-4-17t-16-4H81Q60 0 60 21z"/><glyph unicode="ï" glyph-name="idieresis" horiz-adv-x="246" d="M-31 595v88q0 20 19 20h80q20 0 20-19v-89q0-21-20-21h-80q-19 0-19 21zm190 0v88q0 20 19 20h80q20 0 20-19v-89q0-21-20-21h-80q-19 0-19 21zM60 21v468q0 21 20 21h86q21 0 21-21V21q0-13-4-17t-16-4H81Q60 0 60 21z"/><glyph unicode="ð" glyph-name="eth" horiz-adv-x="507" d="M454 309V163q0-78-43-120T290 0h-80Q131 0 88 42T45 163v84q0 79 43 121t122 42h24q32 0 64-13t43-41h4q-9 36-34 61l-85 95-80-67q-14-11-29 5l-30 36q-10 15 3 26l77 65-56 63q-19 20 4 38l42 31q19 14 37-4l54-60 82 69q17 14 28 0l31-38q13-19-2-31l-79-66 95-105q29-33 40-70t11-95zM327 169v55q0 38-11 57t-49 19h-28q-67 0-67-59v-72q0-32 13-45t45-14h39q32 0 45 13t13 46z"/><glyph unicode="ñ" glyph-name="ntilde" horiz-adv-x="523" d="M134 650v38q0 12 11 12h39q7 0 9-2t2-10v-11q0-22 3-29t11-7 33 31 61 32q71 0 71-76v-37q0-13-10-13h-39q-11 0-11 13v9q0 23-3 30t-11 7-31-28q-25-35-63-35-72 0-72 76zM161 0H76Q55 0 55 21v468q0 21 21 21h85q21 0 21-21v-33h4q22 54 98 54h32q157 0 157-163V21q0-21-22-21h-84q-21 0-21 21v320q0 32-13 45t-46 14h-36q-69 0-69-76V21q0-21-21-21z"/><glyph unicode="ò" glyph-name="ograve" horiz-adv-x="509" d="M292 574h-65q-16 0-27 13l-81 96q-6 8-3 14t13 6h99q20 0 30-19l44-89q11-21-10-21zm7-574h-89Q131 0 88 42T45 163v184q0 79 43 121t122 42h89q78 0 121-42t44-121V163q0-78-43-120T299 0zm-70 109h51q32 0 45 13t14 45v176q0 32-13 45t-46 13h-51q-32 0-45-13t-13-45V167q0-32 13-45t45-13z"/><glyph unicode="ó" glyph-name="oacute" horiz-adv-x="509" d="M285 703h99q11 0 14-6t-4-14l-81-96q-13-13-28-13h-64q-21 0-10 21l44 89q11 19 30 19zM299 0h-89Q131 0 88 42T45 163v184q0 79 43 121t122 42h89q78 0 121-42t44-121V163q0-78-43-120T299 0zm-70 109h51q32 0 45 13t14 45v176q0 32-13 45t-46 13h-51q-32 0-45-13t-13-45V167q0-32 13-45t45-13z"/><glyph unicode="ô" glyph-name="ocircumflex" horiz-adv-x="509" d="M364 574h-60q-13 0-17 12l-33 66-32-66q-5-12-18-12h-59q-15 0-8 13l63 105q8 11 22 11h65q14 0 22-11l62-105q7-13-7-13zM299 0h-89Q131 0 88 42T45 163v184q0 79 43 121t122 42h89q78 0 121-42t44-121V163q0-78-43-120T299 0zm-70 109h51q32 0 45 13t14 45v176q0 32-13 45t-46 13h-51q-32 0-45-13t-13-45V167q0-32 13-45t45-13z"/><glyph unicode="õ" glyph-name="otilde" horiz-adv-x="509" d="M126 650v38q0 12 11 12h39q7 0 9-2t2-10v-11q0-22 3-29t11-7 33 31 61 32q71 0 71-76v-37q0-13-10-13h-39q-11 0-11 13v9q0 23-3 30t-11 7-31-28q-24-35-63-35-72 0-72 76zM299 0h-89Q131 0 88 42T45 163v184q0 79 43 121t122 42h89q78 0 121-42t44-121V163q0-78-43-120T299 0zm-70 109h51q32 0 45 13t14 45v176q0 32-13 45t-46 13h-51q-32 0-45-13t-13-45V167q0-32 13-45t45-13z"/><glyph unicode="ö" glyph-name="odieresis" horiz-adv-x="509" d="M100 595v88q0 20 20 20h79q20 0 20-19v-89q0-21-20-21h-79q-20 0-20 21zm190 0v88q0 20 20 20h79q20 0 20-19v-89q0-21-20-21h-79q-20 0-20 21zm9-595h-89Q131 0 88 42T45 163v184q0 79 43 121t122 42h89q78 0 121-42t44-121V163q0-78-43-120T299 0zm-70 109h51q32 0 45 13t14 45v176q0 32-13 45t-46 13h-51q-32 0-45-13t-13-45V167q0-32 13-45t45-13z"/><glyph unicode="÷" glyph-name="divide" horiz-adv-x="464" d="M190 160v49q0 20 21 20h43q22 0 22-20v-49q0-21-22-21h-43q-21 0-21 21zm183 118H92q-21 0-21 21v43q0 21 21 21h281q20 0 20-21v-43q0-21-20-21zM190 432v49q0 21 21 21h43q22 0 22-21v-49q0-20-22-20h-43q-21 0-21 20z"/><glyph unicode="ø" glyph-name="oslash" horiz-adv-x="520" d="M470 347V163q0-78-43-120T305 0h-89Q138 0 94 42L67 15Q49 0 37 15L22 30Q6 44 21 61l39 39q-9 27-9 63v184q0 79 43 121t122 42h89q79 0 122-43l27 27q15 16 30 1l16-15q16-16 0-31l-39-39q9-28 9-63zm-292-6V218l158 158q-11 24-52 24h-48q-32 0-45-13t-13-46zm164-172v122L185 133q11-23 51-23h48q32 0 45 13t13 46z"/><glyph unicode="ù" glyph-name="ugrave" horiz-adv-x="523" d="M295 574h-66q-16 0-26 13l-81 96q-7 8-4 14t13 6h99q20 0 30-19l45-89q10-21-10-21zM239 0h-33Q129 0 90 42T50 163v326q0 21 21 21h85q21 0 21-21V169q0-32 13-45t45-14h37q69 0 69 76v303q0 21 21 21h84q22 0 22-21V21q0-21-22-21h-84q-21 0-21 21v33h-4q-11-27-39-40T239 0z"/><glyph unicode="ú" glyph-name="uacute" horiz-adv-x="523" d="M285 703h99q10 0 13-6t-3-14l-82-96q-11-13-28-13h-63q-21 0-11 21l45 89q9 19 30 19zM239 0h-33Q129 0 90 42T50 163v326q0 21 21 21h85q21 0 21-21V169q0-32 13-45t45-14h37q69 0 69 76v303q0 21 21 21h84q22 0 22-21V21q0-21-22-21h-84q-21 0-21 21v33h-4q-11-27-39-40T239 0z"/><glyph unicode="û" glyph-name="ucircumflex" horiz-adv-x="523" d="M369 574h-60q-13 0-18 12l-32 66-32-66q-5-12-18-12h-59q-15 0-8 13l62 105q8 11 23 11h64q15 0 23-11l62-105q7-13-7-13zM239 0h-33Q129 0 90 42T50 163v326q0 21 21 21h85q21 0 21-21V169q0-32 13-45t45-14h37q69 0 69 76v303q0 21 21 21h84q22 0 22-21V21q0-21-22-21h-84q-21 0-21 21v33h-4q-11-27-39-40T239 0z"/><glyph unicode="ü" glyph-name="udieresis" horiz-adv-x="523" d="M105 595v88q0 20 19 20h80q19 0 19-19v-89q0-21-19-21h-80q-19 0-19 21zm190 0v88q0 20 19 20h80q19 0 19-19v-89q0-21-19-21h-80q-19 0-19 21zM239 0h-33Q129 0 90 42T50 163v326q0 21 21 21h85q21 0 21-21V169q0-32 13-45t45-14h37q69 0 69 76v303q0 21 21 21h84q22 0 22-21V21q0-21-22-21h-84q-21 0-21 21v33h-4q-11-27-39-40T239 0z"/><glyph unicode="ý" glyph-name="yacute" horiz-adv-x="472" d="M264 703h98q11 0 14-6t-4-14l-81-96q-11-13-28-13h-64q-20 0-10 21l45 89q10 19 30 19zM138-169H74q-20 0-20 22v67q0 22 20 22h21q63 0 85 17t35 68h-53q-19 0-25 21L20 489q-6 21 15 21h89q20 0 25-21l86-369h4l85 369q4 21 25 21h84q25 0 20-22L331 0q-22-83-68-126t-125-43z"/><glyph unicode="þ" glyph-name="thorn" horiz-adv-x="527" d="M252 110h44q32 0 45 13t14 46v172q0 32-13 45t-46 14h-44q-69 0-69-76V186q0-76 69-76zm-69-56v-166q0-21-21-21H77q-21 0-21 21v794q0 21 21 21h85q21 0 21-21V456h4q11 27 39 40t59 14h32q79 0 122-42t43-121V163q0-79-43-121T317 0h-32q-31 0-59 13t-39 41h-4z"/><glyph unicode="ÿ" glyph-name="ydieresis" horiz-adv-x="472" d="M83 595v88q0 20 19 20h80q20 0 20-19v-89q0-21-20-21h-80q-19 0-19 21zm190 0v88q0 20 19 20h80q20 0 20-19v-89q0-21-20-21h-80q-19 0-19 21zM138-169H74q-20 0-20 22v67q0 22 20 22h21q63 0 85 17t35 68h-53q-19 0-25 21L20 489q-6 21 15 21h89q20 0 25-21l86-369h4l85 369q4 21 25 21h84q25 0 20-22L331 0q-22-83-68-126t-125-43z"/><glyph unicode="–" glyph-name="endash" horiz-adv-x="395" d="M335 284H61q-21 0-21 22v42q0 22 21 22h274q20 0 20-22v-42q0-22-20-22z"/><glyph unicode="—" glyph-name="emdash" horiz-adv-x="633" d="M40 306v42q0 22 21 22h512q20 0 20-22v-42q0-22-20-22H61q-21 0-21 22z"/><glyph unicode="‘" glyph-name="quoteleft" horiz-adv-x="185" d="M37 423v30q0 35 23 79l53 101q7 10 18 10 18 0 18-20V424q0-20-20-20H57q-20 0-20 19z"/><glyph unicode="’" glyph-name="quoteright" horiz-adv-x="185" d="M149 624v-30q0-31-23-79L73 414q-7-10-19-10-17 0-17 20v199q0 20 20 20h72q20 0 20-19z"/><glyph unicode="‚" glyph-name="quotesinglbase" horiz-adv-x="187" d="M150 108V78q0-33-23-79L74-102q-7-10-19-10-17 0-17 20v199q0 20 20 20h72q20 0 20-19z"/><glyph unicode="“" glyph-name="quotedblleft" horiz-adv-x="347" d="M199 423v30q0 35 23 79l53 101q7 10 18 10 18 0 18-20V424q0-20-20-20h-72q-20 0-20 19zm-162 0v30q0 35 23 79l53 101q7 10 18 10 18 0 18-20V424q0-20-20-20H57q-20 0-20 19z"/><glyph unicode="”" glyph-name="quotedblright" horiz-adv-x="347" d="M149 624v-30q0-31-23-79L73 414q-7-10-19-10-17 0-17 20v199q0 20 20 20h72q20 0 20-19zm162 0v-30q0-31-23-79l-53-101q-7-10-19-10-17 0-17 20v199q0 20 20 20h72q20 0 20-19z"/><glyph unicode="„" glyph-name="quotedblbase" horiz-adv-x="349" d="M150 107V77q0-31-23-79L74-103q-7-10-19-10-17 0-17 20v199q0 20 20 20h72q20 0 20-19zm162 0V77q0-31-23-79l-53-101q-7-10-19-10-17 0-17 20v199q0 20 20 20h72q20 0 20-19z"/><glyph unicode="•" glyph-name="bullet" horiz-adv-x="294" d="M235 351v-61q0-34-19-52t-53-18h-33q-35 0-53 18t-19 52v61q0 33 19 51t53 19h33q34 0 53-18t19-52z"/><glyph unicode="‹" glyph-name="guilsinglleft" horiz-adv-x="280" d="M235 158V95q0-11-6-14t-15 4L65 200q-12 9-16 15t-4 22v41q0 21 20 35l149 115q9 7 15 4t6-14v-63q0-17-20-30l-91-68 91-69q20-13 20-30z"/><glyph unicode="›" glyph-name="guilsinglright" horiz-adv-x="280" d="M45 355v63q0 11 5 14t15-4l150-115q20-14 20-35v-41q0-15-4-21t-16-16L65 85q-9-7-14-4t-6 14v63q0 17 19 30l92 69-92 68q-19 13-19 30z"/></font>
</defs>
</svg>
