<svg xmlns="http://www.w3.org/2000/svg"><defs><font id="Rajdhani" horiz-adv-x="473"><font-face font-family="Rajdhani" panose-1="2 0 0 0 0 0 0 0 0 0" ascent="930" descent="-346" alphabetic="0"/><glyph glyph-name="space" horiz-adv-x="280"/><glyph unicode="!" glyph-name="exclam" horiz-adv-x="237" d="M100 550v84q0 9 8 9h21q8 0 8-9v-84q0-89-3-203t-6-129-8-15h-4q-5 0-7 11-9 66-9 336zm35-422V9q0-9-8-9h-17q-8 0-8 9v119q0 9 8 9h17q8 0 8-9z"/><glyph unicode="&quot;" glyph-name="quotedbl" horiz-adv-x="324" d="M89 441h-3q-9 0-9 10l-7 182q0 10 9 10h17q9 0 9-10l-7-182q0-10-9-10zm149 0h-3q-9 0-9 10l-7 182q0 10 9 10h17q9 0 9-10l-7-182q0-10-9-10z"/><glyph unicode="#" glyph-name="numbersign" horiz-adv-x="679" d="M610 470q9 0 9-8v-12q0-8-9-8H508l-69-241h100q9 0 9-8v-12q0-8-9-8H431L384 11q-3-11-12-11h-11q-9 0-5 15l46 158H192L145 11q-3-11-12-11h-11q-10 0-5 15l46 158H69q-9 0-9 8v12q0 8 9 8h102l69 241H140q-9 0-9 8v12q0 8 9 8h108l47 162q3 11 13 11h8q12 0 7-15l-46-158h210l47 162q3 11 13 11h8q11 0 7-15l-46-158h94zM410 201l69 241H269l-69-241h210z"/><glyph unicode="$" glyph-name="dollar" horiz-adv-x="498" d="M270-98h-14q-8 0-8 9V0h-39q-61 0-97 37t-37 99v34q0 9 8 9h14q8 0 8-9v-33q0-51 27-80t77-29h80q50 0 77 29t27 80v71q0 57-26 80t-80 24h-72q-67 0-103 28T75 440v69q0 62 36 99t98 37h39v89q0 9 8 9h14q8 0 8-9v-89h11q61 0 97-37t37-99v-30q0-9-8-9h-14q-8 0-8 9v29q0 51-27 80t-77 29h-80q-50 0-77-29t-27-80v-68q0-56 25-78t79-23h81q133 0 133-129v-74q0-62-36-99T289 0h-11v-89q0-9-8-9z"/><glyph unicode="%" glyph-name="percent" horiz-adv-x="711" d="M545 265h-16q-49 0-68-21t-19-73v-48q0-52 19-73t68-22h16q49 0 67 21t19 74v48q0 52-18 73t-68 21zm-16 28h16q60 0 88-29t28-92v-50q0-63-28-92T545 0h-16q-60 0-88 29t-29 93v50q0 62 28 91t89 30zM183 620h-16q-49 0-68-21t-19-73v-48q0-52 19-73t68-22h16q49 0 67 21t19 74v48q0 52-18 73t-68 21zm-16 28h16q60 0 88-29t28-92v-50q0-63-28-92t-88-30h-16q-60 0-88 29t-29 93v50q0 62 28 91t89 30zM219 0h-10q-10 0-5 12l275 620q5 11 13 11h10q10 0 4-14L232 11q-5-11-13-11z"/><glyph unicode="&amp;" glyph-name="ampersand" horiz-adv-x="592" d="M299 0h-85q-61 0-97 35t-37 98v92q0 50 26 86t81 38q-48 57-48 118v43q0 62 36 97t98 36h22q61 0 97-35t37-98v-49q0-9-8-9h-14q-8 0-8 9v48q0 51-27 78t-77 28h-22q-50 0-77-27t-27-79v-41q0-33 9-55t34-50l67-77h244q9 0 9-8v-12q0-8-9-8H303L521 6q2-4-2-6h-19q-7 0-13 6l-63 72q-13-37-46-57T299 0zm-85 28h85q87 0 101 77L204 330q-46-3-70-30t-24-76v-90q0-51 27-78t77-28z"/><glyph unicode="'" glyph-name="quotesingle" horiz-adv-x="185" d="M94 441h-3q-9 0-9 10l-7 182q0 10 9 10h17q9 0 9-10l-7-182q-3-10-9-10z"/><glyph unicode="(" glyph-name="parenleft" horiz-adv-x="277" d="M207 635v-12q0-8-9-8h-4q-50 0-77-29t-27-80V35q0-51 27-80t77-29h4q9 0 9-8v-12q0-8-9-8h-4q-61 0-97 37T60 34v473q0 62 36 99t98 37h4q9 0 9-8z"/><glyph unicode=")" glyph-name="parenright" horiz-adv-x="277" d="M60-94v12q0 8 9 8h4q50 0 77 29t27 80v471q0 51-27 80t-77 29h-4q-9 0-9 8v12q0 8 9 8h4q61 0 97-37t37-99V34q0-62-36-99t-98-37h-4q-9 0-9 8z"/><glyph unicode="*" glyph-name="asterisk" horiz-adv-x="408" d="M189 617v17q0 9 8 9h15q8 0 8-9v-17q0-74-16-106 42 32 114 52 8 3 10-5l4-14q4-8-6-11l-17-5q-74-23-105-17 41-30 74-77l11-15q5-5-2-11l-12-8q-7-5-12 2-55 77-59 109-18-50-61-109-4-6-11-2l-12 9q-7 3-1 12 28 39 50 61t35 29q-54 0-122 24-9 3-6 10l5 14q2 8 11 5 86-27 112-53-15 42-15 106z"/><glyph unicode="+" glyph-name="plus" horiz-adv-x="512" d="M271 335h162q9 0 9-8v-12q0-8-9-8H271V144q0-9-8-9h-14q-8 0-8 9v163H79q-9 0-9 8v12q0 8 9 8h162v163q0 9 8 9h14q8 0 8-9V335z"/><glyph unicode="," glyph-name="comma" horiz-adv-x="187" d="M112 128V49q0-15-26-144-2-6-6-6t-5 6v223q0 9 8 9h21q8 0 8-9z"/><glyph unicode="-" glyph-name="hyphen" horiz-adv-x="312" d="M263 306H49q-9 0-9 8v12q0 8 9 8h214q9 0 9-8v-12q0-8-9-8z"/><glyph unicode="." glyph-name="period" horiz-adv-x="187" d="M112 128V9q0-9-8-9H83q-8 0-8 9v119q0 9 8 9h21q8 0 8-9z"/><glyph unicode="/" glyph-name="slash" horiz-adv-x="393" d="M92 0H79q-13 0-8 12l218 620q4 11 13 11h14q11 0 6-14L105 11Q101 0 92 0z"/><glyph unicode="0" glyph-name="zero" horiz-adv-x="508" d="M204 28h100q50 0 77 29t27 80v369q0 51-27 80t-77 29H204q-50 0-77-29t-27-80V137q0-51 27-80t77-29zM304 0H204q-61 0-97 37t-37 99v371q0 62 36 99t98 37h100q61 0 97-37t37-99V136q0-62-36-99T304 0z"/><glyph unicode="1" glyph-name="one" horiz-adv-x="312" d="M40 538v6q0 13 11 19l135 75q10 5 16 5h12q8 0 8-9V9q0-9-8-9h-14q-8 0-8 9v601L56 533q-16-11-16 5z"/><glyph unicode="2" glyph-name="two" horiz-adv-x="474" d="M64 8v86q0 75 63 120l200 149q53 39 53 105v41q0 51-27 78t-77 28h-82q-50 0-77-27t-27-79v-48q0-9-8-9H68q-8 0-8 9v49q0 62 36 97t98 36h82q61 0 97-35t37-98v-43q0-78-64-125L144 191q-50-38-50-93V28h311q9 0 9-8V8q0-8-9-8H73q-9 0-9 8z"/><glyph unicode="3" glyph-name="three" horiz-adv-x="493" d="M227 338h62q50 0 77 27t27 79v65q0 51-27 78t-77 28h-85q-50 0-77-27t-27-79v-38q0-9-8-9H78q-8 0-8 9v39q0 62 36 97t98 36h85q61 0 97-35t37-98v-67q0-94-84-119 84-22 84-119v-72q0-62-36-97T289 0h-85q-61 0-97 35t-37 98v50q0 9 8 9h14q8 0 8-9v-49q0-51 27-78t77-28h85q50 0 77 27t27 79v70q0 51-27 78t-77 28h-62q-9 0-9 8v12q0 8 9 8z"/><glyph unicode="4" glyph-name="four" horiz-adv-x="515" d="M360 163v458L84 163h276zM382 0h-14q-8 0-8 9v126H59q-9 0-9 8v12q0 7 6 16l278 461q6 11 19 11h29q8 0 8-9V163h76q9 0 9-8v-12q0-8-9-8h-76V9q0-9-8-9z"/><glyph unicode="5" glyph-name="five" horiz-adv-x="476" d="M282 371h-96q-27 0-44-8t-23-18-11-18-12-9H78q-8 0-8 9v307q0 9 8 9h319q9 0 9-8v-12q0-8-9-8H100V350q19 49 86 49h96q61 0 97-35t37-98V136q0-62-36-99T282 0h-78q-61 0-97 37t-37 99v40q0 9 8 9h14q8 0 8-9v-39q0-51 27-80t77-29h78q50 0 77 29t27 80v128q0 51-27 78t-77 28z"/><glyph unicode="6" glyph-name="six" horiz-adv-x="490" d="M194 28h92q50 0 77 29t27 80v103q0 51-27 80t-77 29H90V137q0-51 27-80t77-29zm92-28h-92q-61 0-97 37t-37 99v371q0 62 36 99t98 37h186q9 0 9-8v-12q0-8-9-8H194q-50 0-77-29t-27-80V377h196q61 0 97-37t37-99V136q0-62-36-99T286 0z"/><glyph unicode="7" glyph-name="seven" horiz-adv-x="367" d="M109 0H99q-12 0-6 14l221 601H24q-9 0-9 8v12q0 8 9 8h314q9 0 9-8v-10q0-7-3-14L123 9q-3-9-14-9z"/><glyph unicode="8" glyph-name="eight" horiz-adv-x="513" d="M204 28h105q50 0 77 27t27 79v70q0 51-27 78t-77 28H204q-50 0-77-27t-27-79v-70q0-51 27-78t77-28zm0 310h105q50 0 77 27t27 79v65q0 51-27 78t-77 28H204q-50 0-77-27t-27-79v-65q0-51 27-78t77-28zM309 0H204q-61 0-97 35t-37 98v72q0 90 74 119-74 29-74 119v67q0 62 36 97t98 36h105q61 0 97-35t37-98v-67q0-90-74-119 74-29 74-119v-72q0-62-36-97T309 0z"/><glyph unicode="9" glyph-name="nine" horiz-adv-x="490" d="M194 294h196v212q0 51-27 80t-77 29h-92q-50 0-77-29t-27-80V403q0-51 27-80t77-29zM286 0H100q-9 0-9 8v12q0 8 9 8h186q50 0 77 29t27 80v129H194q-61 0-97 37t-37 99v105q0 62 36 99t98 37h92q61 0 97-37t37-99V136q0-62-36-99T286 0z"/><glyph unicode=":" glyph-name="colon" horiz-adv-x="187" d="M112 501V382q0-9-8-9H83q-8 0-8 9v119q0 9 8 9h21q8 0 8-9zm0-373V9q0-9-8-9H83q-8 0-8 9v119q0 9 8 9h21q8 0 8-9z"/><glyph unicode=";" glyph-name="semicolon" horiz-adv-x="187" d="M112 128V49q0-15-26-144-2-6-6-6t-5 6v223q0 9 8 9h21q8 0 8-9zm0 373V382q0-9-8-9H83q-8 0-8 9v119q0 9 8 9h21q8 0 8-9z"/><glyph unicode="&lt;" glyph-name="less" horiz-adv-x="500" d="M436 475v-14q0-8-7-10L92 321l337-130q7-2 7-10v-14q0-10-11-6L73 300q-9 4-9 11v20q0 7 9 11l352 139q11 4 11-6z"/><glyph unicode="=" glyph-name="equal" horiz-adv-x="522" d="M84 422h354q9 0 9-8v-12q0-8-9-8H84q-9 0-9 8v12q0 8 9 8zm0-174h354q9 0 9-8v-12q0-8-9-8H84q-9 0-9 8v12q0 8 9 8z"/><glyph unicode="&gt;" glyph-name="greater" horiz-adv-x="522" d="M75 461v14q0 10 11 6l352-139q9-4 9-11v-20q0-7-9-11L86 161q-11-4-11 6v14q0 8 7 10l337 130L82 451q-7 2-7 10z"/><glyph unicode="?" glyph-name="question" horiz-adv-x="475" d="M266 128V9q0-9-8-9h-21q-8 0-8 9v119q0 9 8 9h21q8 0 8-9zm-3 123v-39q0-9-8-9h-14q-8 0-8 9v35q0 43 11 66t49 55l31 28q41 35 41 79v33q0 51-27 78t-77 28h-47q-50 0-77-27t-27-79v-47q0-9-8-9H88q-8 0-8 9v48q0 62 36 97t98 36h47q61 0 97-35t37-98v-35q0-55-48-95l-40-34q-30-25-37-42t-7-52z"/><glyph unicode="@" glyph-name="at" horiz-adv-x="755" d="M521-58H339q-98 0-173 68T90 197v151q0 119 75 187t174 68h192q61 0 97-37t37-99V219q0-62-36-99t-98-37h-23q-12 0-20 8t-8 21v25h-4q-28-52-108-52-61 0-97 37t-37 99v103q0 62 36 99t98 37h134q8 0 8-9V119q0-8 9-8h12q50 0 77 29t27 80v246q0 51-27 80t-77 29H337q-87 0-152-63t-65-163V196q0-100 65-163t152-63h184q9 0 9-8v-12q0-8-9-8zm-41 275v207q0 8-9 8H368q-50 0-77-29t-27-80V222q0-51 27-80t77-29h1q50 0 80 27t31 77z"/><glyph unicode="A" glyph-name="A" horiz-adv-x="526" d="M51 0H37q-9 0-6 9l210 625q3 9 10 9h24q7 0 10-9L495 9q3-9-6-9h-15q-7 0-10 9l-61 174H123L62 9q-4-9-11-9zm210 605L134 213h258L265 605h-4z"/><glyph unicode="B" glyph-name="B" horiz-adv-x="544" d="M129 28h206q50 0 77 27t27 79v71q0 106-114 106H129q-9 0-9-8V36q0-8 9-8zm0 311h196q51 0 79 27t29 79v64q0 51-27 78t-77 28H129q-9 0-9-8V347q0-8 9-8zM90 9v625q0 9 8 9h231q61 0 97-35t37-98v-66q0-93-88-119 36-2 65-35t29-84v-73q0-62-36-97T335 0H98q-8 0-8 9z"/><glyph unicode="C" glyph-name="C" horiz-adv-x="543" d="M344 0H214q-61 0-97 37t-37 99v371q0 62 36 99t98 37h130q61 0 97-37t37-99v-50q0-9-8-9h-14q-8 0-8 9v49q0 51-27 80t-77 29H214q-50 0-77-29t-27-80V137q0-51 27-80t77-29h130q50 0 77 29t27 80v49q0 9 8 9h14q8 0 8-9v-50q0-62-36-99T344 0z"/><glyph unicode="D" glyph-name="D" horiz-adv-x="558" d="M129 28h215q50 0 77 29t27 80v369q0 51-27 80t-77 29H129q-9 0-9-8V36q0-8 9-8zM90 9v625q0 9 8 9h246q61 0 97-37t37-99V136q0-62-36-99T344 0H98q-8 0-8 9z"/><glyph unicode="E" glyph-name="E" horiz-adv-x="481" d="M402 0H98q-8 0-8 9v625q0 9 8 9h304q9 0 9-8v-12q0-8-9-8H129q-9 0-9-8V350q0-8 9-8h247q9 0 9-8v-12q0-8-9-8H129q-9 0-9-8V36q0-8 9-8h273q9 0 9-8V8q0-8-9-8z"/><glyph unicode="F" glyph-name="F" horiz-adv-x="462" d="M112 0H98q-8 0-8 9v625q0 9 8 9h305q9 0 9-8v-12q0-8-9-8H129q-9 0-9-8V341q0-8 9-8h247q9 0 9-8v-12q0-8-9-8H129q-9 0-9-8V9q0-9-8-9z"/><glyph unicode="G" glyph-name="G" horiz-adv-x="538" d="M324 0H214q-61 0-97 37t-37 99v371q0 62 36 99t98 37h110q61 0 97-37t37-99v-50q0-9-8-9h-14q-8 0-8 9v49q0 51-27 80t-77 29H214q-50 0-77-29t-27-80V137q0-51 27-80t77-29h110q50 0 77 29t27 80v151q0 8-9 8H290q-9 0-9 8v12q0 8 9 8h150q18 0 18-19V136q0-62-36-99T324 0z"/><glyph unicode="H" glyph-name="H" horiz-adv-x="568" d="M112 0H98q-8 0-8 9v625q0 9 8 9h14q8 0 8-9V350q0-8 9-8h310q9 0 9 8v284q0 9 8 9h14q8 0 8-9V9q0-9-8-9h-14q-8 0-8 9v297q0 8-9 8H129q-9 0-9-8V9q0-9-8-9z"/><glyph unicode="I" glyph-name="I" horiz-adv-x="220" d="M125 634V9q0-9-8-9h-14q-8 0-8 9v625q0 9 8 9h14q8 0 8-9z"/><glyph unicode="J" glyph-name="J" horiz-adv-x="493" d="M386 643h14q8 0 8-8V136q0-62-36-99T274 0H174q-61 0-97 37t-37 99v80q0 9 8 9h14q8 0 8-9v-79q0-51 27-80t77-29h100q50 0 77 29t27 80v497q0 9 8 9z"/><glyph unicode="K" glyph-name="K" horiz-adv-x="523" d="M112 0H98q-8 0-8 9v625q0 9 8 9h14q8 0 8-9V242h4q6 13 15 25l281 367q7 9 16 9h19q10 0 2-9L253 363 491 9q6-9-4-9h-16q-9 0-15 9L234 339 120 202V9q0-9-8-9z"/><glyph unicode="L" glyph-name="L" horiz-adv-x="452" d="M413 0H98q-8 0-8 9v625q0 9 8 9h14q8 0 8-9V38q0-8 9-8h284q9 0 9-8V8q0-8-9-8z"/><glyph unicode="M" glyph-name="M" horiz-adv-x="688" d="M562 643h28q8 0 8-9V9q0-9-8-9h-14q-8 0-8 9v576h-4L366 148q-4-8-12-8h-19q-8 0-12 8L124 586h-4V9q0-9-8-9H98q-8 0-8 9v625q0 9 8 9h28q5 0 7-4l209-462h4l209 462q2 4 7 4z"/><glyph unicode="N" glyph-name="N" horiz-adv-x="578" d="M112 0H98q-8 0-8 9v625q0 9 8 9h14q5 0 7-4L454 72h4v562q0 9 8 9h14q8 0 8-9V9q0-9-8-9h-10q-7 0-12 8L124 573h-4V9q0-9-8-9z"/><glyph unicode="O" glyph-name="O" horiz-adv-x="553" d="M214 28h125q50 0 77 29t27 80v369q0 51-27 80t-77 29H214q-50 0-77-29t-27-80V137q0-51 27-80t77-29zM339 0H214q-61 0-97 37t-37 99v371q0 62 36 99t98 37h125q61 0 97-37t37-99V136q0-62-36-99T339 0z"/><glyph unicode="P" glyph-name="P" horiz-adv-x="523" d="M112 0H98q-8 0-8 9v625q0 9 8 9h226q61 0 97-37t37-99V384q0-62-36-99t-98-37H129q-9 0-9-8V9q0-9-8-9zm17 276h195q50 0 77 29t27 80v121q0 51-27 80t-77 29H129q-9 0-9-8V284q0-8 9-8z"/><glyph unicode="Q" glyph-name="Q" horiz-adv-x="553" d="M214 28h125q50 0 77 29t27 80v369q0 51-27 80t-77 29H214q-50 0-77-29t-27-80V137q0-51 27-80t77-29zm198-161h-16q-9 0-15 9L304 0h-90q-61 0-97 37t-37 99v371q0 62 36 99t98 37h125q61 0 97-37t37-99V136q0-62-36-99T339 0l77-124q6-9-4-9z"/><glyph unicode="R" glyph-name="R" horiz-adv-x="530" d="M112 0H98q-8 0-8 9v625q0 9 8 9h225q61 0 97-37t37-99V407q0-56-30-91t-81-43v-4L469 9q5-9-4-9h-18q-8 0-13 9L312 271H129q-9 0-9-8V9q0-9-8-9zm17 299h194q50 0 77 29t27 80v98q0 51-27 80t-77 29H129q-9 0-9-8V307q0-8 9-8z"/><glyph unicode="S" glyph-name="S" horiz-adv-x="568" d="M90 136v40q0 9 8 9h14q8 0 8-9v-39q0-51 27-80t77-29h120q50 0 77 29t27 80v50q0 47-37 74t-89 40-105 25-90 42-37 79v60q0 62 36 99t98 37h120q61 0 97-37t37-99v-30q0-9-8-9h-14q-8 0-8 9v29q0 51-27 80t-77 29H224q-50 0-77-29t-27-80v-58q0-74 126-102 53-11 105-24t90-46 37-87v-53q0-62-36-99T344 0H224q-61 0-97 37t-37 99z"/><glyph unicode="T" glyph-name="T" horiz-adv-x="414" d="M214 0h-14q-8 0-8 9v598q0 8-9 8H29q-9 0-9 8v12q0 8 9 8h356q9 0 9-8v-12q0-8-9-8H231q-9 0-9-8V9q0-9-8-9z"/><glyph unicode="U" glyph-name="U" horiz-adv-x="550" d="M443 643h14q8 0 8-8V136q0-62-36-99T331 0H219q-61 0-97 37t-37 99v498q0 9 8 9h14q8 0 8-9V137q0-51 27-80t77-29h112q50 0 77 29t27 80v497q0 9 8 9z"/><glyph unicode="V" glyph-name="V" horiz-adv-x="494" d="M259 0h-24q-7 0-10 9L31 634q-3 9 6 9h15q7 0 10-9L245 44h4l183 590q3 9 10 9h15q9 0 6-9L269 9q-3-9-10-9z"/><glyph unicode="W" glyph-name="W" horiz-adv-x="790" d="M219 0h-27q-8 0-11 9L36 634q-2 9 8 9h14q7 0 10-9L203 38h4l167 596q3 9 11 9h19q8 0 11-9L583 38h4l135 596q2 9 11 9h15q9 0 6-9L609 9q-2-9-10-9h-27q-8 0-11 9L397 599h-4L229 9q-3-9-10-9z"/><glyph unicode="X" glyph-name="X" horiz-adv-x="494" d="M58 0H42q-9 0-4 9l190 333L49 634q-5 9 5 9h14q9 0 14-9l164-269h4l163 269q5 9 13 9h16q9 0 4-9L268 343 457 9q5-9-4-9h-16q-7 0-11 7L249 317h-4L69 7q-4-7-11-7z"/><glyph unicode="Y" glyph-name="Y" horiz-adv-x="486" d="M250 0h-14q-8 0-8 9v236L31 634q-5 9 5 9h18q7 0 11-9l176-350h4l176 350q4 9 11 9h18q10 0 5-9L258 245V9q0-9-8-9z"/><glyph unicode="Z" glyph-name="Z" horiz-adv-x="471" d="M40 8v17q0 6 2 9l344 577v4H59q-9 0-9 8v12q0 8 9 8h353q9 0 9-8v-19q0-5-2-8L75 32v-4h347q9 0 9-8V8q0-8-9-8H49q-9 0-9 8z"/><glyph unicode="[" glyph-name="bracketleft" horiz-adv-x="277" d="M198-102H68q-8 0-8 9v727q0 9 8 9h130q9 0 9-8v-12q0-8-9-8H99q-9 0-9-8V-66q0-8 9-8h99q9 0 9-8v-12q0-8-9-8z"/><glyph unicode="\" glyph-name="backslash" horiz-adv-x="393" d="M77 643h14q9 0 13-11L322 12q4-12-8-12h-13q-9 0-13 11L71 629q-5 14 6 14z"/><glyph unicode="]" glyph-name="bracketright" horiz-adv-x="277" d="M60-94v12q0 8 9 8h99q9 0 9 8v673q0 8-9 8H69q-9 0-9 8v12q0 8 9 8h130q8 0 8-9V-93q0-9-8-9H69q-9 0-9 8z"/><glyph unicode="^" glyph-name="asciicircum" horiz-adv-x="453" d="M79 365H69q-14 0-7 12l134 255q6 11 19 11h23q13 0 19-11l134-255q7-12-7-12h-10q-8 0-14 9L226 626 93 374q-6-9-14-9z"/><glyph unicode="_" glyph-name="underscore" horiz-adv-x="372" d="M363-96H9q-9 0-9 8v12q0 8 9 8h354q9 0 9-8v-12q0-8-9-8z"/><glyph unicode="`" glyph-name="grave" horiz-adv-x="261" d="M186 574h-8q-8 0-14 8L72 694q-3 4-2 6t6 3h30q10 0 15-9l68-111q5-9-3-9z"/><glyph unicode="a" glyph-name="a" horiz-adv-x="498" d="M278 0h-74q-61 0-97 37t-37 99v238q0 62 36 99t98 37h206q8 0 8-9V9q0-9-8-9h-14q-8 0-8 9v43h-4Q356 0 278 0zm110 132v342q0 8-9 8H204q-50 0-77-29t-27-80V137q0-51 27-80t77-29h72q50 0 81 27t31 77z"/><glyph unicode="b" glyph-name="b" horiz-adv-x="498" d="M119 28h175q50 0 77 29t27 80v246q0 51-27 80t-77 29h-72q-50 0-81-27t-31-77V36q0-8 9-8zM80 9v685q0 9 8 9h14q8 0 8-9V468h4q28 52 106 52h74q61 0 97-37t37-99V136q0-62-36-99T294 0H88q-8 0-8 9z"/><glyph unicode="c" glyph-name="c" horiz-adv-x="390" d="M355 20V8q0-8-9-8H204q-61 0-97 37t-37 99v238q0 62 36 99t98 37h142q9 0 9-8v-12q0-8-9-8H204q-50 0-77-29t-27-80V137q0-51 27-80t77-29h142q9 0 9-8z"/><glyph unicode="d" glyph-name="d" horiz-adv-x="498" d="M278 0h-74q-61 0-97 37t-37 99v238q0 62 36 99t98 37h74q78 0 106-52h4v236q0 9 8 9h14q8 0 8-9V9q0-9-8-9h-14q-8 0-8 9v43h-4Q356 0 278 0zm110 132v246q0 50-31 77t-81 27h-72q-50 0-77-29t-27-80V137q0-51 27-80t77-29h72q50 0 81 27t31 77z"/><glyph unicode="e" glyph-name="e" horiz-adv-x="491" d="M409 0H204q-61 0-97 37t-37 99v238q0 62 36 99t98 37h88q61 0 97-37t37-99V247q0-10-9-10H109q-9 0-9-8v-92q0-51 27-80t77-29h205q9 0 9-8V8q0-8-9-8zM109 265h278q9 0 9 8v100q0 51-27 80t-77 29h-88q-50 0-77-29t-27-80V273q0-8 9-8z"/><glyph unicode="f" glyph-name="f" horiz-adv-x="290" d="M164 510h94q9 0 9-8v-12q0-8-9-8h-94q-9 0-9-8V9q0-9-8-9h-14q-8 0-8 9v465q0 8-9 8H48q-9 0-9 8v12q0 8 9 8h68q9 0 9 8v51q0 134 118 134h15q9 0 9-8v-12q0-8-9-8h-15q-48 0-68-26t-20-81v-50q0-8 9-8z"/><glyph unicode="g" glyph-name="g" horiz-adv-x="503" d="M283 30h-74q-61 0-97 37t-37 99v208q0 62 36 99t98 37h206q8 0 8-9V3q0-62-36-99t-98-37H110q-9 0-9 8v12q0 8 9 8h179q50 0 77 29t27 80v78h-4q-28-52-106-52zm110 132v312q0 8-9 8H209q-50 0-77-29t-27-80V167q0-51 27-80t77-29h72q50 0 81 27t31 77z"/><glyph unicode="h" glyph-name="h" horiz-adv-x="503" d="M102 0H88q-8 0-8 9v685q0 9 8 9h14q8 0 8-9V458h4q28 52 106 52h74q61 0 97-37t37-99V9q0-9-8-9h-14q-8 0-8 9v364q0 51-27 80t-77 29h-72q-50 0-81-27t-31-77V9q0-9-8-9z"/><glyph unicode="i" glyph-name="i" horiz-adv-x="200" d="M85 593v99q0 9 8 9h14q8 0 8-9v-99q0-9-8-9H93q-8 0-8 9zM85 9v492q0 9 8 9h14q8 0 8-9V9q0-9-8-9H93q-8 0-8 9z"/><glyph unicode="j" glyph-name="j" horiz-adv-x="200" d="M85 593v99q0 9 8 9h14q8 0 8-9v-99q0-9-8-9H93q-8 0-8 9zM-19-133h-20q-9 0-9 8v12q0 8 9 8h20q50 0 77 29T85 4v497q0 9 8 9h14q8 0 8-9V3q0-62-36-99t-98-37z"/><glyph unicode="k" glyph-name="k" horiz-adv-x="420" d="M366 510h14q11 0 4-9L225 266v-4L405 9q7-9-3-9h-17q-11 0-18 9L192 258q-4 6 0 12l158 233q5 7 16 7zM102 0H88q-8 0-8 9v685q0 9 8 9h14q8 0 8-9V9q0-9-8-9z"/><glyph unicode="l" glyph-name="l" horiz-adv-x="200" d="M107 0H93q-8 0-8 9v685q0 9 8 9h14q8 0 8-9V9q0-9-8-9z"/><glyph unicode="m" glyph-name="m" horiz-adv-x="761" d="M102 0H88q-8 0-8 9v492q0 9 8 9h14q8 0 8-9v-43h4q28 52 106 52h44q88 0 121-71 14 35 51 53t76 18h40q61 0 97-37t37-99V9q0-9-8-9h-14q-8 0-8 9v364q0 51-27 80t-77 29h-40q-51 0-82-29t-32-80V9q0-9-8-9h-14q-8 0-8 9v364q0 51-27 80t-77 29h-42q-50 0-81-27t-31-77V9q0-9-8-9z"/><glyph unicode="n" glyph-name="n" horiz-adv-x="503" d="M102 0H88q-8 0-8 9v492q0 9 8 9h14q8 0 8-9v-43h4q28 52 106 52h74q61 0 97-37t37-99V9q0-9-8-9h-14q-8 0-8 9v364q0 51-27 80t-77 29h-72q-50 0-81-27t-31-77V9q0-9-8-9z"/><glyph unicode="o" glyph-name="o" horiz-adv-x="493" d="M289 0h-85q-61 0-97 37t-37 99v238q0 62 36 99t98 37h85q61 0 97-37t37-99V136q0-62-36-99T289 0zm-85 28h85q50 0 77 29t27 80v236q0 51-27 80t-77 29h-85q-50 0-77-29t-27-80V137q0-51 27-80t77-29z"/><glyph unicode="p" glyph-name="p" horiz-adv-x="498" d="M102-153H88q-8 0-8 9v645q0 9 8 9h14q8 0 8-9v-43h4q28 52 106 52h74q61 0 97-37t37-99V136q0-62-36-99T294 0h-74q-78 0-106 52h-4v-196q0-9-8-9zM222 28h72q50 0 77 29t27 80v236q0 51-27 80t-77 29h-72q-50 0-81-27t-31-77V132q0-50 31-77t81-27z"/><glyph unicode="q" glyph-name="q" horiz-adv-x="498" d="M388 137v337q0 8-9 8H204q-50 0-77-29t-27-80V137q0-51 27-80t77-29h70q51 0 82 29t32 80zM274 0h-70q-61 0-97 37t-37 99v238q0 62 36 99t98 37h206q8 0 8-9v-645q0-9-8-9h-14q-8 0-8 9V54h-4q-14-25-35-38T313 2t-39-2z"/><glyph unicode="r" glyph-name="r" horiz-adv-x="303" d="M102 0H88q-8 0-8 9v492q0 9 8 9h14q8 0 8-9v-45h4q11 20 38 37t72 17h40q9 0 9-8v-12q0-8-9-8h-41q-51 0-82-32t-31-87V9q0-9-8-9z"/><glyph unicode="s" glyph-name="s" horiz-adv-x="429" d="M238 0H68q-9 0-9 8v12q0 8 9 8h170q101 0 101 80v30q0 37-13 60t-47 35l-132 46q-52 18-72 44t-21 75q0 112 122 112h161q9 0 9-8v-12q0-8-9-8H176q-46 0-68-21t-23-48v-27q0-32 16-49t52-30l131-47q53-15 69-49t16-95-32-88-99-28z"/><glyph unicode="t" glyph-name="t" horiz-adv-x="346" d="M105 482H39q-9 0-9 8v12q0 8 9 8h66q9 0 9 8v78q0 9 8 9h14q8 0 8-9v-78q0-8 9-8h129q9 0 9-8v-12q0-8-9-8H153q-9 0-9-8V134q0-50 29-78t81-28h38q9 0 9-8V8q0-8-9-8h-38q-62 0-101 36t-39 97v341q0 8-9 8z"/><glyph unicode="u" glyph-name="u" horiz-adv-x="503" d="M283 0h-74q-61 0-97 37t-37 99v365q0 9 8 9h14q8 0 8-9V137q0-51 27-80t77-29h72q50 0 81 27t31 77v369q0 9 8 9h14q8 0 8-9V9q0-9-8-9h-14q-8 0-8 9v43h-4Q361 0 283 0z"/><glyph unicode="v" glyph-name="v" horiz-adv-x="402" d="M27 510h16q7 0 10-9L199 41h4l146 460q3 9 10 9h16q9 0 6-9L223 9q-3-9-11-9h-22q-8 0-11 9L21 501q-3 9 6 9z"/><glyph unicode="w" glyph-name="w" horiz-adv-x="679" d="M202 0h-20q-8 0-11 9L21 501q-3 9 6 9h15q7 0 10-9L190 41h4l128 460q2 9 11 9h14q9 0 11-9L484 41h4l138 460q3 9 10 9h16q9 0 6-9L508 9q-3-9-11-9h-21q-8 0-11 9L341 454h-4L213 9q-3-9-11-9z"/><glyph unicode="x" glyph-name="x" horiz-adv-x="400" d="M51 0H31q-9 0-3 9l150 251L37 501q-6 9 3 9h19q7 0 13-9l126-218h4l123 218q6 9 13 9h19q9 0 3-9L221 262 372 9q6-9-3-9h-23q-4 0-10 9L202 240h-4L64 9q-6-9-13-9z"/><glyph unicode="y" glyph-name="y" horiz-adv-x="456" d="M59-147q-9 0-9 8v12q0 8 9 8h29q40 0 56 14t25 21 17 26 13 26q18 40 23 59h-10q-8 0-11 9L31 501q-3 9 6 9h16q7 0 10-9L226 56h4l163 445q3 9 10 9h16q9 0 6-9L255 36q-31-89-47-115-43-67-120-68H59z"/><glyph unicode="z" glyph-name="z" horiz-adv-x="393" d="M35 8v9q0 6 2 9l275 452v4H50q-9 0-9 8v12q0 8 9 8h293q9 0 9-8v-12q0-5-2-8L76 32v-4h273q9 0 9-8V8q0-8-9-8H44q-9 0-9 8z"/><glyph unicode="{" glyph-name="braceleft" horiz-adv-x="293" d="M220 643h4q9 0 9-8v-12q0-8-9-8h-4q-41 0-57-27t-17-82V365q0-78-52-95 52-17 52-95V35q0-54 16-81t58-28h4q9 0 9-8v-12q0-8-9-8h-4q-52 0-78 36T116 34v140q0 44-16 63t-51 19q-9 0-9 8v12q0 8 9 8 34 0 50 19t17 63v141q0 64 26 100t78 36z"/><glyph unicode="|" glyph-name="bar" horiz-adv-x="200" d="M115 634V9q0-9-8-9H93q-8 0-8 9v625q0 9 8 9h14q8 0 8-9z"/><glyph unicode="}" glyph-name="braceright" horiz-adv-x="293" d="M157 507V366q0-44 16-63t51-19q9 0 9-8v-12q0-8-9-8-34 0-50-19t-17-63V34q0-64-26-100t-78-36h-4q-9 0-9 8v12q0 8 9 8h4q41 0 57 27t17 82v140q0 78 52 95-52 17-52 95v141q0 54-16 81t-58 28h-4q-9 0-9 8v12q0 8 9 8h4q52 0 78-36t26-100z"/><glyph unicode="~" glyph-name="asciitilde" horiz-adv-x="512" d="M189 325h-25l-86-20q-8 0-8 10v9q0 7 25 18t62 11 102-14 89-15 86 20q8 0 8-10v-9q0-7-25-18t-61-11-101 14z"/><glyph glyph-name="uni00A0" horiz-adv-x="280"/><glyph unicode="¡" glyph-name="exclamdown" horiz-adv-x="237" d="M127 506h-17q-8 0-8 9v119q0 9 8 9h17q8 0 8-9V515q0-9-8-9zm-11-66h4q5 0 7-15t6-129 4-203V9q0-9-8-9h-21q-8 0-8 9v84q0 270 9 336 2 11 7 11z"/><glyph unicode="¢" glyph-name="cent" horiz-adv-x="410" d="M267-89h-14q-8 0-8 9V0h-41q-61 0-97 37t-37 99v238q0 62 36 99t98 37h41v95q0 9 8 9h14q8 0 8-9v-95h91q9 0 9-8v-12q0-8-9-8H204q-50 0-77-29t-27-80V137q0-51 27-80t77-29h162q9 0 9-8V8q0-8-9-8h-91v-80q0-9-8-9z"/><glyph unicode="£" glyph-name="sterling" horiz-adv-x="520" d="M116 28h325q9 0 9-8V8q0-8-9-8H49q-9 0-9 8v12q0 8 9 8h12q20 0 36 21t17 51v180H49q-9 0-9 8v12q0 8 9 8h65v202q0 62 36 97t98 36h65q61 0 97-35t37-98v-29q0-9-8-9h-14q-8 0-8 9v28q0 51-27 78t-77 28h-65q-50 0-77-27t-27-79V308h176q9 0 9-8v-12q0-8-9-8H144V102q0-26-6-43-10-27-22-27v-4z"/><glyph unicode="¥" glyph-name="yen" horiz-adv-x="487" d="M250 0h-14q-8 0-8 9v166H42q-9 0-9 8v12q0 8 9 8h186v42l-35 70H42q-9 0-9 8v12q0 8 9 8h137L31 634q-4 9 5 9h19q7 0 11-9l175-350h4l175 350q4 9 11 9h19q10 0 5-9L308 343h136q9 0 9-8v-12q0-8-9-8H294l-36-70v-42h186q9 0 9-8v-12q0-8-9-8H258V9q0-9-8-9z"/><glyph unicode="¦" glyph-name="brokenbar" horiz-adv-x="193" d="M113 634V385q0-9-8-9H88q-8 0-8 9v249q0 9 8 9h17q8 0 8-9zm0-376V9q0-9-8-9H88q-8 0-8 9v249q0 9 8 9h17q8 0 8-9z"/><glyph unicode="§" glyph-name="section" horiz-adv-x="444" d="M354 303q0 39-20 57t-60 26l-111 19q-48 10-73 35v-92q0-75 78-89l111-19q49-8 75-31v94zM253 0H73q-9 0-9 8v12q0 8 9 8h180q60 0 80 27t21 71-20 61-60 26l-111 19Q60 252 60 348v173q0 122 121 122h161q9 0 9-8v-12q0-8-9-8H181q-43 0-67-24t-24-67 16-63 62-29l111-19q51-9 78-34t27-76V133q0-62-28-97T253 0z"/><glyph unicode="¨" glyph-name="dieresis" horiz-adv-x="326" d="M70 583v111q0 9 8 9h14q8 0 8-9V583q0-9-8-9H78q-8 0-8 9zm156 0v111q0 9 8 9h14q8 0 8-9V583q0-9-8-9h-14q-8 0-8 9z"/><glyph unicode="©" glyph-name="copyright" horiz-adv-x="728" d="M495 402v-18q0-9-8-9h-14q-8 0-8 9v17q0 50-21 69t-73 20h-21q-51 0-72-19t-22-70V235q0-50 21-69t73-20h21q51 0 72 19t22 70v23q0 9 8 9h14q8 0 8-9v-24q0-61-31-88t-93-28h-21q-62 0-93 27t-31 89v168q0 61 31 88t93 28h21q62 0 93-27t31-89zM209 28h310q50 0 77 29t27 80v369q0 51-27 80t-77 29H209q-50 0-77-29t-27-80V137q0-51 27-80t77-29zm0 615h310q61 0 97-37t37-99V136q0-62-36-99T519 0H209q-61 0-97 37t-37 99v371q0 62 36 99t98 37z"/><glyph unicode="«" glyph-name="guillemotleft" horiz-adv-x="425" d="M355 112V96q0-6-3-8t-8 3L211 229q-9 11-9 19v14q0 8 9 19l133 138q4 5 7 3t4-8v-16q0-7-5-13L225 255l125-130q5-6 5-13zm-132 0V96q0-6-3-8t-8 3L79 229q-9 11-9 19v14q0 8 9 19l133 138q4 5 7 3t4-8v-16q0-7-5-13L93 255l125-130q5-6 5-13z"/><glyph unicode="®" glyph-name="registered" horiz-adv-x="430" d="M233 625h-47v-69h47q20 0 20 21v28q0 20-20 20zm-70-148v160q0 9 8 9h62q20 0 31-12t12-32v-23q0-33-26-42l28-60q4-9-3-9h-10q-7 0-9 6l-28 61h-42v-58q0-9-8-9h-7q-8 0-8 9zm12-46h79q39 0 60 23t22 63v78q0 40-21 63t-61 23h-79q-39 0-60-23t-22-63v-78q0-40 21-63t61-23zm79-22h-79q-48 0-76 29t-29 78v80q0 49 28 78t77 29h79q48 0 77-29t29-78v-80q0-49-29-78t-77-29z"/><glyph unicode="¯" glyph-name="overscore" horiz-adv-x="362" d="M283 627H79q-9 0-9 8v9q0 8 9 8h204q9 0 9-8v-9q0-8-9-8z"/><glyph unicode="°" glyph-name="degree" horiz-adv-x="276" d="M156 511h-37q-49 0-49 49v97q0 47 49 47h37q23 0 36-12t14-35v-97q0-23-13-36t-37-13zm-12 25q21 0 27 7t7 28v72q0 21-6 28t-28 7h-12q-21 0-27-7t-7-28v-72q0-21 6-28t28-7h12z"/><glyph unicode="±" glyph-name="plusminus" horiz-adv-x="512" d="M271 378h162q9 0 9-8v-12q0-8-9-8H271V230q0-9-8-9h-14q-8 0-8 9v120H79q-9 0-9 8v12q0 8 9 8h162v120q0 9 8 9h14q8 0 8-9V378zM79 163h354q9 0 9-8v-12q0-8-9-8H79q-9 0-9 8v12q0 8 9 8z"/><glyph unicode="´" glyph-name="acute" horiz-adv-x="261" d="M155 703h30q4 0 5-2t-1-7L97 582q-6-8-14-8h-8q-8 0-3 9l68 111q4 9 15 9z"/><glyph unicode="¶" glyph-name="paragraph" horiz-adv-x="504" d="M192 0h-14q-8 0-8 9v314q-60 1-90 28t-30 88v88q0 61 31 88t93 28h231q9 0 9-8V9q0-9-8-9h-14q-8 0-8 9v596q0 8-9 8H209q-9 0-9-8V9q0-9-8-9z"/><glyph unicode="·" glyph-name="middot" horiz-adv-x="207" d="M122 378V259q0-9-8-9H93q-8 0-8 9v119q0 9 8 9h21q8 0 8-9z"/><glyph unicode="¸" glyph-name="cedilla" horiz-adv-x="254" d="M105-54q40 0 59-13t20-44v-10q0-57-79-57H86q-9 0-9 8v10q0 8 9 8h16q55 0 55 34v2q0 20-12 28t-43 8h-9q-17 0-22 12t6 23l58 65h35l-65-70v-4z"/><glyph unicode="»" glyph-name="guillemotright" horiz-adv-x="425" d="M202 398v16q0 6 3 8t8-3l133-138q9-11 9-19v-14q0-8-9-19L213 91q-5-5-8-3t-3 8v16q0 7 5 13l125 130-125 130q-5 6-5 13zm-132 0v16q0 6 3 8t8-3l133-138q9-11 9-19v-14q0-8-9-19L81 91q-5-5-8-3t-3 8v16q0 7 5 13l125 130L75 385q-5 6-5 13z"/><glyph unicode="¿" glyph-name="questiondown" horiz-adv-x="475" d="M209 514v119q0 9 8 9h21q8 0 8-9V514q0-9-8-9h-21q-8 0-8 9zm3-123v39q0 9 8 9h14q8 0 8-9v-35q0-43-11-66t-49-55l-31-28q-41-35-41-79v-33q0-51 27-78t77-28h47q50 0 77 27t27 79v47q0 9 8 9h14q8 0 8-9v-48q0-62-36-97T261 0h-47q-61 0-97 35t-37 98v35q0 55 48 95l40 34q30 25 37 42t7 52z"/><glyph unicode="À" glyph-name="Agrave" horiz-adv-x="526" d="M263 707h-8q-8 0-14 8l-92 112q-3 4-2 6t6 3h30q11 0 15-9l68-111q5-9-3-9zM51 0H37q-9 0-6 9l210 625q3 9 10 9h24q7 0 10-9L495 9q3-9-6-9h-15q-7 0-10 9l-61 174H123L62 9q-4-9-11-9zm210 605L134 213h258L265 605h-4z"/><glyph unicode="Á" glyph-name="Aacute" horiz-adv-x="526" d="M344 836h30q4 0 5-2t-1-7l-92-112q-6-8-14-8h-8q-8 0-3 9l68 111q5 9 15 9zM51 0H37q-9 0-6 9l210 625q3 9 10 9h24q7 0 10-9L495 9q3-9-6-9h-15q-7 0-10 9l-61 174H123L62 9q-4-9-11-9zm210 605L134 213h258L265 605h-4z"/><glyph unicode="Â" glyph-name="Acircumflex" horiz-adv-x="526" d="M347 707h-14q-9 0-11 5l-59 105-59-105q-2-5-11-5h-14q-11 0-4 11l64 109q6 9 19 9h10q13 0 19-9l64-109q7-11-4-11zM51 0H37q-9 0-6 9l210 625q3 9 10 9h24q7 0 10-9L495 9q3-9-6-9h-15q-7 0-10 9l-61 174H123L62 9q-4-9-11-9zm210 605L134 213h258L265 605h-4z"/><glyph unicode="Ã" glyph-name="Atilde" horiz-adv-x="526" d="M264 726l-12-12-41-12-39 17-12 61v39q0 9 8 9h7q8 0 8-9v-38q0-33 6-45t24-13 23 10 17 43 22 44 40 11 39-17 12-61v-42q0-9-8-9h-7q-8 0-8 9v41q0 33-6 45t-26 13-27-18q-2-5-11-35zM51 0H37q-9 0-6 9l210 625q3 9 10 9h24q7 0 10-9L495 9q3-9-6-9h-15q-7 0-10 9l-61 174H123L62 9q-4-9-11-9zm210 605L134 213h258L265 605h-4z"/><glyph unicode="Ä" glyph-name="Adieresis" horiz-adv-x="526" d="M170 716v111q0 9 8 9h14q8 0 8-9V716q0-9-8-9h-14q-8 0-8 9zm156 0v111q0 9 8 9h14q8 0 8-9V716q0-9-8-9h-14q-8 0-8 9zM51 0H37q-9 0-6 9l210 625q3 9 10 9h24q7 0 10-9L495 9q3-9-6-9h-15q-7 0-10 9l-61 174H123L62 9q-4-9-11-9zm210 605L134 213h258L265 605h-4z"/><glyph unicode="Å" glyph-name="Aring" horiz-adv-x="526" d="M266 692h-10q-37 0-56 20t-20 59v22q0 38 19 58t57 20h10q37 0 57-20t21-58v-22q0-37-20-58t-58-21zm-10 23h10q53 0 53 57v20q0 56-53 56h-10q-52 0-52-56v-20q0-57 52-57zM51 0H37q-9 0-6 9l210 625q3 9 10 9h24q7 0 10-9L495 9q3-9-6-9h-15q-7 0-10 9l-61 174H123L62 9q-4-9-11-9zm210 605L134 213h258L265 605h-4z"/><glyph unicode="Æ" glyph-name="AE" horiz-adv-x="771" d="M24 0H5q-9 0-4 9l355 625q5 9 14 9h322q9 0 9-8v-12q0-8-9-8H419q-9 0-9-8V350q0-8 9-8h247q9 0 9-8v-12q0-8-9-8H419q-9 0-9-8V36q0-8 9-8h273q9 0 9-8V8q0-8-9-8H388q-8 0-8 9v174H135L36 9q-5-9-12-9zm356 213v394h-4L152 213h228z"/><glyph unicode="Ç" glyph-name="Ccedilla" horiz-adv-x="543" d="M470 448h-14q-8 0-8 9v49q0 51-27 80t-77 29H214q-50 0-77-29t-27-80V137q0-51 27-80t77-29h130q50 0 77 29t27 80v49q0 9 8 9h14q8 0 8-9v-50q0-62-36-99T344 0h-26l-46-50v-4q40 0 59-13t20-44v-10q0-57-79-57h-19q-9 0-9 8v10q0 8 9 8h16q30 0 42 7t13 27v2q0 20-12 28t-43 8h-9q-18 0-22 12t6 23l40 45h-70q-61 0-97 37t-37 99v371q0 62 36 99t98 37h130q61 0 97-37t37-99v-50q0-9-8-9z"/><glyph unicode="È" glyph-name="Egrave" horiz-adv-x="481" d="M268 707h-8q-8 0-14 8l-92 112q-3 4-2 6t6 3h30q10 0 15-9l68-111q5-9-3-9zM402 0H98q-8 0-8 9v625q0 9 8 9h304q9 0 9-8v-12q0-8-9-8H129q-9 0-9-8V350q0-8 9-8h247q9 0 9-8v-12q0-8-9-8H129q-9 0-9-8V36q0-8 9-8h273q9 0 9-8V8q0-8-9-8z"/><glyph unicode="É" glyph-name="Eacute" horiz-adv-x="481" d="M319 836h30q4 0 5-2t-1-7l-92-112q-6-8-14-8h-8q-8 0-3 9l68 111q4 9 15 9zM402 0H98q-8 0-8 9v625q0 9 8 9h304q9 0 9-8v-12q0-8-9-8H129q-9 0-9-8V350q0-8 9-8h247q9 0 9-8v-12q0-8-9-8H129q-9 0-9-8V36q0-8 9-8h273q9 0 9-8V8q0-8-9-8z"/><glyph unicode="Ê" glyph-name="Ecircumflex" horiz-adv-x="481" d="M334 707h-14q-8 0-11 5l-59 105-59-105q-3-5-11-5h-14q-11 0-4 11l64 109q6 9 19 9h10q13 0 19-9l64-109q7-11-4-11zM402 0H98q-8 0-8 9v625q0 9 8 9h304q9 0 9-8v-12q0-8-9-8H129q-9 0-9-8V350q0-8 9-8h247q9 0 9-8v-12q0-8-9-8H129q-9 0-9-8V36q0-8 9-8h273q9 0 9-8V8q0-8-9-8z"/><glyph unicode="Ë" glyph-name="Edieresis" horiz-adv-x="481" d="M157 716v111q0 9 8 9h14q8 0 8-9V716q0-9-8-9h-14q-8 0-8 9zm156 0v111q0 9 8 9h14q8 0 8-9V716q0-9-8-9h-14q-8 0-8 9zM402 0H98q-8 0-8 9v625q0 9 8 9h304q9 0 9-8v-12q0-8-9-8H129q-9 0-9-8V350q0-8 9-8h247q9 0 9-8v-12q0-8-9-8H129q-9 0-9-8V36q0-8 9-8h273q9 0 9-8V8q0-8-9-8z"/><glyph unicode="Ì" glyph-name="Igrave" horiz-adv-x="220" d="M115 707h-8q-8 0-14 8L1 827q-3 4-2 6t6 3h30q11 0 15-9l68-111q5-9-3-9zm10-73V9q0-9-8-9h-14q-8 0-8 9v625q0 9 8 9h14q8 0 8-9z"/><glyph unicode="Í" glyph-name="Iacute" horiz-adv-x="221" d="M186 836h30q4 0 5-2t-1-7l-92-112q-6-8-14-8h-8q-8 0-3 9l68 111q5 9 15 9zm-61-202V9q0-9-8-9h-14q-8 0-8 9v625q0 9 8 9h14q8 0 8-9z"/><glyph unicode="Î" glyph-name="Icircumflex" horiz-adv-x="220" d="M194 707h-14q-8 0-11 5l-59 105-59-105q-3-5-11-5H26q-11 0-4 11l64 109q6 9 19 9h10q13 0 19-9l64-109q7-11-4-11zm-69-73V9q0-9-8-9h-14q-8 0-8 9v625q0 9 8 9h14q8 0 8-9z"/><glyph unicode="Ï" glyph-name="Idieresis" horiz-adv-x="220" d="M17 716v111q0 9 8 9h14q8 0 8-9V716q0-9-8-9H25q-8 0-8 9zm156 0v111q0 9 8 9h14q8 0 8-9V716q0-9-8-9h-14q-8 0-8 9zm-48-82V9q0-9-8-9h-14q-8 0-8 9v625q0 9 8 9h14q8 0 8-9z"/><glyph unicode="Ð" glyph-name="Eth" horiz-adv-x="500" d="M129 28h215q50 0 77 29t27 80v369q0 51-27 80t-77 29H129q-9 0-9-8V348q0-8 9-8h166q9 0 9-8v-12q0-8-9-8H129q-9 0-9-8V36q0-8 9-8zM344 0H98q-8 0-8 9v295q0 8-9 8H35q-9 0-9 8v12q0 8 9 8h46q9 0 9 8v286q0 9 8 9h246q61 0 97-37t37-99V136q0-62-36-99T344 0z"/><glyph unicode="Ñ" glyph-name="Ntilde" horiz-adv-x="578" d="M290 726l-12-12-41-12-39 17-12 61v39q0 9 8 9h7q8 0 8-9v-38q0-33 6-45t24-13 23 10 17 43 22 44 40 11 39-17 12-61v-42q0-9-8-9h-7q-8 0-8 9v41q0 33-6 45t-26 13-27-18q-2-5-11-35zM112 0H98q-8 0-8 9v625q0 9 8 9h14q5 0 7-4L454 72h4v562q0 9 8 9h14q8 0 8-9V9q0-9-8-9h-10q-7 0-12 8L124 573h-4V9q0-9-8-9z"/><glyph unicode="Ò" glyph-name="Ograve" horiz-adv-x="553" d="M286 707h-8q-8 0-14 8l-92 112q-3 4-2 6t6 3h30q10 0 15-9l68-111q5-9-3-9zM214 28h125q50 0 77 29t27 80v369q0 51-27 80t-77 29H214q-50 0-77-29t-27-80V137q0-51 27-80t77-29zM339 0H214q-61 0-97 37t-37 99v371q0 62 36 99t98 37h125q61 0 97-37t37-99V136q0-62-36-99T339 0z"/><glyph unicode="Ó" glyph-name="Oacute" horiz-adv-x="553" d="M345 836h30q4 0 5-2t-1-7l-92-112q-6-8-14-8h-8q-8 0-3 9l68 111q4 9 15 9zM214 28h125q50 0 77 29t27 80v369q0 51-27 80t-77 29H214q-50 0-77-29t-27-80V137q0-51 27-80t77-29zM339 0H214q-61 0-97 37t-37 99v371q0 62 36 99t98 37h125q61 0 97-37t37-99V136q0-62-36-99T339 0z"/><glyph unicode="Ô" glyph-name="Ocircumflex" horiz-adv-x="553" d="M360 707h-14q-8 0-11 5l-59 105-59-105q-3-5-11-5h-14q-11 0-4 11l64 109q6 9 19 9h10q13 0 19-9l64-109q7-11-4-11zM214 28h125q50 0 77 29t27 80v369q0 51-27 80t-77 29H214q-50 0-77-29t-27-80V137q0-51 27-80t77-29zM339 0H214q-61 0-97 37t-37 99v371q0 62 36 99t98 37h125q61 0 97-37t37-99V136q0-62-36-99T339 0z"/><glyph unicode="Õ" glyph-name="Otilde" horiz-adv-x="553" d="M277 726l-12-12-41-12-39 17-12 61v39q0 9 8 9h7q8 0 8-9v-38q0-33 6-45t24-13 23 10 17 43 22 44 40 11 39-17 12-61v-42q0-9-8-9h-7q-8 0-8 9v41q0 33-6 45t-26 13-27-18q-2-5-11-35zM214 28h125q50 0 77 29t27 80v369q0 51-27 80t-77 29H214q-50 0-77-29t-27-80V137q0-51 27-80t77-29zM339 0H214q-61 0-97 37t-37 99v371q0 62 36 99t98 37h125q61 0 97-37t37-99V136q0-62-36-99T339 0z"/><glyph unicode="Ö" glyph-name="Odieresis" horiz-adv-x="553" d="M183 716v111q0 9 8 9h14q8 0 8-9V716q0-9-8-9h-14q-8 0-8 9zm156 0v111q0 9 8 9h14q8 0 8-9V716q0-9-8-9h-14q-8 0-8 9zM214 28h125q50 0 77 29t27 80v369q0 51-27 80t-77 29H214q-50 0-77-29t-27-80V137q0-51 27-80t77-29zM339 0H214q-61 0-97 37t-37 99v371q0 62 36 99t98 37h125q61 0 97-37t37-99V136q0-62-36-99T339 0z"/><glyph unicode="×" glyph-name="multiply" horiz-adv-x="485" d="M264 321l117-117q7-7 0-12l-10-10q-5-7-12 0L242 299 125 182q-7-7-12 0l-10 10q-7 5 0 12l117 117-117 117q-7 7 0 12l10 10q5 7 12 0l117-117 117 117q7 7 12 0l10-10q7-5 0-12L264 321z"/><glyph unicode="Ø" glyph-name="Oslash" horiz-adv-x="553" d="M473 507V136q0-62-36-99T339 0H214q-78 0-112 56L71 13q-6-7-13-3l-9 6q-6 5 0 14l39 54q-8 26-8 52v371q0 62 36 99t98 37h125q76 0 112-55l30 41q6 8 13 4l9-6q7-5 0-14l-38-53q8-26 8-53zm-363-1V137q0-14 1-21l321 446q-23 53-93 53H214q-50 0-77-29t-27-80zm333-369v369q0 15-1 22L121 82q23-54 93-54h125q50 0 77 29t27 80z"/><glyph unicode="Ù" glyph-name="Ugrave" horiz-adv-x="550" d="M292 707h-8q-8 0-14 8l-92 112q-3 4-2 6t6 3h30q10 0 15-9l68-111q5-9-3-9zm151-64h14q8 0 8-8V136q0-62-36-99T331 0H219q-61 0-97 37t-37 99v498q0 9 8 9h14q8 0 8-9V137q0-51 27-80t77-29h112q50 0 77 29t27 80v497q0 9 8 9z"/><glyph unicode="Ú" glyph-name="Uacute" horiz-adv-x="550" d="M343 836h30q4 0 5-2t-1-7l-92-112q-6-8-14-8h-8q-8 0-3 9l68 111q4 9 15 9zm100-193h14q8 0 8-8V136q0-62-36-99T331 0H219q-61 0-97 37t-37 99v498q0 9 8 9h14q8 0 8-9V137q0-51 27-80t77-29h112q50 0 77 29t27 80v497q0 9 8 9z"/><glyph unicode="Û" glyph-name="Ucircumflex" horiz-adv-x="550" d="M359 707h-14q-9 0-11 5l-59 105-59-105q-2-5-11-5h-14q-11 0-4 11l64 109q6 9 19 9h10q13 0 19-9l64-109q7-11-4-11zm84-64h14q8 0 8-8V136q0-62-36-99T331 0H219q-61 0-97 37t-37 99v498q0 9 8 9h14q8 0 8-9V137q0-51 27-80t77-29h112q50 0 77 29t27 80v497q0 9 8 9z"/><glyph unicode="Ü" glyph-name="Udieresis" horiz-adv-x="550" d="M182 716v111q0 9 8 9h14q8 0 8-9V716q0-9-8-9h-14q-8 0-8 9zm156 0v111q0 9 8 9h14q8 0 8-9V716q0-9-8-9h-14q-8 0-8 9zm105-73h14q8 0 8-8V136q0-62-36-99T331 0H219q-61 0-97 37t-37 99v498q0 9 8 9h14q8 0 8-9V137q0-51 27-80t77-29h112q50 0 77 29t27 80v497q0 9 8 9z"/><glyph unicode="Ý" glyph-name="Yacute" horiz-adv-x="486" d="M315 836h30q4 0 5-2t-1-7l-92-112q-6-8-14-8h-8q-8 0-3 9l68 111q4 9 15 9zM250 0h-14q-8 0-8 9v236L31 634q-5 9 5 9h18q7 0 11-9l176-350h4l176 350q4 9 11 9h18q10 0 5-9L258 245V9q0-9-8-9z"/><glyph unicode="Þ" glyph-name="Thorn" horiz-adv-x="500" d="M164 161h124q50 0 77 29t27 80v103q0 51-27 80t-77 29H164q-9 0-9-8V169q0-8 9-8zM147 0h-14q-8 0-8 9v625q0 9 8 9h14q8 0 8-9V518q0-8 9-8h124q61 0 97-37t37-99V269q0-62-36-99t-98-37H164q-9 0-9-8V9q0-9-8-9z"/><glyph unicode="ß" glyph-name="germandbls" horiz-adv-x="539" d="M248 340h64q51 0 81 29t31 80v57q0 51-27 80t-77 29H219q-50 0-77-29t-27-80V9q0-9-8-9H93q-8 0-8 9v498q0 62 36 99t98 37h101q61 0 97-37t37-99v-59q0-42-21-73t-56-49q38-11 62-45t25-77v-68q0-62-36-99T330 0H227q-9 0-9 8v12q0 8 9 8h103q50 0 77 29t27 80v66q0 50-35 79t-87 30h-64q-9 0-9 7v13q0 8 9 8z"/><glyph unicode="à" glyph-name="agrave" horiz-adv-x="498" d="M286 574h-8q-8 0-14 8l-92 112q-3 4-2 6t6 3h30q10 0 15-9l68-111q5-9-3-9zM278 0h-74q-61 0-97 37t-37 99v238q0 62 36 99t98 37h206q8 0 8-9V9q0-9-8-9h-14q-8 0-8 9v43h-4Q356 0 278 0zm110 132v342q0 8-9 8H204q-50 0-77-29t-27-80V137q0-51 27-80t77-29h72q50 0 81 27t31 77z"/><glyph unicode="á" glyph-name="aacute" horiz-adv-x="498" d="M328 703h30q4 0 5-2t-1-7l-92-112q-6-8-14-8h-8q-8 0-3 9l68 111q5 9 15 9zM278 0h-74q-61 0-97 37t-37 99v238q0 62 36 99t98 37h206q8 0 8-9V9q0-9-8-9h-14q-8 0-8 9v43h-4Q356 0 278 0zm110 132v342q0 8-9 8H204q-50 0-77-29t-27-80V137q0-51 27-80t77-29h72q50 0 81 27t31 77z"/><glyph unicode="â" glyph-name="acircumflex" horiz-adv-x="498" d="M345 574h-14q-9 0-11 5l-59 105-59-105q-2-5-11-5h-14q-11 0-4 11l64 109q6 9 19 9h10q13 0 19-9l64-109q7-11-4-11zM278 0h-74q-61 0-97 37t-37 99v238q0 62 36 99t98 37h206q8 0 8-9V9q0-9-8-9h-14q-8 0-8 9v43h-4Q356 0 278 0zm110 132v342q0 8-9 8H204q-50 0-77-29t-27-80V137q0-51 27-80t77-29h72q50 0 81 27t31 77z"/><glyph unicode="ã" glyph-name="atilde" horiz-adv-x="500" d="M168 655v39q0 9 8 9h7q8 0 8-9v-38q0-33 6-45t24-13 23 10 17 43 22 44 40 11 39-17 12-61v-42q0-9-8-9h-7q-8 0-8 9v41q0 33-6 45t-26 13-27-18q-2-5-11-35t-21-43-41-12-39 17-12 61zM278 0h-74q-61 0-97 37t-37 99v238q0 62 36 99t98 37h206q8 0 8-9V9q0-9-8-9h-14q-8 0-8 9v43h-4Q356 0 278 0zm110 132v342q0 8-9 8H204q-50 0-77-29t-27-80V137q0-51 27-80t77-29h72q50 0 81 27t31 77z"/><glyph unicode="ä" glyph-name="adieresis" horiz-adv-x="498" d="M172 583v111q0 9 8 9h14q8 0 8-9V583q0-9-8-9h-14q-8 0-8 9zm156 0v111q0 9 8 9h14q8 0 8-9V583q0-9-8-9h-14q-8 0-8 9zM278 0h-74q-61 0-97 37t-37 99v238q0 62 36 99t98 37h206q8 0 8-9V9q0-9-8-9h-14q-8 0-8 9v43h-4Q356 0 278 0zm110 132v342q0 8-9 8H204q-50 0-77-29t-27-80V137q0-51 27-80t77-29h72q50 0 81 27t31 77z"/><glyph unicode="å" glyph-name="aring" horiz-adv-x="498" d="M388 132v342q0 8-9 8H204q-50 0-77-29t-27-80V137q0-51 27-80t77-29h72q50 0 81 27t31 77zM278 0h-74q-61 0-97 37t-37 99v238q0 62 36 99t98 37h206q8 0 8-9V9q0-9-8-9h-14q-8 0-8 9v43h-4Q356 0 278 0zm-85 663v-40q0-27 11-37t39-10h14q28 0 39 10t12 37v40q0 26-11 36t-40 10h-14q-27 0-38-10t-12-36zm-24-41v42q0 37 18 52t56 16h14q76 0 76-68v-42q0-69-76-69h-14q-38 0-56 16t-18 53z"/><glyph unicode="æ" glyph-name="ae" horiz-adv-x="806" d="M418 202v-65q0-51 27-80t77-29h205q9 0 9-8V8q0-8-9-8H522q-91 0-120 69Q371 0 278 0h-74q-61 0-97 37t-37 99v28q0 62 36 99t98 37h175q9 0 9 8v65q0 51-27 80t-77 29H132q-9 0-9 8v12q0 8 9 8h152q90 0 120-69 32 69 124 69h74q61 0 97-37t37-99V220q0-10-9-10H427q-9 0-9-8zm288 44v127q0 51-27 80t-77 29h-72q-50 0-81-27t-31-77V246q0-8 9-8h270q9 0 9 8zM388 132v132q0 8-9 8H204q-50 0-77-29t-27-80v-26q0-51 27-80t77-29h72q50 0 81 27t31 77z"/><glyph unicode="ç" glyph-name="ccedilla" horiz-adv-x="390" d="M346 482H204q-50 0-77-29t-27-80V137q0-51 27-80t77-29h142q9 0 9-8V8q0-8-9-8h-72l-46-50v-4q40 0 59-13t20-44v-10q0-57-79-57h-19q-9 0-9 8v10q0 8 9 8h16q55 0 55 34v2q0 20-12 28t-43 8h-9q-18 0-22 12t6 23l40 45h-36q-61 0-97 37t-37 99v238q0 62 36 99t98 37h142q9 0 9-8v-12q0-8-9-8z"/><glyph unicode="è" glyph-name="egrave" horiz-adv-x="491" d="M263 574h-8q-8 0-14 8l-92 112q-3 4-2 6t6 3h30q11 0 15-9l68-111q5-9-3-9zM409 0H204q-61 0-97 37t-37 99v238q0 62 36 99t98 37h88q61 0 97-37t37-99V247q0-10-9-10H109q-9 0-9-8v-92q0-51 27-80t77-29h205q9 0 9-8V8q0-8-9-8zM109 265h278q9 0 9 8v100q0 51-27 80t-77 29h-88q-50 0-77-29t-27-80V273q0-8 9-8z"/><glyph unicode="é" glyph-name="eacute" horiz-adv-x="491" d="M304 703h30q4 0 5-2t-1-7l-92-112q-6-8-14-8h-8q-8 0-3 9l68 111q5 9 15 9zM409 0H204q-61 0-97 37t-37 99v238q0 62 36 99t98 37h88q61 0 97-37t37-99V247q0-10-9-10H109q-9 0-9-8v-92q0-51 27-80t77-29h205q9 0 9-8V8q0-8-9-8zM109 265h278q9 0 9 8v100q0 51-27 80t-77 29h-88q-50 0-77-29t-27-80V273q0-8 9-8z"/><glyph unicode="ê" glyph-name="ecircumflex" horiz-adv-x="491" d="M332 574h-14q-8 0-11 5l-59 105-59-105q-3-5-11-5h-14q-11 0-4 11l64 109q6 9 19 9h10q13 0 19-9l64-109q7-11-4-11zM409 0H204q-61 0-97 37t-37 99v238q0 62 36 99t98 37h88q61 0 97-37t37-99V247q0-10-9-10H109q-9 0-9-8v-92q0-51 27-80t77-29h205q9 0 9-8V8q0-8-9-8zM109 265h278q9 0 9 8v100q0 51-27 80t-77 29h-88q-50 0-77-29t-27-80V273q0-8 9-8z"/><glyph unicode="ë" glyph-name="edieresis" horiz-adv-x="491" d="M155 583v111q0 9 8 9h14q8 0 8-9V583q0-9-8-9h-14q-8 0-8 9zm156 0v111q0 9 8 9h14q8 0 8-9V583q0-9-8-9h-14q-8 0-8 9zM409 0H204q-61 0-97 37t-37 99v238q0 62 36 99t98 37h88q61 0 97-37t37-99V247q0-10-9-10H109q-9 0-9-8v-92q0-51 27-80t77-29h205q9 0 9-8V8q0-8-9-8zM109 265h278q9 0 9 8v100q0 51-27 80t-77 29h-88q-50 0-77-29t-27-80V273q0-8 9-8z"/><glyph unicode="ì" glyph-name="igrave" horiz-adv-x="200" d="M104 574h-8q-8 0-14 8l-92 112q-3 4-2 6t6 3h30q10 0 15-9l68-111q5-9-3-9zM85 9v492q0 9 8 9h14q8 0 8-9V9q0-9-8-9H93q-8 0-8 9z"/><glyph unicode="í" glyph-name="iacute" horiz-adv-x="198" d="M174 703h30q4 0 5-2t-1-7l-92-112q-6-8-14-8h-8q-8 0-3 9l68 111q5 9 15 9zM85 9v492q0 9 8 9h14q8 0 8-9V9q0-9-8-9H93q-8 0-8 9z"/><glyph unicode="î" glyph-name="icircumflex" horiz-adv-x="200" d="M184 574h-14q-8 0-11 5l-59 105-59-105q-3-5-11-5H16q-11 0-4 11l64 109q6 9 19 9h10q13 0 19-9l64-109q7-11-4-11zM85 9v492q0 9 8 9h14q8 0 8-9V9q0-9-8-9H93q-8 0-8 9z"/><glyph unicode="ï" glyph-name="idieresis" horiz-adv-x="200" d="M7 583v111q0 9 8 9h14q8 0 8-9V583q0-9-8-9H15q-8 0-8 9zm156 0v111q0 9 8 9h14q8 0 8-9V583q0-9-8-9h-14q-8 0-8 9zM85 9v492q0 9 8 9h14q8 0 8-9V9q0-9-8-9H93q-8 0-8 9z"/><glyph unicode="ð" glyph-name="eth" horiz-adv-x="483" d="M418 357V136q0-62-36-99T284 0h-80q-61 0-97 37t-37 99v138q0 62 36 99t98 37h74q78 0 106-52h4q0 44-25 76L252 559l-104-88q-7-4-12 1l-5 7q-5 6 2 13l102 86-86 97q-7 9 0 15l6 5q7 5 13-2l88-97 107 91q7 4 12-1l5-7q5-7-1-12l-106-90 113-126q32-37 32-94zm-30-220v141q0 50-31 77t-81 27h-72q-50 0-77-29t-27-80V137q0-51 27-80t77-29h80q50 0 77 29t27 80z"/><glyph unicode="ñ" glyph-name="ntilde" horiz-adv-x="503" d="M151 655v39q0 9 8 9h7q8 0 8-9v-38q0-33 6-45t24-13 23 10 17 43 22 44 40 11 39-17 12-61v-42q0-9-8-9h-7q-8 0-8 9v41q0 33-6 45t-26 13-27-18q-2-5-11-35t-21-43-41-12-39 17-12 61zM102 0H88q-8 0-8 9v492q0 9 8 9h14q8 0 8-9v-43h4q28 52 106 52h74q61 0 97-37t37-99V9q0-9-8-9h-14q-8 0-8 9v364q0 51-27 80t-77 29h-72q-50 0-81-27t-31-77V9q0-9-8-9z"/><glyph unicode="ò" glyph-name="ograve" horiz-adv-x="493" d="M253 574h-8q-8 0-14 8l-92 112q-3 4-2 6t6 3h30q11 0 15-9l68-111q5-9-3-9zM289 0h-85q-61 0-97 37t-37 99v238q0 62 36 99t98 37h85q61 0 97-37t37-99V136q0-62-36-99T289 0zm-85 28h85q50 0 77 29t27 80v236q0 51-27 80t-77 29h-85q-50 0-77-29t-27-80V137q0-51 27-80t77-29z"/><glyph unicode="ó" glyph-name="oacute" horiz-adv-x="493" d="M321 703h30q4 0 5-2t-1-7l-92-112q-6-8-14-8h-8q-8 0-3 9l68 111q4 9 15 9zM289 0h-85q-61 0-97 37t-37 99v238q0 62 36 99t98 37h85q61 0 97-37t37-99V136q0-62-36-99T289 0zm-85 28h85q50 0 77 29t27 80v236q0 51-27 80t-77 29h-85q-50 0-77-29t-27-80V137q0-51 27-80t77-29z"/><glyph unicode="ô" glyph-name="ocircumflex" horiz-adv-x="493" d="M330 574h-14q-8 0-11 5l-59 105-59-105q-3-5-11-5h-14q-11 0-4 11l64 109q6 9 19 9h10q13 0 19-9l64-109q7-11-4-11zM289 0h-85q-61 0-97 37t-37 99v238q0 62 36 99t98 37h85q61 0 97-37t37-99V136q0-62-36-99T289 0zm-85 28h85q50 0 77 29t27 80v236q0 51-27 80t-77 29h-85q-50 0-77-29t-27-80V137q0-51 27-80t77-29z"/><glyph unicode="õ" glyph-name="otilde" horiz-adv-x="493" d="M143 655v39q0 9 8 9h7q8 0 8-9v-38q0-33 6-45t24-13 23 10 17 43 22 44 40 11 39-17 12-61v-42q0-9-8-9h-7q-8 0-8 9v41q0 33-6 45t-26 13-27-18q-2-5-11-35t-21-43-41-12-39 17-12 61zM289 0h-85q-61 0-97 37t-37 99v238q0 62 36 99t98 37h85q61 0 97-37t37-99V136q0-62-36-99T289 0zm-85 28h85q50 0 77 29t27 80v236q0 51-27 80t-77 29h-85q-50 0-77-29t-27-80V137q0-51 27-80t77-29z"/><glyph unicode="ö" glyph-name="odieresis" horiz-adv-x="493" d="M153 583v111q0 9 8 9h14q8 0 8-9V583q0-9-8-9h-14q-8 0-8 9zm156 0v111q0 9 8 9h14q8 0 8-9V583q0-9-8-9h-14q-8 0-8 9zM289 0h-85q-61 0-97 37t-37 99v238q0 62 36 99t98 37h85q61 0 97-37t37-99V136q0-62-36-99T289 0zm-85 28h85q50 0 77 29t27 80v236q0 51-27 80t-77 29h-85q-50 0-77-29t-27-80V137q0-51 27-80t77-29z"/><glyph unicode="÷" glyph-name="divide" horiz-adv-x="522" d="M246 144v64q0 9 8 9h14q8 0 8-9v-64q0-9-8-9h-14q-8 0-8 9zm192 163H84q-9 0-9 8v12q0 8 9 8h354q9 0 9-8v-12q0-8-9-8zM246 434v64q0 9 8 9h14q8 0 8-9v-64q0-9-8-9h-14q-8 0-8 9z"/><glyph unicode="ø" glyph-name="oslash" horiz-adv-x="521" d="M437 374V136q0-62-36-99T303 0h-85Q130 0 97 71L55 28q-7-7-12 0l-10 9q-6 6 0 12l54 54q-3 15-3 33v238q0 62 36 99t98 37h85q88 0 121-70l42 42q6 6 12 1l10-10q6-5-1-12l-53-53q3-16 3-34zm-323-1V130l287 287q-21 65-98 65h-85q-50 0-77-29t-27-80zm293-236v244L120 93q21-65 98-65h85q50 0 77 29t27 80z"/><glyph unicode="ù" glyph-name="ugrave" horiz-adv-x="503" d="M258 574h-8q-8 0-14 8l-92 112q-3 4-2 6t6 3h30q10 0 15-9l68-111q5-9-3-9zM283 0h-74q-61 0-97 37t-37 99v365q0 9 8 9h14q8 0 8-9V137q0-51 27-80t77-29h72q50 0 81 27t31 77v369q0 9 8 9h14q8 0 8-9V9q0-9-8-9h-14q-8 0-8 9v43h-4Q361 0 283 0z"/><glyph unicode="ú" glyph-name="uacute" horiz-adv-x="503" d="M323 703h30q4 0 5-2t-1-7l-92-112q-6-8-14-8h-8q-8 0-3 9l68 111q4 9 15 9zM283 0h-74q-61 0-97 37t-37 99v365q0 9 8 9h14q8 0 8-9V137q0-51 27-80t77-29h72q50 0 81 27t31 77v369q0 9 8 9h14q8 0 8-9V9q0-9-8-9h-14q-8 0-8 9v43h-4Q361 0 283 0z"/><glyph unicode="û" glyph-name="ucircumflex" horiz-adv-x="503" d="M333 574h-14q-9 0-11 5l-59 105-59-105q-2-5-11-5h-14q-11 0-4 11l64 109q6 9 19 9h10q13 0 19-9l64-109q7-11-4-11zM283 0h-74q-61 0-97 37t-37 99v365q0 9 8 9h14q8 0 8-9V137q0-51 27-80t77-29h72q50 0 81 27t31 77v369q0 9 8 9h14q8 0 8-9V9q0-9-8-9h-14q-8 0-8 9v43h-4Q361 0 283 0z"/><glyph unicode="ü" glyph-name="udieresis" horiz-adv-x="503" d="M156 583v111q0 9 8 9h14q8 0 8-9V583q0-9-8-9h-14q-8 0-8 9zm156 0v111q0 9 8 9h14q8 0 8-9V583q0-9-8-9h-14q-8 0-8 9zM283 0h-74q-61 0-97 37t-37 99v365q0 9 8 9h14q8 0 8-9V137q0-51 27-80t77-29h72q50 0 81 27t31 77v369q0 9 8 9h14q8 0 8-9V9q0-9-8-9h-14q-8 0-8 9v43h-4Q361 0 283 0z"/><glyph unicode="ý" glyph-name="yacute" horiz-adv-x="456" d="M305 703h30q4 0 5-2t-1-7l-92-112q-6-8-14-8h-8q-8 0-3 9l68 111q4 9 15 9zM59-147q-9 0-9 8v12q0 8 9 8h29q40 0 56 14t25 21 17 26 13 26q18 40 23 59h-10q-8 0-11 9L31 501q-3 9 6 9h16q7 0 10-9L226 56h4l163 445q3 9 10 9h16q9 0 6-9L255 36q-31-89-47-115-43-67-120-68H59z"/><glyph unicode="þ" glyph-name="thorn" horiz-adv-x="503" d="M227 28h72q50 0 77 29t27 80v236q0 51-27 80t-77 29h-72q-50 0-81-27t-31-77V132q0-50 31-77t81-27zM115 52v-176q0-9-8-9H93q-8 0-8 9v818q0 9 8 9h14q8 0 8-9V458h4q28 52 106 52h74q61 0 97-37t37-99V136q0-62-36-99T299 0h-74q-78 0-106 52h-4z"/><glyph unicode="ÿ" glyph-name="ydieresis" horiz-adv-x="456" d="M135 583v111q0 9 8 9h14q8 0 8-9V583q0-9-8-9h-14q-8 0-8 9zm156 0v111q0 9 8 9h14q8 0 8-9V583q0-9-8-9h-14q-8 0-8 9zM59-147q-9 0-9 8v12q0 8 9 8h29q40 0 56 14t25 21 17 26 13 26q18 40 23 59h-10q-8 0-11 9L31 501q-3 9 6 9h16q7 0 10-9L226 56h4l163 445q3 9 10 9h16q9 0 6-9L255 36q-31-89-47-115-43-67-120-68H59z"/><glyph unicode="–" glyph-name="endash" horiz-adv-x="412" d="M363 306H49q-9 0-9 8v12q0 8 9 8h314q9 0 9-8v-12q0-8-9-8z"/><glyph unicode="—" glyph-name="emdash" horiz-adv-x="512" d="M40 314v12q0 8 9 8h414q9 0 9-8v-12q0-8-9-8H49q-9 0-9 8z"/><glyph unicode="‘" glyph-name="quoteleft" horiz-adv-x="177" d="M70 414v79q0 15 26 144 2 6 6 6t5-6V414q0-9-8-9H78q-8 0-8 9z"/><glyph unicode="’" glyph-name="quoteright" horiz-adv-x="177" d="M107 634v-79q0-15-26-144-1-6-6-6t-5 6v223q0 9 8 9h21q8 0 8-9z"/><glyph unicode="‚" glyph-name="quotesinglbase" horiz-adv-x="187" d="M112 126V47q0-15-26-144-2-6-6-6t-5 6v223q0 9 8 9h21q8 0 8-9z"/><glyph unicode="“" glyph-name="quotedblleft" horiz-adv-x="324" d="M217 414v79q0 15 26 144 1 6 6 6t5-6V414q0-9-8-9h-21q-8 0-8 9zm-147 0v79q0 15 26 144 2 6 6 6t5-6V414q0-9-8-9H78q-8 0-8 9z"/><glyph unicode="”" glyph-name="quotedblright" horiz-adv-x="324" d="M107 634v-79q0-15-26-144-1-6-6-6t-5 6v223q0 9 8 9h21q8 0 8-9zm147 0v-79q0-15-26-144-2-6-6-6t-5 6v223q0 9 8 9h21q8 0 8-9z"/><glyph unicode="„" glyph-name="quotedblbase" horiz-adv-x="334" d="M112 126V47q0-15-26-144-2-6-6-6t-5 6v223q0 9 8 9h21q8 0 8-9zm147 0V47q0-15-26-144-1-6-6-6t-5 6v223q0 9 8 9h21q8 0 8-9z"/><glyph unicode="•" glyph-name="bullet" horiz-adv-x="267" d="M167 388V249q0-9-8-9h-51q-8 0-8 9v139q0 9 8 9h51q8 0 8-9z"/><glyph unicode="‹" glyph-name="guilsinglleft" horiz-adv-x="293" d="M223 112V96q0-6-3-8t-8 3L79 229q-9 11-9 19v14q0 8 9 19l133 138q4 5 7 3t4-8v-16q0-7-5-13L93 255l125-130q5-6 5-13z"/><glyph unicode="›" glyph-name="guilsinglright" horiz-adv-x="293" d="M70 398v16q0 6 3 8t8-3l133-138q9-11 9-19v-14q0-8-9-19L81 91q-5-5-8-3t-3 8v16q0 7 5 13l125 130L75 385q-5 6-5 13z"/></font>
</defs>
</svg>
